ThinWideLatin_decomp.ufo
<glyph name="exclam" format="1">
  <advance width="241.0"/>
  <unicode hex="0021"/>
  <outline>
    <contour>
      <point x="130.0" y="229" type="line"/>
      <point x="135.0" y="722" type="line"/>
      <point x="103.0" y="722" type="line"/>
      <point x="107.0" y="229" type="line"/>
    </contour>
    <contour>
      <point x="116.0" y="12"/>
      <point x="126.0" y="12"/>
      <point x="140.0" y="12" type="curve"/>
      <point x="140.0" y="23"/>
      <point x="132.0" y="30"/>
      <point x="120.0" y="30" type="curve"/>
      <point x="109.0" y="30"/>
      <point x="102.0" y="23"/>
      <point x="102.0" y="12" type="curve"/>
      <point x="116.0" y="12"/>
      <point x="126.0" y="12"/>
      <point x="140.0" y="12" type="curve"/>
      <point x="140.0" y="1"/>
      <point x="132.0" y="-6"/>
      <point x="120.0" y="-6" type="curve"/>
      <point x="109.0" y="-6"/>
      <point x="102.0" y="1"/>
      <point x="102.0" y="12" type="curve"/>
    </contour>
  </outline>
</glyph>
<glyph name="quotedbl" format="1">
  <advance width="414.575"/>
  <unicode hex="0022"/>
  <outline>
    <contour>
      <point x="105.0" y="612" type="line"/>
      <point x="108.0" y="800" type="line"/>
      <point x="78.0" y="800" type="line"/>
      <point x="81.0" y="612" type="line"/>
    </contour>
    <contour>
      <point x="334.0" y="612" type="line"/>
      <point x="337.0" y="800" type="line"/>
      <point x="307.0" y="800" type="line"/>
      <point x="310.0" y="612" type="line"/>
    </contour>
  </outline>
</glyph>
<glyph name="numbersign" format="1">
  <advance width="855.225"/>
  <unicode hex="0023"/>
  <outline>
    <contour>
      <point x="46.825" y="247" type="curve"/>
      <point x="700.825" y="247" type="curve"/>
      <point x="707.825" y="269" type="curve"/>
      <point x="54.825" y="269" type="curve"/>
    </contour>
    <contour>
      <point x="144.825" y="492" type="curve"/>
      <point x="799.825" y="492" type="curve"/>
      <point x="806.825" y="513" type="curve"/>
      <point x="152.825" y="513" type="curve"/>
    </contour>
    <contour>
      <point x="499.825" y="39" type="curve"/>
      <point x="791.825" y="722" type="curve"/>
      <point x="767.825" y="722" type="curve"/>
      <point x="474.825" y="39" type="curve"/>
    </contour>
    <contour>
      <point x="121.825" y="46" type="curve"/>
      <point x="408.825" y="722" type="curve"/>
      <point x="384.825" y="722" type="curve"/>
      <point x="98.825" y="46" type="curve"/>
    </contour>
  </outline>
</glyph>
<glyph name="dollar" format="1">
  <advance width="679.0"/>
  <unicode hex="0024"/>
  <outline>
    <contour>
      <point x="329.0" y="-43"/>
      <point x="304.0" y="-43"/>
      <point x="329.0" y="-43" type="curve"/>
      <point x="329.0" y="-9"/>
      <point x="329.0" y="25"/>
      <point x="329.0" y="59" type="curve"/>
      <point x="304.0" y="59"/>
      <point x="329.0" y="59"/>
      <point x="304.0" y="59" type="curve"/>
      <point x="304.0" y="25"/>
      <point x="304.0" y="-9"/>
      <point x="304.0" y="-43" type="curve"/>
    </contour>
    <contour>
      <point x="345.0" y="671"/>
      <point x="321.0" y="671"/>
      <point x="345.0" y="671" type="curve"/>
      <point x="345.0" y="705"/>
      <point x="345.0" y="739"/>
      <point x="345.0" y="773" type="curve"/>
      <point x="321.0" y="773"/>
      <point x="345.0" y="773"/>
      <point x="321.0" y="773" type="curve"/>
      <point x="321.0" y="739"/>
      <point x="321.0" y="705"/>
      <point x="321.0" y="671" type="curve"/>
    </contour>
    <contour>
      <point x="55.0" y="99"/>
      <point x="68.0" y="118"/>
      <point x="55.0" y="99" type="curve"/>
      <point x="129.0" y="71"/>
      <point x="217.0" y="48"/>
      <point x="315.0" y="48" type="curve"/>
      <point x="476.0" y="48"/>
      <point x="619.0" y="73"/>
      <point x="619.0" y="198" type="curve"/>
      <point x="619.0" y="320"/>
      <point x="478.0" y="342"/>
      <point x="343.0" y="385" type="curve"/>
      <point x="223.0" y="423"/>
      <point x="114.0" y="443"/>
      <point x="114.0" y="543" type="curve"/>
      <point x="114.0" y="635"/>
      <point x="218.0" y="662"/>
      <point x="339.0" y="662" type="curve"/>
      <point x="434.0" y="662"/>
      <point x="501.0" y="647"/>
      <point x="586.0" y="613" type="curve"/>
      <point x="599.0" y="631"/>
      <point x="586.0" y="613"/>
      <point x="599.0" y="631" type="curve"/>
      <point x="510.0" y="666"/>
      <point x="439.0" y="683"/>
      <point x="341.0" y="683" type="curve"/>
      <point x="203.0" y="683"/>
      <point x="90.0" y="651"/>
      <point x="90.0" y="543" type="curve"/>
      <point x="90.0" y="429"/>
      <point x="203.0" y="405"/>
      <point x="329.0" y="365" type="curve"/>
      <point x="457.0" y="326"/>
      <point x="595.0" y="304"/>
      <point x="595.0" y="197" type="curve"/>
      <point x="595.0" y="93"/>
      <point x="465.0" y="69"/>
      <point x="318.0" y="69" type="curve"/>
      <point x="223.0" y="69"/>
      <point x="139.0" y="93"/>
      <point x="68.0" y="118" type="curve"/>
    </contour>
  </outline>
</glyph>
<glyph name="ampersand" format="1">
  <advance width="844.7"/>
  <unicode hex="0026"/>
  <outline>
    <contour>
      <point x="832.7" y="11" type="line"/>
      <point x="678.7" y="126"/>
      <point x="536.7" y="233"/>
      <point x="382.7" y="349" type="curve"/>
      <point x="296.7" y="419"/>
      <point x="188.7" y="464"/>
      <point x="188.7" y="577" type="curve"/>
      <point x="188.7" y="660"/>
      <point x="258.7" y="705"/>
      <point x="349.7" y="705" type="curve"/>
      <point x="447.7" y="705"/>
      <point x="528.7" y="667"/>
      <point x="528.7" y="579" type="curve"/>
      <point x="528.7" y="466"/>
      <point x="421.7" y="432"/>
      <point x="312.7" y="387" type="curve"/>
      <point x="192.7" y="335"/>
      <point x="72.7" y="302"/>
      <point x="72.7" y="177" type="curve"/>
      <point x="72.7" y="47"/>
      <point x="195.7" y="-5"/>
      <point x="342.7" y="-5" type="curve"/>
      <point x="557.7" y="-5"/>
      <point x="702.7" y="117"/>
      <point x="785.7" y="318" type="curve"/>
      <point x="765.7" y="323"/>
      <point x="785.7" y="318"/>
      <point x="765.7" y="323" type="curve"/>
      <point x="685.7" y="132"/>
      <point x="547.7" y="16"/>
      <point x="343.7" y="16" type="curve"/>
      <point x="209.7" y="16"/>
      <point x="95.7" y="59"/>
      <point x="95.7" y="177" type="curve"/>
      <point x="95.7" y="294"/>
      <point x="209.7" y="322"/>
      <point x="321.7" y="370" type="curve"/>
      <point x="437.7" y="420"/>
      <point x="550.7" y="457"/>
      <point x="551.7" y="579" type="curve"/>
      <point x="551.7" y="680"/>
      <point x="461.7" y="726"/>
      <point x="350.7" y="726" type="curve"/>
      <point x="245.7" y="726"/>
      <point x="165.7" y="674"/>
      <point x="165.7" y="577" type="curve"/>
      <point x="165.7" y="459"/>
      <point x="274.7" y="408"/>
      <point x="366.7" y="336" type="curve"/>
      <point x="515.7" y="224"/>
      <point x="671.7" y="107"/>
      <point x="820.7" y="-5" type="curve"/>
    </contour>
  </outline>
</glyph>
<glyph name="parenleft" format="1">
  <advance width="410.0"/>
  <unicode hex="0028"/>
  <outline>
    <contour>
      <point x="407.0" y="-235"/>
      <point x="393.0" y="-251"/>
      <point x="407.0" y="-235" type="curve"/>
      <point x="202.0" y="-86"/>
      <point x="88.0" y="73"/>
      <point x="88.0" y="326" type="curve"/>
      <point x="88.0" y="578"/>
      <point x="203.0" y="735"/>
      <point x="405.0" y="888" type="curve"/>
      <point x="391.0" y="903"/>
      <point x="405.0" y="888"/>
      <point x="391.0" y="903" type="curve"/>
      <point x="180.0" y="749"/>
      <point x="63.0" y="586"/>
      <point x="63.0" y="326" type="curve"/>
      <point x="63.0" y="66"/>
      <point x="181.0" y="-96"/>
      <point x="393.0" y="-251" type="curve"/>
    </contour>
  </outline>
</glyph>
<glyph name="parenright" format="1">
  <advance width="425.0"/>
  <unicode hex="0029"/>
  <outline>
    <contour>
      <point x="16.0" y="-267"/>
      <point x="1.0" y="-252"/>
      <point x="16.0" y="-267" type="curve"/>
      <point x="232.0" y="-104"/>
      <point x="363.0" y="57"/>
      <point x="363.0" y="327" type="curve"/>
      <point x="363.0" y="591"/>
      <point x="239.0" y="751"/>
      <point x="21.0" y="903" type="curve"/>
      <point x="7.0" y="887"/>
      <point x="21.0" y="903"/>
      <point x="7.0" y="887" type="curve"/>
      <point x="216.0" y="736"/>
      <point x="337.0" y="582"/>
      <point x="337.0" y="326" type="curve"/>
      <point x="337.0" y="65"/>
      <point x="206.0" y="-89"/>
      <point x="1.0" y="-252" type="curve"/>
    </contour>
  </outline>
</glyph>
<glyph name="asterisk" format="1">
  <advance width="679.2"/>
  <unicode hex="002A"/>
  <outline>
    <contour>
      <point x="345.5" y="606" type="line"/>
      <point x="348.5" y="794" type="line"/>
      <point x="318.5" y="794" type="line"/>
      <point x="321.5" y="606" type="line"/>
    </contour>
    <contour>
      <point x="417.5" y="549" type="line"/>
      <point x="597.5" y="604" type="line"/>
      <point x="588.5" y="633" type="line"/>
      <point x="410.5" y="572" type="line"/>
    </contour>
    <contour>
      <point x="386.5" y="463" type="line"/>
      <point x="494.5" y="309" type="line"/>
      <point x="518.5" y="327" type="line"/>
      <point x="405.5" y="477" type="line"/>
    </contour>
    <contour>
      <point x="293.5" y="467" type="line"/>
      <point x="180.5" y="316" type="line"/>
      <point x="205.5" y="299" type="line"/>
      <point x="313.5" y="452" type="line"/>
    </contour>
    <contour>
      <point x="268.5" y="555" type="line"/>
      <point x="91.5" y="616" type="line"/>
      <point x="81.5" y="587" type="line"/>
      <point x="261.5" y="532" type="line"/>
    </contour>
  </outline>
</glyph>
<glyph name="plus" format="1">
  <advance width="721.0"/>
  <unicode hex="002B"/>
  <outline>
    <contour>
      <point x="48.0" y="297"/>
      <point x="48.0" y="321"/>
      <point x="48.0" y="297" type="curve"/>
      <point x="48.0" y="297"/>
      <point x="673.0" y="297"/>
      <point x="673.0" y="297" type="curve"/>
      <point x="673.0" y="321"/>
      <point x="673.0" y="297"/>
      <point x="673.0" y="321" type="curve"/>
      <point x="673.0" y="321"/>
      <point x="48.0" y="321"/>
      <point x="48.0" y="321" type="curve"/>
    </contour>
    <contour>
      <point x="367.0" y="18"/>
      <point x="343.0" y="18"/>
      <point x="367.0" y="18" type="curve"/>
      <point x="367.0" y="18"/>
      <point x="367.0" y="588"/>
      <point x="367.0" y="588" type="curve"/>
      <point x="343.0" y="588"/>
      <point x="367.0" y="588"/>
      <point x="343.0" y="588" type="curve"/>
      <point x="343.0" y="588"/>
      <point x="343.0" y="18"/>
      <point x="343.0" y="18" type="curve"/>
    </contour>
  </outline>
</glyph>
<glyph name="comma" format="1">
  <advance width="132"/>
  <unicode hex="002C"/>
  <outline>
    <contour>
      <point x="32" y="-122" type="line"/>
      <point x="64" y="-96"/>
      <point x="93" y="-61"/>
      <point x="93" y="-6" type="curve"/>
      <point x="93" y="15"/>
      <point x="89" y="33"/>
      <point x="70" y="33" type="curve"/>
      <point x="57" y="33"/>
      <point x="50" y="27"/>
      <point x="50" y="15" type="curve"/>
      <point x="50" y="5"/>
      <point x="54" y="-1"/>
      <point x="65" y="-6" type="curve"/>
      <point x="65" y="-32"/>
      <point x="52" y="-75"/>
      <point x="17" y="-103" type="curve"/>
    </contour>
    <contour>
      <point x="59" y="119" type="move" name="_bottom"/>
    </contour>
  </outline>
</glyph>
<glyph name="hyphen" format="1">
  <advance width="573.15"/>
  <unicode hex="002D"/>
  <outline>
    <contour>
      <point x="89.85" y="260"/>
      <point x="89.85" y="284"/>
      <point x="89.85" y="260" type="curve"/>
      <point x="220.85" y="260"/>
      <point x="351.85" y="260"/>
      <point x="482.85" y="260" type="curve"/>
      <point x="482.85" y="284"/>
      <point x="482.85" y="260"/>
      <point x="482.85" y="284" type="curve"/>
      <point x="351.85" y="284"/>
      <point x="220.85" y="284"/>
      <point x="89.85" y="284" type="curve"/>
    </contour>
  </outline>
</glyph>
<glyph name="period" format="1">
  <advance width="187.0"/>
  <unicode hex="002E"/>
  <outline>
    <contour>
      <point x="89.0" y="12"/>
      <point x="99.0" y="12"/>
      <point x="113.0" y="12" type="curve"/>
      <point x="113.0" y="23"/>
      <point x="105.0" y="30"/>
      <point x="93.0" y="30" type="curve"/>
      <point x="82.0" y="30"/>
      <point x="75.0" y="23"/>
      <point x="75.0" y="12" type="curve"/>
      <point x="89.0" y="12"/>
      <point x="99.0" y="12"/>
      <point x="113.0" y="12" type="curve"/>
      <point x="113.0" y="1"/>
      <point x="105.0" y="-6"/>
      <point x="93.0" y="-6" type="curve"/>
      <point x="82.0" y="-6"/>
      <point x="75.0" y="1"/>
      <point x="75.0" y="12" type="curve"/>
    </contour>
  </outline>
</glyph>
<glyph name="slash" format="1">
  <advance width="658.7"/>
  <unicode hex="002F"/>
  <outline>
    <contour>
      <point x="54.15" y="-67"/>
      <point x="30.15" y="-67"/>
      <point x="54.15" y="-67" type="curve"/>
      <point x="246.15" y="236"/>
      <point x="438.15" y="540"/>
      <point x="629.15" y="843" type="curve"/>
      <point x="605.15" y="843"/>
      <point x="629.15" y="843"/>
      <point x="605.15" y="843" type="curve"/>
      <point x="414.15" y="540"/>
      <point x="222.15" y="236"/>
      <point x="30.15" y="-67" type="curve"/>
    </contour>
  </outline>
</glyph>
<glyph name="zero" format="1">
  <advance width="898.0"/>
  <unicode hex="0030"/>
  <outline>
    <contour>
      <point x="98.0" y="360"/>
      <point x="77.0" y="360"/>
      <point x="100.0" y="360" type="curve"/>
      <point x="100.0" y="576"/>
      <point x="233.0" y="703"/>
      <point x="451.0" y="703" type="curve"/>
      <point x="667.0" y="703"/>
      <point x="799.0" y="575"/>
      <point x="799.0" y="362" type="curve"/>
      <point x="799.0" y="148"/>
      <point x="668.0" y="20"/>
      <point x="454.0" y="20" type="curve"/>
      <point x="235.0" y="20"/>
      <point x="100.0" y="145"/>
      <point x="100.0" y="360" type="curve"/>
      <point x="77.0" y="360"/>
      <point x="98.0" y="360"/>
      <point x="75.0" y="360" type="curve"/>
      <point x="75.0" y="130"/>
      <point x="220.0" y="-5"/>
      <point x="453.0" y="-5" type="curve"/>
      <point x="683.0" y="-5"/>
      <point x="823.0" y="133"/>
      <point x="823.0" y="363" type="curve"/>
      <point x="823.0" y="592"/>
      <point x="682.0" y="727"/>
      <point x="452.0" y="727" type="curve"/>
      <point x="219.0" y="727"/>
      <point x="75.0" y="591"/>
      <point x="75.0" y="360" type="curve"/>
    </contour>
  </outline>
</glyph>
<glyph name="one" format="1">
  <advance width="425.0"/>
  <unicode hex="0031"/>
  <outline>
    <contour>
      <point x="42.0" y="531"/>
      <point x="28.0" y="550"/>
      <point x="42.0" y="531" type="curve"/>
      <point x="319.0" y="705"/>
      <point x="42.0" y="531"/>
      <point x="319.0" y="705" type="curve"/>
      <point x="299.0" y="722"/>
      <point x="319.0" y="705"/>
      <point x="299.0" y="722" type="curve"/>
      <point x="28.0" y="550"/>
      <point x="299.0" y="722"/>
      <point x="28.0" y="550" type="curve"/>
    </contour>
    <contour>
      <point x="323.0" y="0"/>
      <point x="299.0" y="0"/>
      <point x="323.0" y="0" type="curve"/>
      <point x="323.0" y="241"/>
      <point x="323.0" y="481"/>
      <point x="323.0" y="722" type="curve"/>
      <point x="299.0" y="722"/>
      <point x="323.0" y="722"/>
      <point x="299.0" y="722" type="curve"/>
      <point x="299.0" y="481"/>
      <point x="299.0" y="241"/>
      <point x="299.0" y="0" type="curve"/>
    </contour>
  </outline>
</glyph>
<glyph name="two" format="1">
  <advance width="711.0"/>
  <unicode hex="0032"/>
  <outline>
    <contour>
      <point x="46.0" y="0"/>
      <point x="46.0" y="22"/>
      <point x="46.0" y="0" type="curve"/>
      <point x="253.0" y="0"/>
      <point x="441.0" y="0"/>
      <point x="649.0" y="0" type="curve"/>
      <point x="649.0" y="22"/>
      <point x="649.0" y="0"/>
      <point x="649.0" y="22" type="curve"/>
      <point x="437.0" y="22"/>
      <point x="257.0" y="22"/>
      <point x="46.0" y="22" type="curve"/>
    </contour>
    <contour>
      <point x="95.0" y="563"/>
      <point x="76.0" y="576"/>
      <point x="95.0" y="563" type="curve"/>
      <point x="162.0" y="656"/>
      <point x="239.0" y="702"/>
      <point x="353.0" y="702" type="curve"/>
      <point x="484.0" y="702"/>
      <point x="581.0" y="651"/>
      <point x="581.0" y="526" type="curve"/>
      <point x="581.0" y="390"/>
      <point x="479.0" y="319"/>
      <point x="354.0" y="237" type="curve"/>
      <point x="251.0" y="165"/>
      <point x="148.0" y="93"/>
      <point x="46.0" y="22" type="curve"/>
      <point x="57.0" y="0"/>
      <point x="46.0" y="22"/>
      <point x="57.0" y="0" type="curve"/>
      <point x="161.0" y="73"/>
      <point x="265.0" y="147"/>
      <point x="369.0" y="220" type="curve"/>
      <point x="500.0" y="305"/>
      <point x="605.0" y="373"/>
      <point x="605.0" y="527" type="curve"/>
      <point x="605.0" y="665"/>
      <point x="501.0" y="727"/>
      <point x="355.0" y="727" type="curve"/>
      <point x="232.0" y="727"/>
      <point x="141.0" y="675"/>
      <point x="76.0" y="576" type="curve"/>
    </contour>
  </outline>
</glyph>
<glyph name="three" format="1">
  <advance width="675.0"/>
  <unicode hex="0033"/>
  <outline>
    <contour>
      <point x="60.0" y="56"/>
      <point x="72.0" y="77"/>
      <point x="60.0" y="56" type="curve"/>
      <point x="145.0" y="15"/>
      <point x="213.0" y="-5"/>
      <point x="308.0" y="-5" type="curve"/>
      <point x="476.0" y="-5"/>
      <point x="603.0" y="39"/>
      <point x="603.0" y="195" type="curve"/>
      <point x="603.0" y="340"/>
      <point x="424.0" y="389"/>
      <point x="183.0" y="389" type="curve"/>
      <point x="183.0" y="370"/>
      <point x="183.0" y="389"/>
      <point x="183.0" y="370" type="curve"/>
      <point x="378.0" y="370"/>
      <point x="580.0" y="330"/>
      <point x="580.0" y="194" type="curve"/>
      <point x="580.0" y="52"/>
      <point x="445.0" y="22"/>
      <point x="309.0" y="22" type="curve"/>
      <point x="220.0" y="22"/>
      <point x="161.0" y="39"/>
      <point x="72.0" y="77" type="curve"/>
    </contour>
    <contour>
      <point x="85.0" y="625"/>
      <point x="69.0" y="642"/>
      <point x="85.0" y="625" type="curve"/>
      <point x="139.0" y="671"/>
      <point x="215.0" y="700"/>
      <point x="302.0" y="700" type="curve"/>
      <point x="433.0" y="700"/>
      <point x="535.0" y="669"/>
      <point x="535.0" y="557" type="curve"/>
      <point x="535.0" y="440"/>
      <point x="362.0" y="394"/>
      <point x="183.0" y="394" type="curve"/>
      <point x="183.0" y="375"/>
      <point x="183.0" y="394"/>
      <point x="183.0" y="375" type="curve"/>
      <point x="387.0" y="375"/>
      <point x="558.0" y="420"/>
      <point x="558.0" y="558" type="curve"/>
      <point x="558.0" y="684"/>
      <point x="448.0" y="727"/>
      <point x="304.0" y="727" type="curve"/>
      <point x="209.0" y="727"/>
      <point x="124.0" y="689"/>
      <point x="69.0" y="642" type="curve"/>
    </contour>
  </outline>
</glyph>
<glyph name="four" format="1">
  <advance width="796.0"/>
  <unicode hex="0034"/>
  <outline>
    <contour>
      <point x="44.0" y="266" type="line"/>
      <point x="491.0" y="705" type="line"/>
      <point x="475.0" y="722" type="line"/>
      <point x="29.0" y="288" type="line"/>
    </contour>
    <contour>
      <point x="753.0" y="288" type="line"/>
      <point x="29.0" y="288" type="line"/>
      <point x="29.0" y="264" type="line"/>
      <point x="753.0" y="264" type="line"/>
    </contour>
    <contour>
      <point x="499.0" y="1" type="line"/>
      <point x="499.0" y="722" type="line"/>
      <point x="475.0" y="722" type="line"/>
      <point x="475.0" y="1" type="line"/>
    </contour>
  </outline>
</glyph>
<glyph name="five" format="1">
  <advance width="653.35"/>
  <unicode hex="0035"/>
  <outline>
    <contour>
      <point x="124.0" y="722"/>
      <point x="147.0" y="700"/>
      <point x="124.0" y="722" type="curve"/>
      <point x="124.0" y="619"/>
      <point x="124.0" y="504"/>
      <point x="124.0" y="400" type="curve"/>
      <point x="147.0" y="396"/>
      <point x="124.0" y="400"/>
      <point x="147.0" y="396" type="curve"/>
      <point x="147.0" y="498"/>
      <point x="147.0" y="599"/>
      <point x="147.0" y="700" type="curve"/>
    </contour>
    <contour>
      <point x="147.0" y="396"/>
      <point x="124.0" y="412"/>
      <point x="147.0" y="396" type="curve"/>
      <point x="182.0" y="410"/>
      <point x="256.0" y="422"/>
      <point x="308.0" y="422" type="curve"/>
      <point x="451.0" y="422"/>
      <point x="563.0" y="355"/>
      <point x="563.0" y="224" type="curve"/>
      <point x="563.0" y="92"/>
      <point x="440.0" y="22"/>
      <point x="293.0" y="22" type="curve"/>
      <point x="211.0" y="22"/>
      <point x="145.0" y="38"/>
      <point x="69.0" y="68" type="curve"/>
      <point x="58.0" y="44"/>
      <point x="69.0" y="68"/>
      <point x="58.0" y="44" type="curve"/>
      <point x="133.0" y="12"/>
      <point x="206.0" y="-5"/>
      <point x="292.0" y="-5" type="curve"/>
      <point x="454.0" y="-5"/>
      <point x="588.0" y="75"/>
      <point x="588.0" y="224" type="curve"/>
      <point x="588.0" y="368"/>
      <point x="466.0" y="446"/>
      <point x="309.0" y="446" type="curve"/>
      <point x="247.0" y="446"/>
      <point x="167.0" y="431"/>
      <point x="124.0" y="412" type="curve"/>
    </contour>
    <contour>
      <point x="565.0" y="722"/>
      <point x="565.0" y="700"/>
      <point x="565.0" y="722" type="curve"/>
      <point x="413.0" y="722"/>
      <point x="276.0" y="722"/>
      <point x="124.0" y="722" type="curve"/>
      <point x="147.0" y="700"/>
      <point x="124.0" y="722"/>
      <point x="147.0" y="700" type="curve"/>
      <point x="291.0" y="700"/>
      <point x="421.0" y="700"/>
      <point x="565.0" y="700" type="curve"/>
    </contour>
  </outline>
</glyph>
<glyph name="six" format="1">
  <advance width="726.0"/>
  <unicode hex="0036"/>
  <outline>
    <contour>
      <point x="93.0" y="230"/>
      <point x="76.0" y="241"/>
      <point x="93.0" y="230" type="curve"/>
      <point x="156.0" y="343"/>
      <point x="256.0" y="385"/>
      <point x="376.0" y="385" type="curve"/>
      <point x="519.0" y="385"/>
      <point x="624.0" y="332"/>
      <point x="624.0" y="202" type="curve"/>
      <point x="624.0" y="76"/>
      <point x="520.0" y="21"/>
      <point x="382.0" y="21" type="curve"/>
      <point x="217.0" y="21"/>
      <point x="97.0" y="91"/>
      <point x="97.0" y="242" type="curve"/>
      <point x="97.0" y="543"/>
      <point x="354.0" y="645"/>
      <point x="665.0" y="717" type="curve"/>
      <point x="660.0" y="737"/>
      <point x="665.0" y="717"/>
      <point x="660.0" y="737" type="curve"/>
      <point x="331.0" y="665"/>
      <point x="72.0" y="554"/>
      <point x="72.0" y="241" type="curve"/>
      <point x="72.0" y="75"/>
      <point x="203.0" y="-5"/>
      <point x="381.0" y="-5" type="curve"/>
      <point x="537.0" y="-5"/>
      <point x="650.0" y="61"/>
      <point x="650.0" y="203" type="curve"/>
      <point x="650.0" y="347"/>
      <point x="534.0" y="409"/>
      <point x="378.0" y="409" type="curve"/>
      <point x="239.0" y="409"/>
      <point x="134.0" y="357"/>
      <point x="76.0" y="241" type="curve"/>
    </contour>
  </outline>
</glyph>
<glyph name="seven" format="1">
  <advance width="690.0"/>
  <unicode hex="0037"/>
  <outline>
    <contour>
      <point x="37.0" y="700" type="curve"/>
      <point x="675.0" y="700" type="curve"/>
      <point x="675.0" y="722" type="curve"/>
      <point x="37.0" y="722" type="curve"/>
    </contour>
    <contour>
      <point x="662.0" y="722" type="curve"/>
      <point x="91.0" y="0" type="curve"/>
      <point x="122.0" y="0" type="curve"/>
      <point x="675.0" y="700" type="curve"/>
    </contour>
  </outline>
</glyph>
<glyph name="eight" format="1">
  <advance width="694.0"/>
  <unicode hex="0038"/>
  <outline>
    <contour>
      <point x="101.0" y="562"/>
      <point x="125.0" y="562"/>
      <point x="101.0" y="562" type="curve"/>
      <point x="101.0" y="434"/>
      <point x="214.0" y="415"/>
      <point x="340.0" y="369" type="curve"/>
      <point x="473.0" y="320"/>
      <point x="594.0" y="297"/>
      <point x="594.0" y="170" type="curve"/>
      <point x="594.0" y="47"/>
      <point x="485.0" y="19"/>
      <point x="344.0" y="19" type="curve"/>
      <point x="204.0" y="19"/>
      <point x="99.0" y="49"/>
      <point x="99.0" y="170" type="curve"/>
      <point x="99.0" y="301"/>
      <point x="222.0" y="319"/>
      <point x="357.0" y="369" type="curve"/>
      <point x="479.0" y="417"/>
      <point x="592.0" y="434"/>
      <point x="592.0" y="560" type="curve"/>
      <point x="592.0" y="688"/>
      <point x="489.0" y="727"/>
      <point x="344.0" y="727" type="curve"/>
      <point x="205.0" y="727"/>
      <point x="101.0" y="685"/>
      <point x="101.0" y="562" type="curve"/>
      <point x="125.0" y="562"/>
      <point x="101.0" y="562"/>
      <point x="125.0" y="562" type="curve"/>
      <point x="125.0" y="670"/>
      <point x="220.0" y="703"/>
      <point x="343.0" y="703" type="curve"/>
      <point x="473.0" y="703"/>
      <point x="568.0" y="674"/>
      <point x="568.0" y="560" type="curve"/>
      <point x="568.0" y="446"/>
      <point x="458.0" y="429"/>
      <point x="340.0" y="387" type="curve"/>
      <point x="200.0" y="334"/>
      <point x="75.0" y="313"/>
      <point x="75.0" y="170" type="curve"/>
      <point x="75.0" y="36"/>
      <point x="189.0" y="-5"/>
      <point x="343.0" y="-5" type="curve"/>
      <point x="499.0" y="-5"/>
      <point x="618.0" y="32"/>
      <point x="618.0" y="170" type="curve"/>
      <point x="618.0" y="310"/>
      <point x="494.0" y="335"/>
      <point x="357.0" y="387" type="curve"/>
      <point x="237.0" y="432"/>
      <point x="125.0" y="445"/>
      <point x="125.0" y="562" type="curve"/>
    </contour>
  </outline>
</glyph>
<glyph name="nine" format="1">
  <advance width="726.875"/>
  <unicode hex="0039"/>
  <outline>
    <contour>
      <point x="637.0" y="492"/>
      <point x="650.0" y="485"/>
      <point x="637.0" y="492" type="curve"/>
      <point x="573.0" y="379"/>
      <point x="484.0" y="336"/>
      <point x="354.0" y="336" type="curve"/>
      <point x="211.0" y="336"/>
      <point x="104.0" y="390"/>
      <point x="104.0" y="520" type="curve"/>
      <point x="104.0" y="646"/>
      <point x="209.0" y="702"/>
      <point x="347.0" y="702" type="curve"/>
      <point x="512.0" y="702"/>
      <point x="632.0" y="631"/>
      <point x="632.0" y="480" type="curve"/>
      <point x="632.0" y="179"/>
      <point x="381.0" y="49"/>
      <point x="64.0" y="8" type="curve"/>
      <point x="68.0" y="-15"/>
      <point x="64.0" y="8"/>
      <point x="68.0" y="-15" type="curve"/>
      <point x="400.0" y="24"/>
      <point x="655.0" y="168"/>
      <point x="655.0" y="481" type="curve"/>
      <point x="655.0" y="647"/>
      <point x="527.0" y="727"/>
      <point x="348.0" y="727" type="curve"/>
      <point x="193.0" y="727"/>
      <point x="80.0" y="661"/>
      <point x="80.0" y="519" type="curve"/>
      <point x="80.0" y="375"/>
      <point x="195.0" y="313"/>
      <point x="352.0" y="313" type="curve"/>
      <point x="491.0" y="313"/>
      <point x="599.0" y="364"/>
      <point x="650.0" y="485" type="curve"/>
    </contour>
  </outline>
</glyph>
<glyph name="colon" format="1">
  <advance width="209.0"/>
  <unicode hex="003A"/>
  <outline>
    <contour>
      <point x="95.0" y="429"/>
      <point x="105.0" y="429"/>
      <point x="119.0" y="429" type="curve"/>
      <point x="119.0" y="440"/>
      <point x="111.0" y="447"/>
      <point x="99.0" y="447" type="curve"/>
      <point x="88.0" y="447"/>
      <point x="81.0" y="440"/>
      <point x="81.0" y="429" type="curve"/>
      <point x="95.0" y="429"/>
      <point x="105.0" y="429"/>
      <point x="119.0" y="429" type="curve"/>
      <point x="119.0" y="418"/>
      <point x="111.0" y="411"/>
      <point x="99.0" y="411" type="curve"/>
      <point x="88.0" y="411"/>
      <point x="81.0" y="418"/>
      <point x="81.0" y="429" type="curve"/>
    </contour>
    <contour>
      <point x="95.0" y="12"/>
      <point x="105.0" y="12"/>
      <point x="119.0" y="12" type="curve"/>
      <point x="119.0" y="23"/>
      <point x="111.0" y="30"/>
      <point x="99.0" y="30" type="curve"/>
      <point x="88.0" y="30"/>
      <point x="81.0" y="23"/>
      <point x="81.0" y="12" type="curve"/>
      <point x="95.0" y="12"/>
      <point x="105.0" y="12"/>
      <point x="119.0" y="12" type="curve"/>
      <point x="119.0" y="1"/>
      <point x="111.0" y="-6"/>
      <point x="99.0" y="-6" type="curve"/>
      <point x="88.0" y="-6"/>
      <point x="81.0" y="1"/>
      <point x="81.0" y="12" type="curve"/>
    </contour>
  </outline>
</glyph>
<glyph name="semicolon" format="1">
  <advance width="184.0"/>
  <unicode hex="003B"/>
  <outline>
    <contour>
      <point x="51" y="-71" type="line"/>
      <point x="83" y="-45"/>
      <point x="112" y="-10"/>
      <point x="112" y="45" type="curve"/>
      <point x="112" y="66"/>
      <point x="108" y="84"/>
      <point x="89" y="84" type="curve"/>
      <point x="76" y="84"/>
      <point x="69" y="78"/>
      <point x="69" y="66" type="curve"/>
      <point x="69" y="56"/>
      <point x="73" y="50"/>
      <point x="84" y="45" type="curve"/>
      <point x="84" y="19"/>
      <point x="71" y="-24"/>
      <point x="36" y="-52" type="curve"/>
    </contour>
    <contour>
      <point x="87" y="428"/>
      <point x="97" y="428"/>
      <point x="111" y="428" type="curve"/>
      <point x="111" y="439"/>
      <point x="103" y="446"/>
      <point x="91" y="446" type="curve"/>
      <point x="80" y="446"/>
      <point x="73" y="439"/>
      <point x="73" y="428" type="curve"/>
      <point x="87" y="428"/>
      <point x="97" y="428"/>
      <point x="111" y="428" type="curve"/>
      <point x="111" y="417"/>
      <point x="103" y="410"/>
      <point x="91" y="410" type="curve"/>
      <point x="80" y="410"/>
      <point x="73" y="417"/>
      <point x="73" y="428" type="curve"/>
    </contour>
  </outline>
</glyph>
<glyph name="less" format="1">
  <advance width="935.35"/>
  <unicode hex="003C"/>
  <outline>
    <contour>
      <point x="863.3" y="582"/>
      <point x="863.3" y="558"/>
      <point x="863.3" y="582" type="curve"/>
      <point x="589.3" y="492"/>
      <point x="315.3" y="402"/>
      <point x="41.3" y="312" type="curve"/>
      <point x="41.3" y="288"/>
      <point x="41.3" y="312"/>
      <point x="41.3" y="288" type="curve"/>
      <point x="315.3" y="378"/>
      <point x="589.3" y="468"/>
      <point x="863.3" y="558" type="curve"/>
    </contour>
    <contour>
      <point x="877.3" y="48"/>
      <point x="877.3" y="24"/>
      <point x="877.3" y="48" type="curve"/>
      <point x="598.3" y="136"/>
      <point x="320.3" y="224"/>
      <point x="41.3" y="312" type="curve"/>
      <point x="41.3" y="288"/>
      <point x="41.3" y="312"/>
      <point x="41.3" y="288" type="curve"/>
      <point x="320.3" y="200"/>
      <point x="598.3" y="112"/>
      <point x="877.3" y="24" type="curve"/>
    </contour>
  </outline>
</glyph>
<glyph name="equal" format="1">
  <advance width="957.85"/>
  <unicode hex="003D"/>
  <outline>
    <contour>
      <point x="67.3" y="206"/>
      <point x="67.3" y="229"/>
      <point x="67.3" y="206" type="curve"/>
      <point x="350.3" y="206"/>
      <point x="633.3" y="206"/>
      <point x="916.3" y="206" type="curve"/>
      <point x="916.3" y="229"/>
      <point x="916.3" y="206"/>
      <point x="916.3" y="229" type="curve"/>
      <point x="633.3" y="229"/>
      <point x="350.3" y="229"/>
      <point x="67.3" y="229" type="curve"/>
    </contour>
    <contour>
      <point x="67.3" y="428"/>
      <point x="67.3" y="451"/>
      <point x="67.3" y="428" type="curve"/>
      <point x="350.3" y="428"/>
      <point x="633.3" y="428"/>
      <point x="916.3" y="428" type="curve"/>
      <point x="916.3" y="451"/>
      <point x="916.3" y="428"/>
      <point x="916.3" y="451" type="curve"/>
      <point x="633.3" y="451"/>
      <point x="350.3" y="451"/>
      <point x="67.3" y="451" type="curve"/>
    </contour>
  </outline>
</glyph>
<glyph name="greater" format="1">
  <advance width="934.35"/>
  <unicode hex="003E"/>
  <outline>
    <contour>
      <point x="69.95" y="24"/>
      <point x="69.95" y="48"/>
      <point x="69.95" y="24" type="curve"/>
      <point x="343.95" y="114"/>
      <point x="618.95" y="204"/>
      <point x="892.95" y="294" type="curve"/>
      <point x="892.95" y="318"/>
      <point x="892.95" y="294"/>
      <point x="892.95" y="318" type="curve"/>
      <point x="618.95" y="228"/>
      <point x="343.95" y="138"/>
      <point x="69.95" y="48" type="curve"/>
    </contour>
    <contour>
      <point x="56.95" y="558"/>
      <point x="56.95" y="582"/>
      <point x="56.95" y="558" type="curve"/>
      <point x="334.95" y="470"/>
      <point x="613.95" y="382"/>
      <point x="892.95" y="294" type="curve"/>
      <point x="892.95" y="318"/>
      <point x="892.95" y="294"/>
      <point x="892.95" y="318" type="curve"/>
      <point x="613.95" y="406"/>
      <point x="334.95" y="494"/>
      <point x="56.95" y="582" type="curve"/>
    </contour>
  </outline>
</glyph>
<glyph name="question" format="1">
  <advance width="572.0"/>
  <unicode hex="003F"/>
  <outline>
    <contour>
      <point x="221.0" y="334"/>
      <point x="246.0" y="334"/>
      <point x="221.0" y="334" type="curve"/>
      <point x="221.0" y="297"/>
      <point x="221.0" y="259"/>
      <point x="221.0" y="222" type="curve"/>
      <point x="246.0" y="222"/>
      <point x="221.0" y="222"/>
      <point x="246.0" y="222" type="curve"/>
      <point x="246.0" y="259"/>
      <point x="246.0" y="297"/>
      <point x="246.0" y="334" type="curve"/>
    </contour>
    <contour>
      <point x="73.0" y="630" type="line"/>
      <point x="117.0" y="662"/>
      <point x="181.0" y="688"/>
      <point x="252.0" y="688" type="curve"/>
      <point x="380.0" y="688"/>
      <point x="484.0" y="638"/>
      <point x="484.0" y="519" type="curve"/>
      <point x="484.0" y="388"/>
      <point x="367.0" y="334"/>
      <point x="221.0" y="334" type="curve"/>
      <point x="221.0" y="326"/>
      <point x="221.0" y="319"/>
      <point x="221.0" y="311" type="curve"/>
      <point x="380.0" y="311"/>
      <point x="507.0" y="375"/>
      <point x="507.0" y="519" type="curve"/>
      <point x="507.0" y="651"/>
      <point x="395.0" y="710"/>
      <point x="254.0" y="710" type="curve"/>
      <point x="177.0" y="710"/>
      <point x="109.0" y="684"/>
      <point x="59.0" y="648" type="curve"/>
    </contour>
    <contour>
      <point x="248.0" y="11"/>
      <point x="220.0" y="11"/>
      <point x="248.0" y="11" type="curve"/>
      <point x="248.0" y="20"/>
      <point x="243.0" y="25"/>
      <point x="234.0" y="25" type="curve"/>
      <point x="225.0" y="25"/>
      <point x="220.0" y="19"/>
      <point x="220.0" y="11" type="curve"/>
      <point x="248.0" y="11"/>
      <point x="220.0" y="11"/>
      <point x="248.0" y="11" type="curve"/>
      <point x="248.0" y="2"/>
      <point x="243.0" y="-2"/>
      <point x="234.0" y="-2" type="curve"/>
      <point x="225.0" y="-2"/>
      <point x="220.0" y="3"/>
      <point x="220.0" y="11" type="curve"/>
    </contour>
  </outline>
</glyph>
<glyph name="at" format="1">
  <advance width="1048.0"/>
  <unicode hex="0040"/>
  <outline>
    <contour>
      <point x="756.0" y="-74"/>
      <point x="767.0" y="-94"/>
      <point x="756.0" y="-74" type="curve"/>
      <point x="678.0" y="-107"/>
      <point x="623.0" y="-111"/>
      <point x="539.0" y="-111" type="curve"/>
      <point x="279.0" y="-111"/>
      <point x="92.0" y="-16"/>
      <point x="92.0" y="219" type="curve"/>
      <point x="92.0" y="451"/>
      <point x="281.0" y="545"/>
      <point x="537.0" y="545" type="curve"/>
      <point x="778.0" y="545"/>
      <point x="950.0" y="445"/>
      <point x="950.0" y="224" type="curve"/>
      <point x="950.0" y="136"/>
      <point x="915.0" y="73"/>
      <point x="834.0" y="73" type="curve"/>
      <point x="752.0" y="73"/>
      <point x="713.0" y="136"/>
      <point x="713.0" y="224" type="curve"/>
      <point x="713.0" y="337"/>
      <point x="634.0" y="397"/>
      <point x="517.0" y="397" type="curve"/>
      <point x="392.0" y="397"/>
      <point x="308.0" y="341"/>
      <point x="308.0" y="225" type="curve"/>
      <point x="308.0" y="105"/>
      <point x="389.0" y="41"/>
      <point x="513.0" y="41" type="curve"/>
      <point x="623.0" y="41"/>
      <point x="686.0" y="105"/>
      <point x="708.0" y="214" type="curve"/>
      <point x="693.0" y="219"/>
      <point x="708.0" y="214"/>
      <point x="693.0" y="219" type="curve"/>
      <point x="664.0" y="122"/>
      <point x="614.0" y="63"/>
      <point x="517.0" y="63" type="curve"/>
      <point x="404.0" y="63"/>
      <point x="331.0" y="119"/>
      <point x="331.0" y="226" type="curve"/>
      <point x="331.0" y="328"/>
      <point x="407.0" y="375"/>
      <point x="515.0" y="375" type="curve"/>
      <point x="620.0" y="375"/>
      <point x="691.0" y="324"/>
      <point x="691.0" y="223" type="curve"/>
      <point x="691.0" y="123"/>
      <point x="737.0" y="53"/>
      <point x="832.0" y="53" type="curve"/>
      <point x="928.0" y="53"/>
      <point x="973.0" y="123"/>
      <point x="973.0" y="225" type="curve"/>
      <point x="973.0" y="461"/>
      <point x="793.0" y="568"/>
      <point x="539.0" y="568" type="curve"/>
      <point x="266.0" y="568"/>
      <point x="69.0" y="467"/>
      <point x="69.0" y="218" type="curve"/>
      <point x="69.0" y="-30"/>
      <point x="265.0" y="-133"/>
      <point x="537.0" y="-133" type="curve"/>
      <point x="626.0" y="-133"/>
      <point x="685.0" y="-126"/>
      <point x="767.0" y="-94" type="curve"/>
    </contour>
  </outline>
</glyph>
<glyph name="B" format="1">
  <advance width="762.0"/>
  <unicode hex="0042"/>
  <outline>
    <contour>
      <point x="131.0" y="700"/>
      <point x="131.0" y="722"/>
      <point x="131.0" y="700" type="curve"/>
      <point x="228.0" y="700"/>
      <point x="325.0" y="700"/>
      <point x="422.0" y="700" type="curve"/>
      <point x="527.0" y="700"/>
      <point x="609.0" y="656"/>
      <point x="609.0" y="555" type="curve"/>
      <point x="609.0" y="447"/>
      <point x="485.0" y="421"/>
      <point x="364.0" y="421" type="curve"/>
      <point x="286.0" y="421"/>
      <point x="208.0" y="421"/>
      <point x="131.0" y="421" type="curve"/>
      <point x="131.0" y="399"/>
      <point x="131.0" y="421"/>
      <point x="131.0" y="399" type="curve"/>
      <point x="204.0" y="399"/>
      <point x="278.0" y="399"/>
      <point x="352.0" y="399" type="curve"/>
      <point x="493.0" y="399"/>
      <point x="633.0" y="430"/>
      <point x="633.0" y="555" type="curve"/>
      <point x="633.0" y="669"/>
      <point x="545.0" y="722"/>
      <point x="422.0" y="722" type="curve"/>
      <point x="325.0" y="722"/>
      <point x="228.0" y="722"/>
      <point x="131.0" y="722" type="curve"/>
    </contour>
    <contour>
      <point x="153.0" y="0"/>
      <point x="128.0" y="0"/>
      <point x="153.0" y="0" type="curve"/>
      <point x="153.0" y="241"/>
      <point x="153.0" y="481"/>
      <point x="153.0" y="722" type="curve"/>
      <point x="128.0" y="722"/>
      <point x="153.0" y="722"/>
      <point x="128.0" y="722" type="curve"/>
      <point x="128.0" y="481"/>
      <point x="128.0" y="241"/>
      <point x="128.0" y="0" type="curve"/>
    </contour>
    <contour>
      <point x="131.0" y="399"/>
      <point x="131.0" y="421"/>
      <point x="131.0" y="399" type="curve"/>
      <point x="208.0" y="399"/>
      <point x="286.0" y="399"/>
      <point x="364.0" y="399" type="curve"/>
      <point x="529.0" y="399"/>
      <point x="672.0" y="355"/>
      <point x="672.0" y="204" type="curve"/>
      <point x="672.0" y="73"/>
      <point x="566.0" y="22"/>
      <point x="420.0" y="22" type="curve"/>
      <point x="323.0" y="22"/>
      <point x="227.0" y="22"/>
      <point x="131.0" y="22" type="curve"/>
      <point x="131.0" y="0"/>
      <point x="131.0" y="22"/>
      <point x="131.0" y="0" type="curve"/>
      <point x="227.0" y="0"/>
      <point x="323.0" y="0"/>
      <point x="420.0" y="0" type="curve"/>
      <point x="581.0" y="0"/>
      <point x="696.0" y="59"/>
      <point x="696.0" y="204" type="curve"/>
      <point x="696.0" y="372"/>
      <point x="537.0" y="421"/>
      <point x="352.0" y="421" type="curve"/>
      <point x="278.0" y="421"/>
      <point x="204.0" y="421"/>
      <point x="131.0" y="421" type="curve"/>
    </contour>
  </outline>
</glyph>
<glyph name="D" format="1">
  <advance width="908.0"/>
  <unicode hex="0044"/>
  <outline>
    <contour>
      <point x="128.0" y="722"/>
      <point x="153.0" y="722"/>
      <point x="128.0" y="722" type="curve"/>
      <point x="128.0" y="481"/>
      <point x="128.0" y="241"/>
      <point x="128.0" y="0" type="curve"/>
      <point x="153.0" y="0"/>
      <point x="128.0" y="0"/>
      <point x="153.0" y="0" type="curve"/>
      <point x="153.0" y="241"/>
      <point x="153.0" y="481"/>
      <point x="153.0" y="722" type="curve"/>
    </contour>
    <contour>
      <point x="143.0" y="0"/>
      <point x="143.0" y="22"/>
      <point x="143.0" y="0" type="curve"/>
      <point x="233.0" y="0"/>
      <point x="323.0" y="0"/>
      <point x="413.0" y="0" type="curve"/>
      <point x="673.0" y="0"/>
      <point x="834.0" y="106"/>
      <point x="834.0" y="350" type="curve"/>
      <point x="834.0" y="608"/>
      <point x="668.0" y="722"/>
      <point x="396.0" y="722" type="curve"/>
      <point x="311.0" y="722"/>
      <point x="227.0" y="722"/>
      <point x="143.0" y="722" type="curve"/>
      <point x="143.0" y="700"/>
      <point x="143.0" y="722"/>
      <point x="143.0" y="700" type="curve"/>
      <point x="227.0" y="700"/>
      <point x="311.0" y="700"/>
      <point x="394.0" y="700" type="curve"/>
      <point x="652.0" y="700"/>
      <point x="811.0" y="593"/>
      <point x="811.0" y="350" type="curve"/>
      <point x="811.0" y="121"/>
      <point x="660.0" y="22"/>
      <point x="416.0" y="22" type="curve"/>
      <point x="325.0" y="22"/>
      <point x="234.0" y="22"/>
      <point x="143.0" y="22" type="curve"/>
    </contour>
    <contour>
      <point x="374.0" y="825" type="move" name="top"/>
    </contour>
  </outline>
</glyph>
<glyph name="E" format="1">
  <advance width="748.0"/>
  <unicode hex="0045"/>
  <outline>
    <contour>
      <point x="150.0" y="363"/>
      <point x="150.0" y="385"/>
      <point x="150.0" y="363" type="curve"/>
      <point x="297.0" y="363"/>
      <point x="445.0" y="363"/>
      <point x="593.0" y="363" type="curve"/>
      <point x="593.0" y="385"/>
      <point x="593.0" y="363"/>
      <point x="593.0" y="385" type="curve"/>
      <point x="445.0" y="385"/>
      <point x="297.0" y="385"/>
      <point x="150.0" y="385" type="curve"/>
    </contour>
    <contour>
      <point x="129.0" y="700"/>
      <point x="129.0" y="722"/>
      <point x="129.0" y="700" type="curve"/>
      <point x="312.0" y="700"/>
      <point x="495.0" y="700"/>
      <point x="678.0" y="700" type="curve"/>
      <point x="678.0" y="722"/>
      <point x="678.0" y="700"/>
      <point x="678.0" y="722" type="curve"/>
      <point x="495.0" y="722"/>
      <point x="312.0" y="722"/>
      <point x="129.0" y="722" type="curve"/>
    </contour>
    <contour>
      <point x="152.0" y="0"/>
      <point x="128.0" y="0"/>
      <point x="152.0" y="0" type="curve"/>
      <point x="152.0" y="0"/>
      <point x="152.0" y="722"/>
      <point x="152.0" y="722" type="curve"/>
      <point x="128.0" y="722"/>
      <point x="152.0" y="722"/>
      <point x="128.0" y="722" type="curve"/>
      <point x="128.0" y="481"/>
      <point x="128.0" y="241"/>
      <point x="128.0" y="0" type="curve"/>
    </contour>
    <contour>
      <point x="129.0" y="0"/>
      <point x="129.0" y="22"/>
      <point x="129.0" y="0" type="curve"/>
      <point x="327.0" y="0"/>
      <point x="525.0" y="0"/>
      <point x="723.0" y="0" type="curve"/>
      <point x="723.0" y="22"/>
      <point x="723.0" y="0"/>
      <point x="723.0" y="22" type="curve"/>
      <point x="525.0" y="22"/>
      <point x="327.0" y="22"/>
      <point x="129.0" y="22" type="curve"/>
    </contour>
    <contour>
      <point x="377.0" y="825" type="move" name="top"/>
    </contour>
    <contour>
      <point x="711.0" y="7" type="move" name="bottom"/>
    </contour>
  </outline>
</glyph>
<glyph name="F" format="1">
  <advance width="703.0"/>
  <unicode hex="0046"/>
  <outline>
    <contour>
      <point x="148.0" y="363"/>
      <point x="148.0" y="385"/>
      <point x="148.0" y="363" type="curve"/>
      <point x="293.0" y="363"/>
      <point x="438.0" y="363"/>
      <point x="583.0" y="363" type="curve"/>
      <point x="583.0" y="385"/>
      <point x="583.0" y="363"/>
      <point x="583.0" y="385" type="curve"/>
      <point x="438.0" y="385"/>
      <point x="293.0" y="385"/>
      <point x="148.0" y="385" type="curve"/>
    </contour>
    <contour>
      <point x="155.0" y="0"/>
      <point x="131.0" y="0"/>
      <point x="155.0" y="0" type="curve"/>
      <point x="155.0" y="0"/>
      <point x="155.0" y="722"/>
      <point x="155.0" y="722" type="curve"/>
      <point x="131.0" y="722"/>
      <point x="155.0" y="722"/>
      <point x="131.0" y="722" type="curve"/>
      <point x="131.0" y="481"/>
      <point x="131.0" y="241"/>
      <point x="131.0" y="0" type="curve"/>
    </contour>
    <contour>
      <point x="128.0" y="700"/>
      <point x="128.0" y="722"/>
      <point x="128.0" y="700" type="curve"/>
      <point x="312.0" y="700"/>
      <point x="497.0" y="700"/>
      <point x="682.0" y="700" type="curve"/>
      <point x="682.0" y="722"/>
      <point x="682.0" y="700"/>
      <point x="682.0" y="722" type="curve"/>
      <point x="497.0" y="722"/>
      <point x="312.0" y="722"/>
      <point x="128.0" y="722" type="curve"/>
    </contour>
  </outline>
</glyph>
<glyph name="G" format="1">
  <advance width="982.0"/>
  <unicode hex="0047"/>
  <outline>
    <contour>
      <point x="897.0" y="319"/>
      <point x="897.0" y="297"/>
      <point x="897.0" y="319" type="curve"/>
      <point x="798.0" y="319"/>
      <point x="699.0" y="319"/>
      <point x="600.0" y="319" type="curve"/>
      <point x="600.0" y="297"/>
      <point x="600.0" y="319"/>
      <point x="600.0" y="297" type="curve"/>
      <point x="699.0" y="297"/>
      <point x="798.0" y="297"/>
      <point x="897.0" y="297" type="curve"/>
    </contour>
    <contour>
      <point x="906.0" y="77"/>
      <point x="884.0" y="77"/>
      <point x="906.0" y="77" type="curve"/>
      <point x="906.0" y="158"/>
      <point x="906.0" y="238"/>
      <point x="906.0" y="319" type="curve"/>
      <point x="884.0" y="319"/>
      <point x="906.0" y="319"/>
      <point x="884.0" y="319" type="curve"/>
      <point x="884.0" y="238"/>
      <point x="884.0" y="158"/>
      <point x="884.0" y="77" type="curve"/>
    </contour>
    <contour>
      <point x="883.0" y="642"/>
      <point x="871.0" y="624"/>
      <point x="883.0" y="642" type="curve"/>
      <point x="759.0" y="703"/>
      <point x="650.0" y="727"/>
      <point x="512.0" y="727" type="curve"/>
      <point x="252.0" y="727"/>
      <point x="72.0" y="611"/>
      <point x="72.0" y="365" type="curve"/>
      <point x="72.0" y="112"/>
      <point x="259.0" y="-5"/>
      <point x="527.0" y="-5" type="curve"/>
      <point x="675.0" y="-5"/>
      <point x="771.0" y="19"/>
      <point x="906.0" y="77" type="curve"/>
      <point x="894.0" y="93"/>
      <point x="906.0" y="77"/>
      <point x="894.0" y="93" type="curve"/>
      <point x="765.0" y="38"/>
      <point x="668.0" y="20"/>
      <point x="528.0" y="20" type="curve"/>
      <point x="274.0" y="20"/>
      <point x="96.0" y="129"/>
      <point x="96.0" y="367" type="curve"/>
      <point x="96.0" y="595"/>
      <point x="269.0" y="704"/>
      <point x="513.0" y="704" type="curve"/>
      <point x="646.0" y="704"/>
      <point x="751.0" y="681"/>
      <point x="871.0" y="624" type="curve"/>
    </contour>
    <contour>
      <point x="514.0" y="825" type="move" name="top"/>
    </contour>
    <contour>
      <point x="538.0" y="5" type="move" name="bottom"/>
    </contour>
  </outline>
</glyph>
<glyph name="H" format="1">
  <advance width="962.0"/>
  <unicode hex="0048"/>
  <outline>
    <contour>
      <point x="152.0" y="0"/>
      <point x="128.0" y="0"/>
      <point x="152.0" y="0" type="curve"/>
      <point x="152.0" y="0"/>
      <point x="152.0" y="722"/>
      <point x="152.0" y="722" type="curve"/>
      <point x="128.0" y="722"/>
      <point x="152.0" y="722"/>
      <point x="128.0" y="722" type="curve"/>
      <point x="128.0" y="481"/>
      <point x="128.0" y="241"/>
      <point x="128.0" y="0" type="curve"/>
    </contour>
    <contour>
      <point x="819.0" y="374"/>
      <point x="819.0" y="352"/>
      <point x="819.0" y="374" type="curve"/>
      <point x="593.0" y="374"/>
      <point x="366.0" y="374"/>
      <point x="140.0" y="374" type="curve"/>
      <point x="140.0" y="352"/>
      <point x="140.0" y="374"/>
      <point x="140.0" y="352" type="curve"/>
      <point x="366.0" y="352"/>
      <point x="593.0" y="352"/>
      <point x="819.0" y="352" type="curve"/>
    </contour>
    <contour>
      <point x="834.0" y="1"/>
      <point x="810.0" y="1"/>
      <point x="834.0" y="1" type="curve"/>
      <point x="834.0" y="241"/>
      <point x="834.0" y="481"/>
      <point x="834.0" y="721" type="curve"/>
      <point x="810.0" y="721"/>
      <point x="834.0" y="721"/>
      <point x="810.0" y="721" type="curve"/>
      <point x="810.0" y="721"/>
      <point x="810.0" y="1"/>
      <point x="810.0" y="1" type="curve"/>
    </contour>
  </outline>
</glyph>
<glyph name="I" format="1">
  <advance width="280.0"/>
  <unicode hex="0049"/>
  <outline>
    <contour>
      <point x="152.0" y="0"/>
      <point x="128.0" y="0"/>
      <point x="152.0" y="0" type="curve"/>
      <point x="152.0" y="241"/>
      <point x="152.0" y="481"/>
      <point x="152.0" y="722" type="curve"/>
      <point x="128.0" y="722"/>
      <point x="152.0" y="722"/>
      <point x="128.0" y="722" type="curve"/>
      <point x="128.0" y="481"/>
      <point x="128.0" y="241"/>
      <point x="128.0" y="0" type="curve"/>
    </contour>
    <contour>
      <point x="141.0" y="825" type="move" name="top"/>
    </contour>
    <contour>
      <point x="152.0" y="0" type="move" name="bottom"/>
    </contour>
  </outline>
</glyph>
<glyph name="J" format="1">
  <advance width="538.0"/>
  <unicode hex="004A"/>
  <outline>
    <contour>
      <point x="16.0" y="43"/>
      <point x="27.0" y="60"/>
      <point x="16.0" y="43" type="curve"/>
      <point x="54.0" y="23"/>
      <point x="108.0" y="0"/>
      <point x="173.0" y="0" type="curve"/>
      <point x="323.0" y="0"/>
      <point x="419.0" y="75"/>
      <point x="419.0" y="219" type="curve"/>
      <point x="419.0" y="386"/>
      <point x="419.0" y="554"/>
      <point x="419.0" y="722" type="curve"/>
      <point x="394.0" y="722"/>
      <point x="419.0" y="722"/>
      <point x="394.0" y="722" type="curve"/>
      <point x="394.0" y="554"/>
      <point x="394.0" y="386"/>
      <point x="394.0" y="219" type="curve"/>
      <point x="394.0" y="90"/>
      <point x="307.0" y="22"/>
      <point x="173.0" y="22" type="curve"/>
      <point x="115.0" y="22"/>
      <point x="76.0" y="39"/>
      <point x="27.0" y="60" type="curve"/>
    </contour>
  </outline>
</glyph>
<glyph name="K" format="1">
  <advance width="645.0"/>
  <unicode hex="004B"/>
  <outline>
    <contour>
      <point x="570.0" y="722"/>
      <point x="604.0" y="722"/>
      <point x="567.0" y="722" type="curve"/>
      <point x="140.0" y="380" type="line"/>
      <point x="178.0" y="380"/>
      <point x="143.0" y="380"/>
      <point x="181.0" y="380" type="curve"/>
      <point x="607.0" y="722" type="line"/>
    </contour>
    <contour>
      <point x="153.0" y="0"/>
      <point x="128.0" y="0"/>
      <point x="153.0" y="0" type="curve"/>
      <point x="153.0" y="0"/>
      <point x="153.0" y="722"/>
      <point x="153.0" y="722" type="curve"/>
      <point x="128.0" y="722"/>
      <point x="153.0" y="722"/>
      <point x="128.0" y="722" type="curve"/>
      <point x="128.0" y="481"/>
      <point x="128.0" y="241"/>
      <point x="128.0" y="0" type="curve"/>
    </contour>
    <contour>
      <point x="639.0" y="0"/>
      <point x="601.0" y="0"/>
      <point x="642.0" y="0" type="curve"/>
      <point x="181.0" y="380" type="line"/>
      <point x="143.0" y="380"/>
      <point x="178.0" y="380"/>
      <point x="140.0" y="380" type="curve"/>
      <point x="598.0" y="0" type="line"/>
    </contour>
    <contour>
      <point x="450.0" y="2" type="move" name="bottom"/>
    </contour>
  </outline>
</glyph>
<glyph name="L" format="1">
  <advance width="719.0"/>
  <unicode hex="004C"/>
  <outline>
    <contour>
      <point x="153.0" y="0"/>
      <point x="128.0" y="0"/>
      <point x="153.0" y="0" type="curve"/>
      <point x="153.0" y="241"/>
      <point x="153.0" y="481"/>
      <point x="153.0" y="722" type="curve"/>
      <point x="128.0" y="722"/>
      <point x="153.0" y="722"/>
      <point x="128.0" y="722" type="curve"/>
      <point x="128.0" y="481"/>
      <point x="128.0" y="241"/>
      <point x="128.0" y="0" type="curve"/>
    </contour>
    <contour>
      <point x="139.0" y="0"/>
      <point x="139.0" y="22"/>
      <point x="139.0" y="0" type="curve"/>
      <point x="329.0" y="0"/>
      <point x="519.0" y="0"/>
      <point x="709.0" y="0" type="curve"/>
      <point x="709.0" y="22"/>
      <point x="709.0" y="0"/>
      <point x="709.0" y="22" type="curve"/>
      <point x="519.0" y="22"/>
      <point x="329.0" y="22"/>
      <point x="139.0" y="22" type="curve"/>
    </contour>
    <contour>
      <point x="142.0" y="825" type="move" name="top"/>
    </contour>
    <contour>
      <point x="384.0" y="6" type="move" name="bottom"/>
    </contour>
  </outline>
</glyph>
<glyph name="O" format="1">
  <advance width="949.5"/>
  <unicode hex="004F"/>
  <outline>
    <contour>
      <point x="96.15" y="360"/>
      <point x="72.15" y="360"/>
      <point x="96.15" y="360" type="curve"/>
      <point x="96.15" y="576"/>
      <point x="250.15" y="705"/>
      <point x="473.15" y="705" type="curve"/>
      <point x="697.15" y="705"/>
      <point x="852.15" y="578"/>
      <point x="852.15" y="363" type="curve"/>
      <point x="852.15" y="147"/>
      <point x="699.15" y="18"/>
      <point x="476.15" y="18" type="curve"/>
      <point x="251.15" y="18"/>
      <point x="96.15" y="144"/>
      <point x="96.15" y="360" type="curve"/>
      <point x="72.15" y="360"/>
      <point x="96.15" y="360"/>
      <point x="72.15" y="360" type="curve"/>
      <point x="72.15" y="129"/>
      <point x="237.15" y="-5"/>
      <point x="475.15" y="-5" type="curve"/>
      <point x="713.15" y="-5"/>
      <point x="877.15" y="131"/>
      <point x="877.15" y="363" type="curve"/>
      <point x="877.15" y="593"/>
      <point x="712.15" y="727"/>
      <point x="474.15" y="727" type="curve"/>
      <point x="235.15" y="727"/>
      <point x="72.15" y="591"/>
      <point x="72.15" y="360" type="curve"/>
    </contour>
    <contour>
      <point x="473.15" y="825" type="move" name="top"/>
    </contour>
  </outline>
</glyph>
<glyph name="P" format="1">
  <advance width="702.0"/>
  <unicode hex="0050"/>
  <outline>
    <contour>
      <point x="140.0" y="326"/>
      <point x="148.0" y="346"/>
      <point x="140.0" y="326" type="curve"/>
      <point x="211.0" y="299"/>
      <point x="275.0" y="280"/>
      <point x="351.0" y="280" type="curve"/>
      <point x="514.0" y="283"/>
      <point x="643.0" y="347"/>
      <point x="643.0" y="494" type="curve"/>
      <point x="643.0" y="654"/>
      <point x="497.0" y="722"/>
      <point x="318.0" y="722" type="curve"/>
      <point x="261.0" y="722"/>
      <point x="203.0" y="722"/>
      <point x="146.0" y="722" type="curve"/>
      <point x="146.0" y="700"/>
      <point x="146.0" y="722"/>
      <point x="146.0" y="700" type="curve"/>
      <point x="202.0" y="700"/>
      <point x="259.0" y="700"/>
      <point x="315.0" y="700" type="curve"/>
      <point x="482.0" y="700"/>
      <point x="618.0" y="642"/>
      <point x="618.0" y="493" type="curve"/>
      <point x="618.0" y="360"/>
      <point x="500.0" y="302"/>
      <point x="354.0" y="302" type="curve"/>
      <point x="276.0" y="302"/>
      <point x="220.0" y="318"/>
      <point x="148.0" y="346" type="curve"/>
    </contour>
    <contour>
      <point x="153.0" y="0"/>
      <point x="128.0" y="0"/>
      <point x="153.0" y="0" type="curve"/>
      <point x="153.0" y="241"/>
      <point x="153.0" y="481"/>
      <point x="153.0" y="722" type="curve"/>
      <point x="128.0" y="722"/>
      <point x="153.0" y="722"/>
      <point x="128.0" y="722" type="curve"/>
      <point x="128.0" y="481"/>
      <point x="128.0" y="241"/>
      <point x="128.0" y="0" type="curve"/>
    </contour>
  </outline>
</glyph>
<glyph name="Q" format="1">
  <advance width="1094.0"/>
  <unicode hex="0051"/>
  <outline>
    <contour>
      <point x="477.0" y="4"/>
      <point x="498.0" y="15"/>
      <point x="477.0" y="4" type="curve"/>
      <point x="624.0" y="-196"/>
      <point x="786.0" y="-240"/>
      <point x="1023.0" y="-240" type="curve"/>
      <point x="1023.0" y="-217"/>
      <point x="1023.0" y="-240"/>
      <point x="1023.0" y="-217" type="curve"/>
      <point x="797.0" y="-217"/>
      <point x="641.0" y="-177"/>
      <point x="498.0" y="15" type="curve"/>
    </contour>
    <contour>
      <point x="97.0" y="360"/>
      <point x="72.0" y="360"/>
      <point x="97.0" y="360" type="curve"/>
      <point x="97.0" y="576"/>
      <point x="252.0" y="703"/>
      <point x="476.0" y="703" type="curve"/>
      <point x="700.0" y="703"/>
      <point x="855.0" y="578"/>
      <point x="855.0" y="363" type="curve"/>
      <point x="855.0" y="147"/>
      <point x="702.0" y="19"/>
      <point x="479.0" y="19" type="curve"/>
      <point x="253.0" y="19"/>
      <point x="97.0" y="144"/>
      <point x="97.0" y="360" type="curve"/>
      <point x="72.0" y="360"/>
      <point x="97.0" y="360"/>
      <point x="72.0" y="360" type="curve"/>
      <point x="72.0" y="129"/>
      <point x="239.0" y="-5"/>
      <point x="478.0" y="-5" type="curve"/>
      <point x="716.0" y="-5"/>
      <point x="880.0" y="132"/>
      <point x="880.0" y="364" type="curve"/>
      <point x="880.0" y="594"/>
      <point x="715.0" y="727"/>
      <point x="477.0" y="727" type="curve"/>
      <point x="238.0" y="727"/>
      <point x="72.0" y="591"/>
      <point x="72.0" y="360" type="curve"/>
    </contour>
  </outline>
</glyph>
<glyph name="T" format="1">
  <advance width="857.0"/>
  <unicode hex="0054"/>
  <outline>
    <contour>
      <point x="441.1" y="0"/>
      <point x="417.1" y="0"/>
      <point x="441.1" y="0" type="curve"/>
      <point x="441.1" y="237"/>
      <point x="441.1" y="473"/>
      <point x="441.1" y="710" type="curve"/>
      <point x="417.1" y="710"/>
      <point x="441.1" y="710"/>
      <point x="417.1" y="710" type="curve"/>
      <point x="417.1" y="473"/>
      <point x="417.1" y="237"/>
      <point x="417.1" y="0" type="curve"/>
    </contour>
    <contour>
      <point x="10.1" y="698"/>
      <point x="10.1" y="722"/>
      <point x="10.1" y="698" type="curve"/>
      <point x="289.1" y="698"/>
      <point x="568.1" y="698"/>
      <point x="847.1" y="698" type="curve"/>
      <point x="847.1" y="722"/>
      <point x="847.1" y="698"/>
      <point x="847.1" y="722" type="curve"/>
      <point x="568.1" y="722"/>
      <point x="289.1" y="722"/>
      <point x="10.1" y="722" type="curve"/>
    </contour>
    <contour>
      <point x="426.1" y="825" type="move" name="top"/>
    </contour>
    <contour>
      <point x="441.1" y="0" type="move" name="bottom"/>
    </contour>
  </outline>
</glyph>
<glyph name="W" format="1">
  <advance width="1115.0"/>
  <unicode hex="0057"/>
  <outline>
    <contour>
      <point x="299.0" y="0"/>
      <point x="287.0" y="0"/>
      <point x="305.0" y="0" type="curve"/>
      <point x="395.0" y="241"/>
      <point x="486.0" y="481"/>
      <point x="576.0" y="722" type="curve"/>
      <point x="552.0" y="722"/>
      <point x="576.0" y="722"/>
      <point x="552.0" y="722" type="curve"/>
      <point x="462.0" y="481"/>
      <point x="371.0" y="241"/>
      <point x="281.0" y="0" type="curve"/>
    </contour>
    <contour>
      <point x="560.0" y="722"/>
      <point x="584.0" y="722"/>
      <point x="560.0" y="722" type="curve"/>
      <point x="641.0" y="481"/>
      <point x="723.0" y="241"/>
      <point x="804.0" y="0" type="curve"/>
      <point x="823.0" y="0"/>
      <point x="809.0" y="0"/>
      <point x="828.0" y="0" type="curve"/>
      <point x="748.0" y="241"/>
      <point x="666.0" y="481"/>
      <point x="584.0" y="722" type="curve"/>
    </contour>
    <contour>
      <point x="33.0" y="722"/>
      <point x="59.0" y="722"/>
      <point x="33.0" y="722" type="curve"/>
      <point x="114.0" y="481"/>
      <point x="196.0" y="241"/>
      <point x="278.0" y="0" type="curve"/>
      <point x="296.0" y="0"/>
      <point x="284.0" y="0"/>
      <point x="302.0" y="0" type="curve"/>
      <point x="222.0" y="240"/>
      <point x="139.0" y="482"/>
      <point x="59.0" y="722" type="curve"/>
    </contour>
    <contour>
      <point x="1061.0" y="722"/>
      <point x="1087.0" y="722"/>
      <point x="1061.0" y="722" type="curve"/>
      <point x="976.0" y="481"/>
      <point x="891.0" y="241"/>
      <point x="808.0" y="0" type="curve"/>
      <point x="827.0" y="0"/>
      <point x="813.0" y="0"/>
      <point x="832.0" y="0" type="curve"/>
      <point x="917.0" y="241"/>
      <point x="1002.0" y="481"/>
      <point x="1087.0" y="722" type="curve"/>
    </contour>
  </outline>
</glyph>
<glyph name="X" format="1">
  <advance width="754.0"/>
  <unicode hex="0058"/>
  <outline>
    <contour>
      <point x="679.0" y="722"/>
      <point x="711.0" y="722"/>
      <point x="679.0" y="722" type="curve"/>
      <point x="455.0" y="481"/>
      <point x="230.0" y="241"/>
      <point x="6.0" y="0" type="curve"/>
      <point x="41.0" y="0"/>
      <point x="6.0" y="0"/>
      <point x="41.0" y="0" type="curve"/>
      <point x="264.0" y="241"/>
      <point x="487.0" y="481"/>
      <point x="711.0" y="722" type="curve"/>
    </contour>
    <contour>
      <point x="46.0" y="722"/>
      <point x="79.0" y="722"/>
      <point x="46.0" y="722" type="curve"/>
      <point x="268.0" y="481"/>
      <point x="489.0" y="241"/>
      <point x="711.0" y="0" type="curve"/>
      <point x="745.0" y="0"/>
      <point x="711.0" y="0"/>
      <point x="745.0" y="0" type="curve"/>
      <point x="523.0" y="241"/>
      <point x="301.0" y="481"/>
      <point x="79.0" y="722" type="curve"/>
    </contour>
  </outline>
</glyph>
<glyph name="bracketleft" format="1">
  <advance width="333.0"/>
  <unicode hex="005B"/>
  <outline>
    <contour>
      <point x="306.0" y="771"/>
      <point x="306.0" y="747"/>
      <point x="306.0" y="771" type="curve"/>
      <point x="237.0" y="771"/>
      <point x="168.0" y="771"/>
      <point x="99.0" y="771" type="curve"/>
      <point x="98.0" y="771"/>
      <point x="99.0" y="771"/>
      <point x="96.0" y="771" type="curve"/>
      <point x="96.0" y="769"/>
      <point x="96.0" y="767"/>
      <point x="96.0" y="765" type="curve"/>
      <point x="96.0" y="470"/>
      <point x="96.0" y="175"/>
      <point x="96.0" y="-120" type="curve"/>
      <point x="96.0" y="-121"/>
      <point x="96.0" y="-123"/>
      <point x="96.0" y="-124" type="curve"/>
      <point x="97.0" y="-124"/>
      <point x="97.0" y="-124"/>
      <point x="98.0" y="-124" type="curve"/>
      <point x="167.0" y="-124"/>
      <point x="236.0" y="-124"/>
      <point x="306.0" y="-124" type="curve"/>
      <point x="306.0" y="-100"/>
      <point x="306.0" y="-124"/>
      <point x="306.0" y="-100" type="curve"/>
      <point x="236.0" y="-100"/>
      <point x="167.0" y="-100"/>
      <point x="98.0" y="-100" type="curve"/>
      <point x="121.0" y="-100"/>
      <point x="98.0" y="-100"/>
      <point x="121.0" y="-100" type="curve"/>
      <point x="121.0" y="-120"/>
      <point x="121.0" y="-100"/>
      <point x="121.0" y="-120" type="curve"/>
      <point x="121.0" y="175"/>
      <point x="121.0" y="470"/>
      <point x="121.0" y="765" type="curve"/>
      <point x="121.0" y="747"/>
      <point x="121.0" y="765"/>
      <point x="121.0" y="747" type="curve"/>
      <point x="99.0" y="747"/>
      <point x="121.0" y="747"/>
      <point x="99.0" y="747" type="curve"/>
      <point x="168.0" y="747"/>
      <point x="237.0" y="747"/>
      <point x="306.0" y="747" type="curve"/>
    </contour>
  </outline>
</glyph>
<glyph name="backslash" format="1">
  <advance width="620.0"/>
  <unicode hex="005C"/>
  <outline>
    <contour>
      <point x="587.0" y="-68"/>
      <point x="562.0" y="-68"/>
      <point x="587.0" y="-68" type="curve"/>
      <point x="411.0" y="236"/>
      <point x="235.0" y="540"/>
      <point x="58.0" y="844" type="curve"/>
      <point x="33.0" y="844"/>
      <point x="58.0" y="844"/>
      <point x="33.0" y="844" type="curve"/>
      <point x="209.0" y="540"/>
      <point x="386.0" y="236"/>
      <point x="562.0" y="-68" type="curve"/>
    </contour>
  </outline>
</glyph>
<glyph name="bracketright" format="1">
  <advance width="332.0"/>
  <unicode hex="005D"/>
  <outline>
    <contour>
      <point x="27.0" y="747"/>
      <point x="27.0" y="771"/>
      <point x="27.0" y="747" type="curve"/>
      <point x="96.0" y="747"/>
      <point x="164.0" y="747"/>
      <point x="233.0" y="747" type="curve"/>
      <point x="230.0" y="750"/>
      <point x="226.0" y="753"/>
      <point x="223.0" y="756" type="curve"/>
      <point x="219.0" y="759"/>
      <point x="215.0" y="762"/>
      <point x="212.0" y="765" type="curve"/>
      <point x="212.0" y="470"/>
      <point x="212.0" y="175"/>
      <point x="212.0" y="-120" type="curve"/>
      <point x="216.0" y="-117"/>
      <point x="220.0" y="-113"/>
      <point x="224.0" y="-109" type="curve"/>
      <point x="228.0" y="-107"/>
      <point x="231.0" y="-103"/>
      <point x="235.0" y="-100" type="curve"/>
      <point x="165.0" y="-100"/>
      <point x="96.0" y="-100"/>
      <point x="27.0" y="-100" type="curve"/>
      <point x="27.0" y="-124"/>
      <point x="27.0" y="-100"/>
      <point x="27.0" y="-124" type="curve"/>
      <point x="96.0" y="-124"/>
      <point x="165.0" y="-124"/>
      <point x="235.0" y="-124" type="curve"/>
      <point x="236.0" y="-124"/>
      <point x="235.0" y="-124"/>
      <point x="236.0" y="-124" type="curve"/>
      <point x="236.0" y="-120"/>
      <point x="236.0" y="-124"/>
      <point x="236.0" y="-120" type="curve"/>
      <point x="236.0" y="175"/>
      <point x="236.0" y="470"/>
      <point x="236.0" y="765" type="curve"/>
      <point x="236.0" y="771"/>
      <point x="236.0" y="765"/>
      <point x="236.0" y="771" type="curve"/>
      <point x="233.0" y="771"/>
      <point x="236.0" y="771"/>
      <point x="233.0" y="771" type="curve"/>
      <point x="164.0" y="771"/>
      <point x="96.0" y="771"/>
      <point x="27.0" y="771" type="curve"/>
    </contour>
  </outline>
</glyph>
<glyph name="asciicircum" format="1">
  <advance width="623.0"/>
  <unicode hex="005E"/>
  <outline>
    <contour>
      <point x="85.0" y="466"/>
      <point x="64.0" y="466"/>
      <point x="87.0" y="466" type="curve"/>
      <point x="165.0" y="581"/>
      <point x="244.0" y="695"/>
      <point x="322.0" y="810" type="curve"/>
      <point x="299.0" y="810"/>
      <point x="320.0" y="810"/>
      <point x="297.0" y="810" type="curve"/>
      <point x="219.0" y="695"/>
      <point x="140.0" y="581"/>
      <point x="62.0" y="466" type="curve"/>
    </contour>
    <contour>
      <point x="559.0" y="466"/>
      <point x="538.0" y="466"/>
      <point x="561.0" y="466" type="curve"/>
      <point x="484.0" y="577"/>
      <point x="401.0" y="699"/>
      <point x="324.0" y="810" type="curve"/>
      <point x="301.0" y="810"/>
      <point x="322.0" y="810"/>
      <point x="299.0" y="810" type="curve"/>
      <point x="375.0" y="699"/>
      <point x="459.0" y="577"/>
      <point x="536.0" y="466" type="curve"/>
    </contour>
  </outline>
</glyph>
<glyph name="underscore" format="1">
  <advance width="920.2"/>
  <unicode hex="005F"/>
  <outline>
    <contour>
      <point x="-0.25" y="-210"/>
      <point x="-0.25" y="-189"/>
      <point x="-0.25" y="-210" type="curve"/>
      <point x="306.75" y="-210"/>
      <point x="613.75" y="-210"/>
      <point x="919.75" y="-210" type="curve"/>
      <point x="919.75" y="-189"/>
      <point x="919.75" y="-210"/>
      <point x="919.75" y="-189" type="curve"/>
      <point x="613.75" y="-189"/>
      <point x="306.75" y="-189"/>
      <point x="-0.25" y="-189" type="curve"/>
    </contour>
  </outline>
</glyph>
<glyph name="b" format="1">
  <advance width="767.0"/>
  <unicode hex="0062"/>
  <outline>
    <contour>
      <point x="127.0" y="408"/>
      <point x="115.0" y="424"/>
      <point x="127.0" y="408" type="curve"/>
      <point x="187.0" y="463"/>
      <point x="291.0" y="516"/>
      <point x="408.0" y="516" type="curve"/>
      <point x="565.0" y="516"/>
      <point x="676.0" y="420"/>
      <point x="676.0" y="263" type="curve"/>
      <point x="676.0" y="112"/>
      <point x="564.0" y="15"/>
      <point x="407.0" y="17" type="curve"/>
      <point x="299.0" y="17"/>
      <point x="217.0" y="42"/>
      <point x="130.0" y="110" type="curve"/>
      <point x="114.0" y="97"/>
      <point x="130.0" y="110"/>
      <point x="114.0" y="97" type="curve"/>
      <point x="205.0" y="21"/>
      <point x="292.0" y="-5"/>
      <point x="408.0" y="-5" type="curve"/>
      <point x="578.0" y="-5"/>
      <point x="700.0" y="97"/>
      <point x="700.0" y="264" type="curve"/>
      <point x="700.0" y="432"/>
      <point x="579.0" y="538"/>
      <point x="411.0" y="538" type="curve"/>
      <point x="288.0" y="538"/>
      <point x="179.0" y="483"/>
      <point x="115.0" y="424" type="curve"/>
    </contour>
    <contour>
      <point x="133.0" y="0"/>
      <point x="109.0" y="0"/>
      <point x="133.0" y="0" type="curve"/>
      <point x="133.0" y="267"/>
      <point x="133.0" y="533"/>
      <point x="133.0" y="800" type="curve"/>
      <point x="109.0" y="800"/>
      <point x="133.0" y="800"/>
      <point x="109.0" y="800" type="curve"/>
      <point x="109.0" y="533"/>
      <point x="109.0" y="267"/>
      <point x="109.0" y="0" type="curve"/>
    </contour>
  </outline>
</glyph>
<glyph name="c" format="1">
  <advance width="657.0"/>
  <unicode hex="0063"/>
  <outline>
    <contour>
      <point x="597.0" y="473"/>
      <point x="583.0" y="458"/>
      <point x="597.0" y="473" type="curve"/>
      <point x="534.0" y="511"/>
      <point x="458.0" y="538"/>
      <point x="381.0" y="538" type="curve"/>
      <point x="193.0" y="538"/>
      <point x="67.0" y="450"/>
      <point x="67.0" y="267" type="curve"/>
      <point x="67.0" y="84"/>
      <point x="190.0" y="-5"/>
      <point x="379.0" y="-5" type="curve"/>
      <point x="464.0" y="-5"/>
      <point x="549.0" y="25"/>
      <point x="612.0" y="82" type="curve"/>
      <point x="595.0" y="98"/>
      <point x="612.0" y="82"/>
      <point x="595.0" y="98" type="curve"/>
      <point x="535.0" y="43"/>
      <point x="458.0" y="17"/>
      <point x="379.0" y="17" type="curve"/>
      <point x="208.0" y="17"/>
      <point x="91.0" y="97"/>
      <point x="91.0" y="267" type="curve"/>
      <point x="91.0" y="437"/>
      <point x="208.0" y="516"/>
      <point x="379.0" y="516" type="curve"/>
      <point x="451.0" y="516"/>
      <point x="522.0" y="494"/>
      <point x="583.0" y="458" type="curve"/>
    </contour>
    <contour>
      <point x="388.0" y="-2" type="move" name="bottom"/>
    </contour>
    <contour>
      <point x="375.0" y="671" type="move" name="top"/>
    </contour>
  </outline>
</glyph>
<glyph name="f" format="1">
  <advance width="607.0"/>
  <unicode hex="0066"/>
  <outline>
    <contour>
      <point x="22.0" y="511"/>
      <point x="22.0" y="533"/>
      <point x="22.0" y="511" type="curve"/>
      <point x="22.0" y="511"/>
      <point x="581.0" y="511"/>
      <point x="581.0" y="511" type="curve"/>
      <point x="581.0" y="533"/>
      <point x="581.0" y="511"/>
      <point x="581.0" y="533" type="curve"/>
      <point x="581.0" y="533"/>
      <point x="22.0" y="533"/>
      <point x="22.0" y="533" type="curve"/>
    </contour>
    <contour>
      <point x="284.0" y="0"/>
      <point x="260.0" y="0"/>
      <point x="284.0" y="0" type="curve"/>
      <point x="284.0" y="0"/>
      <point x="284.0" y="640"/>
      <point x="284.0" y="640" type="curve"/>
      <point x="284.0" y="735"/>
      <point x="356.0" y="783"/>
      <point x="457.0" y="783" type="curve"/>
      <point x="503.0" y="783"/>
      <point x="548.0" y="770"/>
      <point x="590.0" y="755" type="curve"/>
      <point x="600.0" y="772"/>
      <point x="590.0" y="755"/>
      <point x="600.0" y="772" type="curve"/>
      <point x="554.0" y="789"/>
      <point x="505.0" y="805"/>
      <point x="457.0" y="805" type="curve"/>
      <point x="343.0" y="805"/>
      <point x="260.0" y="750"/>
      <point x="260.0" y="640" type="curve"/>
      <point x="260.0" y="640"/>
      <point x="260.0" y="0"/>
      <point x="260.0" y="0" type="curve"/>
    </contour>
  </outline>
</glyph>
<glyph name="g" format="1">
  <advance width="651.0"/>
  <unicode hex="0067"/>
  <outline>
    <contour>
      <point x="444.0" y="500"/>
      <point x="431.0" y="517"/>
      <point x="444.0" y="500" type="curve"/>
      <point x="642.0" y="575" type="line"/>
      <point x="629.0" y="597" type="line"/>
      <point x="431.0" y="517" type="line"/>
    </contour>
    <contour>
      <point x="99.0" y="358"/>
      <point x="74.0" y="357"/>
      <point x="99.0" y="358" type="curve"/>
      <point x="99.0" y="466"/>
      <point x="201.0" y="517"/>
      <point x="324.0" y="517" type="curve"/>
      <point x="445.0" y="517"/>
      <point x="543.0" y="469"/>
      <point x="543.0" y="361" type="curve"/>
      <point x="543.0" y="257"/>
      <point x="443.0" y="210"/>
      <point x="321.0" y="210" type="curve"/>
      <point x="202.0" y="210"/>
      <point x="99.0" y="252"/>
      <point x="99.0" y="358" type="curve"/>
      <point x="74.0" y="357"/>
      <point x="99.0" y="358"/>
      <point x="74.0" y="357" type="curve"/>
      <point x="74.0" y="238"/>
      <point x="186.0" y="189"/>
      <point x="319.0" y="189" type="curve"/>
      <point x="455.0" y="189"/>
      <point x="567.0" y="240"/>
      <point x="567.0" y="362" type="curve"/>
      <point x="567.0" y="483"/>
      <point x="458.0" y="538"/>
      <point x="324.0" y="538" type="curve"/>
      <point x="186.0" y="538"/>
      <point x="74.0" y="481"/>
      <point x="74.0" y="357" type="curve"/>
    </contour>
    <contour>
      <point x="182.0" y="227"/>
      <point x="193.0" y="214"/>
      <point x="182.0" y="227" type="curve"/>
      <point x="124.0" y="204"/>
      <point x="80.0" y="170"/>
      <point x="80.0" y="109" type="curve"/>
      <point x="80.0" y="4"/>
      <point x="195.0" y="-5"/>
      <point x="315.0" y="-13" type="curve"/>
      <point x="466.0" y="-23"/>
      <point x="619.0" y="-16"/>
      <point x="619.0" y="-144" type="curve"/>
      <point x="619.0" y="-266"/>
      <point x="472.0" y="-283"/>
      <point x="317.0" y="-283" type="curve"/>
      <point x="172.0" y="-283"/>
      <point x="39.0" y="-251"/>
      <point x="39.0" y="-134" type="curve"/>
      <point x="39.0" y="-54"/>
      <point x="106.0" y="-16"/>
      <point x="185.0" y="9" type="curve"/>
      <point x="173.0" y="22"/>
      <point x="185.0" y="9"/>
      <point x="173.0" y="22" type="curve"/>
      <point x="86.0" y="-4"/>
      <point x="15.0" y="-46"/>
      <point x="15.0" y="-135" type="curve"/>
      <point x="15.0" y="-272"/>
      <point x="157.0" y="-304"/>
      <point x="316.0" y="-304" type="curve"/>
      <point x="485.0" y="-304"/>
      <point x="644.0" y="-287"/>
      <point x="641.0" y="-142" type="curve"/>
      <point x="641.0" y="1"/>
      <point x="481.0" y="-2"/>
      <point x="319.0" y="8" type="curve"/>
      <point x="210.0" y="13"/>
      <point x="104.0" y="16"/>
      <point x="104.0" y="112" type="curve"/>
      <point x="104.0" y="164"/>
      <point x="143.0" y="192"/>
      <point x="193.0" y="214" type="curve"/>
    </contour>
    <contour>
      <point x="326.0" y="671" type="move" name="top"/>
    </contour>
  </outline>
</glyph>
<glyph name="j" format="1">
  <advance width="250.0"/>
  <unicode hex="006A"/>
  <outline>
    <contour>
      <point x="-116.0" y="-301"/>
      <point x="-113.0" y="-279"/>
      <point x="-117.0" y="-301" type="curve"/>
      <point x="-106.0" y="-301"/>
      <point x="-92.0" y="-304"/>
      <point x="-77.0" y="-304" type="curve"/>
      <point x="38.0" y="-304"/>
      <point x="133.0" y="-253"/>
      <point x="133.0" y="-142" type="curve"/>
      <point x="133.0" y="83"/>
      <point x="133.0" y="308"/>
      <point x="133.0" y="533" type="curve"/>
      <point x="109.0" y="533"/>
      <point x="133.0" y="533"/>
      <point x="109.0" y="533" type="curve"/>
      <point x="109.0" y="308"/>
      <point x="109.0" y="83"/>
      <point x="109.0" y="-142" type="curve"/>
      <point x="109.0" y="-238"/>
      <point x="25.0" y="-282"/>
      <point x="-77.0" y="-282" type="curve"/>
      <point x="-89.0" y="-282"/>
      <point x="-105.0" y="-280"/>
      <point x="-113.0" y="-279" type="curve"/>
    </contour>
    <contour>
      <point x="118.0" y="685"/>
      <point x="129.0" y="685"/>
      <point x="145.0" y="685" type="curve"/>
      <point x="145.0" y="697"/>
      <point x="136.0" y="705"/>
      <point x="123.0" y="705" type="curve"/>
      <point x="111.0" y="705"/>
      <point x="103.0" y="697"/>
      <point x="103.0" y="685" type="curve"/>
      <point x="118.0" y="685"/>
      <point x="129.0" y="685"/>
      <point x="145.0" y="685" type="curve"/>
      <point x="145.0" y="673"/>
      <point x="136.0" y="665"/>
      <point x="123.0" y="665" type="curve"/>
      <point x="111.0" y="665"/>
      <point x="103.0" y="673"/>
      <point x="103.0" y="685" type="curve"/>
    </contour>
  </outline>
</glyph>
<glyph name="k" format="1">
  <advance width="576.0"/>
  <unicode hex="006B"/>
  <outline>
    <contour>
      <point x="133.0" y="0"/>
      <point x="109.0" y="0"/>
      <point x="133.0" y="0" type="curve"/>
      <point x="133.0" y="0"/>
      <point x="133.0" y="800"/>
      <point x="133.0" y="800" type="curve"/>
      <point x="109.0" y="800"/>
      <point x="133.0" y="800"/>
      <point x="109.0" y="800" type="curve"/>
      <point x="109.0" y="533"/>
      <point x="109.0" y="267"/>
      <point x="109.0" y="0" type="curve"/>
    </contour>
    <contour>
      <point x="496.0" y="533"/>
      <point x="538.0" y="533"/>
      <point x="496.0" y="533" type="curve"/>
      <point x="122.0" y="275" type="line"/>
      <point x="165.0" y="275"/>
      <point x="122.0" y="275"/>
      <point x="165.0" y="275" type="curve"/>
      <point x="538.0" y="533" type="line"/>
    </contour>
    <contour>
      <point x="574.0" y="0"/>
      <point x="525.0" y="0"/>
      <point x="572.0" y="0" type="curve"/>
      <point x="165.0" y="275" type="line"/>
      <point x="122.0" y="275"/>
      <point x="165.0" y="275"/>
      <point x="122.0" y="275" type="curve"/>
      <point x="527.0" y="0" type="line"/>
    </contour>
    <contour>
      <point x="393.0" y="3" type="move" name="bottom"/>
    </contour>
  </outline>
</glyph>
<glyph name="l" format="1">
  <advance width="242.0"/>
  <unicode hex="006C"/>
  <outline>
    <contour>
      <point x="133.0" y="0"/>
      <point x="109.0" y="0"/>
      <point x="133.0" y="0" type="curve"/>
      <point x="133.0" y="267"/>
      <point x="133.0" y="533"/>
      <point x="133.0" y="800" type="curve"/>
      <point x="109.0" y="800"/>
      <point x="133.0" y="800"/>
      <point x="109.0" y="800" type="curve"/>
      <point x="109.0" y="533"/>
      <point x="109.0" y="267"/>
      <point x="109.0" y="0" type="curve"/>
    </contour>
    <contour>
      <point x="122.0" y="916" type="move" name="top"/>
    </contour>
    <contour>
      <point x="133.0" y="4" type="move" name="bottom"/>
    </contour>
  </outline>
</glyph>
<glyph name="m" format="1">
  <advance width="1132.0"/>
  <unicode hex="006D"/>
  <outline>
    <contour>
      <point x="576.0" y="354"/>
      <point x="564.0" y="365"/>
      <point x="576.0" y="354" type="curve"/>
      <point x="626.0" y="458"/>
      <point x="712.0" y="516"/>
      <point x="824.0" y="516" type="curve"/>
      <point x="946.0" y="516"/>
      <point x="1005.0" y="464"/>
      <point x="1005.0" y="341" type="curve"/>
      <point x="1005.0" y="228"/>
      <point x="1005.0" y="114"/>
      <point x="1005.0" y="0" type="curve"/>
      <point x="1030.0" y="0"/>
      <point x="1005.0" y="0"/>
      <point x="1030.0" y="0" type="curve"/>
      <point x="1030.0" y="115"/>
      <point x="1030.0" y="229"/>
      <point x="1030.0" y="344" type="curve"/>
      <point x="1030.0" y="478"/>
      <point x="964.0" y="538"/>
      <point x="829.0" y="538" type="curve"/>
      <point x="707.0" y="538"/>
      <point x="609.0" y="480"/>
      <point x="564.0" y="365" type="curve"/>
    </contour>
    <contour>
      <point x="128.0" y="354"/>
      <point x="116.0" y="365"/>
      <point x="128.0" y="354" type="curve"/>
      <point x="179.0" y="459"/>
      <point x="263.0" y="516"/>
      <point x="375.0" y="516" type="curve"/>
      <point x="496.0" y="516"/>
      <point x="557.0" y="464"/>
      <point x="557.0" y="341" type="curve"/>
      <point x="557.0" y="228"/>
      <point x="557.0" y="114"/>
      <point x="557.0" y="0" type="curve"/>
      <point x="581.0" y="0"/>
      <point x="557.0" y="0"/>
      <point x="581.0" y="0" type="curve"/>
      <point x="581.0" y="115"/>
      <point x="581.0" y="229"/>
      <point x="581.0" y="344" type="curve"/>
      <point x="581.0" y="478"/>
      <point x="516.0" y="538"/>
      <point x="381.0" y="538" type="curve"/>
      <point x="258.0" y="538"/>
      <point x="162.0" y="481"/>
      <point x="116.0" y="365" type="curve"/>
    </contour>
    <contour>
      <point x="133.0" y="0"/>
      <point x="109.0" y="0"/>
      <point x="133.0" y="0" type="curve"/>
      <point x="133.0" y="178"/>
      <point x="133.0" y="355"/>
      <point x="133.0" y="533" type="curve"/>
      <point x="109.0" y="533"/>
      <point x="133.0" y="533"/>
      <point x="109.0" y="533" type="curve"/>
      <point x="109.0" y="355"/>
      <point x="109.0" y="178"/>
      <point x="109.0" y="0" type="curve"/>
    </contour>
  </outline>
</glyph>
<glyph name="n" format="1">
  <advance width="737.0"/>
  <unicode hex="006E"/>
  <outline>
    <contour>
      <point x="128.0" y="354"/>
      <point x="116.0" y="365"/>
      <point x="128.0" y="354" type="curve"/>
      <point x="179.0" y="458"/>
      <point x="288.0" y="516"/>
      <point x="403.0" y="516" type="curve"/>
      <point x="529.0" y="516"/>
      <point x="611.0" y="461"/>
      <point x="611.0" y="341" type="curve"/>
      <point x="611.0" y="228"/>
      <point x="611.0" y="114"/>
      <point x="611.0" y="0" type="curve"/>
      <point x="636.0" y="0"/>
      <point x="611.0" y="0"/>
      <point x="636.0" y="0" type="curve"/>
      <point x="636.0" y="115"/>
      <point x="636.0" y="229"/>
      <point x="636.0" y="344" type="curve"/>
      <point x="636.0" y="477"/>
      <point x="547.0" y="538"/>
      <point x="408.0" y="538" type="curve"/>
      <point x="283.0" y="538"/>
      <point x="162.0" y="481"/>
      <point x="116.0" y="365" type="curve"/>
    </contour>
    <contour>
      <point x="133.0" y="0"/>
      <point x="109.0" y="0"/>
      <point x="133.0" y="0" type="curve"/>
      <point x="133.0" y="178"/>
      <point x="133.0" y="355"/>
      <point x="133.0" y="533" type="curve"/>
      <point x="109.0" y="533"/>
      <point x="133.0" y="533"/>
      <point x="109.0" y="533" type="curve"/>
      <point x="109.0" y="355"/>
      <point x="109.0" y="178"/>
      <point x="109.0" y="0" type="curve"/>
    </contour>
    <contour>
      <point x="376.0" y="669" type="move" name="top"/>
    </contour>
    <contour>
      <point x="422.0" y="-1" type="move" name="bottom"/>
    </contour>
  </outline>
</glyph>
<glyph name="p" format="1">
  <advance width="764.0"/>
  <unicode hex="0070"/>
  <outline>
    <contour>
      <point x="126.0" y="423"/>
      <point x="114.0" y="437"/>
      <point x="126.0" y="423" type="curve"/>
      <point x="183.0" y="476"/>
      <point x="290.0" y="516"/>
      <point x="405.0" y="516" type="curve"/>
      <point x="563.0" y="516"/>
      <point x="675.0" y="426"/>
      <point x="675.0" y="276" type="curve"/>
      <point x="679.0" y="117"/>
      <point x="568.0" y="15"/>
      <point x="407.0" y="17" type="curve"/>
      <point x="296.0" y="17"/>
      <point x="216.0" y="54"/>
      <point x="128.0" y="122" type="curve"/>
      <point x="113.0" y="111"/>
      <point x="128.0" y="122"/>
      <point x="113.0" y="111" type="curve"/>
      <point x="204.0" y="35"/>
      <point x="289.0" y="-5"/>
      <point x="407.0" y="-5" type="curve"/>
      <point x="580.0" y="-5"/>
      <point x="699.0" y="106"/>
      <point x="698.0" y="277" type="curve"/>
      <point x="698.0" y="440"/>
      <point x="575.0" y="538"/>
      <point x="406.0" y="538" type="curve"/>
      <point x="286.0" y="538"/>
      <point x="176.0" y="495"/>
      <point x="114.0" y="437" type="curve"/>
    </contour>
    <contour>
      <point x="133.0" y="-300"/>
      <point x="109.0" y="-300"/>
      <point x="133.0" y="-300" type="curve"/>
      <point x="133.0" y="-22"/>
      <point x="133.0" y="255"/>
      <point x="133.0" y="533" type="curve"/>
      <point x="109.0" y="533"/>
      <point x="133.0" y="533"/>
      <point x="109.0" y="533" type="curve"/>
      <point x="109.0" y="255"/>
      <point x="109.0" y="-22"/>
      <point x="109.0" y="-300" type="curve"/>
    </contour>
  </outline>
</glyph>
<glyph name="q" format="1">
  <advance width="774.0"/>
  <unicode hex="0071"/>
  <outline>
    <contour>
      <point x="663.0" y="442"/>
      <point x="647.0" y="429"/>
      <point x="660.0" y="444" type="curve"/>
      <point x="578.0" y="503"/>
      <point x="469.0" y="538"/>
      <point x="364.0" y="538" type="curve"/>
      <point x="188.0" y="538"/>
      <point x="67.0" y="436"/>
      <point x="67.0" y="264" type="curve"/>
      <point x="67.0" y="92"/>
      <point x="192.0" y="-5"/>
      <point x="368.0" y="-5" type="curve"/>
      <point x="479.0" y="-5"/>
      <point x="585.0" y="42"/>
      <point x="658.0" y="121" type="curve"/>
      <point x="642.0" y="135"/>
      <point x="663.0" y="126"/>
      <point x="648.0" y="140" type="curve"/>
      <point x="574.0" y="60"/>
      <point x="474.0" y="17"/>
      <point x="368.0" y="17" type="curve"/>
      <point x="208.0" y="17"/>
      <point x="92.0" y="107"/>
      <point x="92.0" y="265" type="curve"/>
      <point x="92.0" y="423"/>
      <point x="204.0" y="516"/>
      <point x="365.0" y="516" type="curve"/>
      <point x="465.0" y="516"/>
      <point x="568.0" y="481"/>
      <point x="650.0" y="427" type="curve"/>
    </contour>
    <contour>
      <point x="665.0" y="-300"/>
      <point x="639.0" y="-300"/>
      <point x="665.0" y="-300" type="curve"/>
      <point x="665.0" y="-22"/>
      <point x="665.0" y="255"/>
      <point x="665.0" y="533" type="curve"/>
      <point x="639.0" y="533"/>
      <point x="665.0" y="533"/>
      <point x="639.0" y="533" type="curve"/>
      <point x="639.0" y="255"/>
      <point x="639.0" y="-22"/>
      <point x="639.0" y="-300" type="curve"/>
    </contour>
  </outline>
</glyph>
<glyph name="r" format="1">
  <advance width="470.0"/>
  <unicode hex="0072"/>
  <outline>
    <contour>
      <point x="133.0" y="0"/>
      <point x="109.0" y="0"/>
      <point x="133.0" y="0" type="curve"/>
      <point x="133.0" y="178"/>
      <point x="133.0" y="355"/>
      <point x="133.0" y="533" type="curve"/>
      <point x="109.0" y="533"/>
      <point x="133.0" y="533"/>
      <point x="109.0" y="533" type="curve"/>
      <point x="109.0" y="355"/>
      <point x="109.0" y="178"/>
      <point x="109.0" y="0" type="curve"/>
    </contour>
    <contour>
      <point x="133.0" y="356"/>
      <point x="114.0" y="370"/>
      <point x="127.0" y="352" type="curve"/>
      <point x="199.0" y="480"/>
      <point x="324.0" y="516"/>
      <point x="457.0" y="516" type="curve"/>
      <point x="457.0" y="538"/>
      <point x="457.0" y="516"/>
      <point x="457.0" y="538" type="curve"/>
      <point x="318.0" y="538"/>
      <point x="175.0" y="491"/>
      <point x="120.0" y="374" type="curve"/>
    </contour>
    <contour>
      <point x="126.0" y="671" type="move" name="top"/>
    </contour>
    <contour>
      <point x="159.0" y="3" type="move" name="bottom"/>
    </contour>
  </outline>
</glyph>
<glyph name="s" format="1">
  <advance width="566.0"/>
  <unicode hex="0073"/>
  <outline>
    <contour>
      <point x="50.0" y="51"/>
      <point x="61.0" y="72"/>
      <point x="50.0" y="51" type="curve"/>
      <point x="133.0" y="19"/>
      <point x="208.0" y="-5"/>
      <point x="293.0" y="-5" type="curve"/>
      <point x="416.0" y="-5"/>
      <point x="509.0" y="28"/>
      <point x="509.0" y="140" type="curve"/>
      <point x="508.0" y="253"/>
      <point x="401.0" y="259"/>
      <point x="283.0" y="287" type="curve"/>
      <point x="187.0" y="309"/>
      <point x="103.0" y="329"/>
      <point x="103.0" y="414" type="curve"/>
      <point x="103.0" y="496"/>
      <point x="175.0" y="516"/>
      <point x="269.0" y="516" type="curve"/>
      <point x="335.0" y="516"/>
      <point x="414.0" y="494"/>
      <point x="460.0" y="471" type="curve"/>
      <point x="471.0" y="490"/>
      <point x="460.0" y="471"/>
      <point x="471.0" y="490" type="curve"/>
      <point x="422.0" y="514"/>
      <point x="339.0" y="538"/>
      <point x="270.0" y="538" type="curve"/>
      <point x="162.0" y="538"/>
      <point x="81.0" y="511"/>
      <point x="81.0" y="414" type="curve"/>
      <point x="81.0" y="313"/>
      <point x="168.0" y="291"/>
      <point x="275.0" y="266" type="curve"/>
      <point x="382.0" y="239"/>
      <point x="486.0" y="238"/>
      <point x="486.0" y="140" type="curve"/>
      <point x="486.0" y="43"/>
      <point x="403.0" y="17"/>
      <point x="297.0" y="17" type="curve"/>
      <point x="214.0" y="17"/>
      <point x="143.0" y="41"/>
      <point x="61.0" y="72" type="curve"/>
    </contour>
    <contour>
      <point x="271.0" y="671" type="move" name="top"/>
    </contour>
    <contour>
      <point x="313.0" y="-1" type="move" name="bottom"/>
    </contour>
  </outline>
</glyph>
<glyph name="t" format="1">
  <advance width="545.0"/>
  <unicode hex="0074"/>
  <outline>
    <contour>
      <point x="12.0" y="511"/>
      <point x="12.0" y="533"/>
      <point x="12.0" y="511" type="curve"/>
      <point x="12.0" y="511"/>
      <point x="540.0" y="511"/>
      <point x="540.0" y="511" type="curve"/>
      <point x="540.0" y="533"/>
      <point x="540.0" y="511"/>
      <point x="540.0" y="533" type="curve"/>
      <point x="540.0" y="533"/>
      <point x="12.0" y="533"/>
      <point x="12.0" y="533" type="curve"/>
    </contour>
    <contour>
      <point x="509.0" y="48"/>
      <point x="518.0" y="28"/>
      <point x="509.0" y="48" type="curve"/>
      <point x="461.0" y="29"/>
      <point x="426.0" y="17"/>
      <point x="375.0" y="17" type="curve"/>
      <point x="285.0" y="17"/>
      <point x="232.0" y="54"/>
      <point x="232.0" y="145" type="curve"/>
      <point x="232.0" y="145"/>
      <point x="232.0" y="672"/>
      <point x="232.0" y="672" type="curve"/>
      <point x="208.0" y="658"/>
      <point x="232.0" y="672"/>
      <point x="208.0" y="658" type="curve"/>
      <point x="208.0" y="658"/>
      <point x="208.0" y="143"/>
      <point x="208.0" y="143" type="curve"/>
      <point x="208.0" y="42"/>
      <point x="271.0" y="-5"/>
      <point x="373.0" y="-5" type="curve"/>
      <point x="428.0" y="-5"/>
      <point x="465.0" y="9"/>
      <point x="518.0" y="28" type="curve"/>
    </contour>
    <contour>
      <point x="386.0" y="0" type="move" name="bottom"/>
    </contour>
  </outline>
</glyph>
<glyph name="v" format="1">
  <advance width="666.0"/>
  <unicode hex="0076"/>
  <outline>
    <contour>
      <point x="34.0" y="533"/>
      <point x="61.0" y="533"/>
      <point x="34.0" y="533" type="curve"/>
      <point x="127.0" y="355"/>
      <point x="221.0" y="178"/>
      <point x="314.0" y="0" type="curve"/>
      <point x="339.0" y="0"/>
      <point x="314.0" y="0"/>
      <point x="339.0" y="0" type="curve"/>
      <point x="246.0" y="178"/>
      <point x="154.0" y="355"/>
      <point x="61.0" y="533" type="curve"/>
    </contour>
    <contour>
      <point x="614.0" y="533"/>
      <point x="639.0" y="533"/>
      <point x="614.0" y="533" type="curve"/>
      <point x="614.0" y="533"/>
      <point x="320.0" y="0"/>
      <point x="320.0" y="0" type="curve"/>
      <point x="345.0" y="0"/>
      <point x="320.0" y="0"/>
      <point x="345.0" y="0" type="curve"/>
      <point x="443.0" y="178"/>
      <point x="541.0" y="355"/>
      <point x="639.0" y="533" type="curve"/>
    </contour>
  </outline>
</glyph>
<glyph name="w" format="1">
  <advance width="1122.0"/>
  <unicode hex="0077"/>
  <outline>
    <contour>
      <point x="308.0" y="0"/>
      <point x="283.0" y="0"/>
      <point x="308.0" y="0" type="curve"/>
      <point x="400.0" y="178"/>
      <point x="491.0" y="355"/>
      <point x="582.0" y="533" type="curve"/>
      <point x="554.0" y="533"/>
      <point x="582.0" y="533"/>
      <point x="554.0" y="533" type="curve"/>
      <point x="464.0" y="355"/>
      <point x="373.0" y="178"/>
      <point x="283.0" y="0" type="curve"/>
    </contour>
    <contour>
      <point x="1063.0" y="533"/>
      <point x="1091.0" y="533"/>
      <point x="1063.0" y="533" type="curve"/>
      <point x="978.0" y="355"/>
      <point x="894.0" y="178"/>
      <point x="810.0" y="0" type="curve"/>
      <point x="835.0" y="0"/>
      <point x="810.0" y="0"/>
      <point x="835.0" y="0" type="curve"/>
      <point x="920.0" y="178"/>
      <point x="1005.0" y="355"/>
      <point x="1091.0" y="533" type="curve"/>
    </contour>
    <contour>
      <point x="562.0" y="533"/>
      <point x="589.0" y="533"/>
      <point x="562.0" y="533" type="curve"/>
      <point x="644.0" y="355"/>
      <point x="726.0" y="178"/>
      <point x="808.0" y="0" type="curve"/>
      <point x="833.0" y="0"/>
      <point x="808.0" y="0"/>
      <point x="833.0" y="0" type="curve"/>
      <point x="752.0" y="178"/>
      <point x="670.0" y="355"/>
      <point x="589.0" y="533" type="curve"/>
    </contour>
    <contour>
      <point x="36.0" y="533"/>
      <point x="64.0" y="533"/>
      <point x="36.0" y="533" type="curve"/>
      <point x="118.0" y="355"/>
      <point x="200.0" y="178"/>
      <point x="282.0" y="0" type="curve"/>
      <point x="307.0" y="0"/>
      <point x="282.0" y="0"/>
      <point x="307.0" y="0" type="curve"/>
      <point x="226.0" y="178"/>
      <point x="145.0" y="355"/>
      <point x="64.0" y="533" type="curve"/>
    </contour>
  </outline>
</glyph>
<glyph name="x" format="1">
  <advance width="657.0"/>
  <unicode hex="0078"/>
  <outline>
    <contour>
      <point x="638.0" y="0"/>
      <point x="602.0" y="0"/>
      <point x="638.0" y="0" type="curve"/>
      <point x="450.0" y="178"/>
      <point x="263.0" y="355"/>
      <point x="75.0" y="533" type="curve"/>
      <point x="42.0" y="533"/>
      <point x="75.0" y="533"/>
      <point x="42.0" y="533" type="curve"/>
      <point x="229.0" y="355"/>
      <point x="416.0" y="178"/>
      <point x="602.0" y="0" type="curve"/>
    </contour>
    <contour>
      <point x="586.0" y="533"/>
      <point x="619.0" y="533"/>
      <point x="586.0" y="533" type="curve"/>
      <point x="397.0" y="355"/>
      <point x="207.0" y="178"/>
      <point x="17.0" y="0" type="curve"/>
      <point x="53.0" y="0"/>
      <point x="17.0" y="0"/>
      <point x="53.0" y="0" type="curve"/>
      <point x="241.0" y="178"/>
      <point x="430.0" y="355"/>
      <point x="619.0" y="533" type="curve"/>
    </contour>
  </outline>
</glyph>
<glyph name="y" format="1">
  <advance width="742.0"/>
  <unicode hex="0079"/>
  <outline>
    <contour>
      <point x="375.0" y="4"/>
      <point x="352.0" y="9"/>
      <point x="375.0" y="9" type="curve"/>
      <point x="269.0" y="184"/>
      <point x="162.0" y="358"/>
      <point x="55.0" y="533" type="curve"/>
      <point x="28.0" y="533"/>
      <point x="55.0" y="533"/>
      <point x="28.0" y="533" type="curve"/>
      <point x="137.0" y="357"/>
      <point x="243.0" y="179"/>
      <point x="352.0" y="4" type="curve"/>
    </contour>
    <contour>
      <point x="176.0" y="-300"/>
      <point x="149.0" y="-300"/>
      <point x="176.0" y="-300" type="curve"/>
      <point x="359.0" y="-22"/>
      <point x="542.0" y="255"/>
      <point x="725.0" y="533" type="curve"/>
      <point x="698.0" y="533"/>
      <point x="725.0" y="533"/>
      <point x="698.0" y="533" type="curve"/>
      <point x="515.0" y="255"/>
      <point x="332.0" y="-22"/>
      <point x="149.0" y="-300" type="curve"/>
    </contour>
    <contour>
      <point x="362.0" y="670" type="move" name="top"/>
    </contour>
  </outline>
</glyph>
<glyph name="z" format="1">
  <advance width="623.0"/>
  <unicode hex="007A"/>
  <outline>
    <contour>
      <point x="55.0" y="511"/>
      <point x="55.0" y="533"/>
      <point x="55.0" y="511" type="curve"/>
      <point x="221.0" y="511"/>
      <point x="387.0" y="511"/>
      <point x="553.0" y="511" type="curve"/>
      <point x="551.0" y="514"/>
      <point x="548.0" y="515"/>
      <point x="546.0" y="518" type="curve"/>
      <point x="544.0" y="520"/>
      <point x="542.0" y="521"/>
      <point x="540.0" y="523" type="curve"/>
      <point x="536.0" y="520"/>
      <point x="533.0" y="516"/>
      <point x="529.0" y="512" type="curve"/>
      <point x="39.0" y="22" type="line"/>
      <point x="39.0" y="10"/>
      <point x="39.0" y="22"/>
      <point x="39.0" y="10" type="curve"/>
      <point x="39.0" y="0"/>
      <point x="39.0" y="10"/>
      <point x="39.0" y="0" type="curve"/>
      <point x="44.0" y="0"/>
      <point x="39.0" y="0"/>
      <point x="44.0" y="0" type="curve"/>
      <point x="589.0" y="0"/>
      <point x="407.0" y="0"/>
      <point x="589.0" y="0" type="curve"/>
      <point x="589.0" y="22"/>
      <point x="589.0" y="0"/>
      <point x="589.0" y="22" type="curve"/>
      <point x="407.0" y="22"/>
      <point x="225.0" y="22"/>
      <point x="44.0" y="22" type="curve"/>
      <point x="46.0" y="20"/>
      <point x="48.0" y="18"/>
      <point x="50.0" y="16" type="curve"/>
      <point x="52.0" y="14"/>
      <point x="56.0" y="12"/>
      <point x="58.0" y="10" type="curve"/>
      <point x="61.0" y="13"/>
      <point x="65.0" y="17"/>
      <point x="69.0" y="21" type="curve"/>
      <point x="560.0" y="511" type="line"/>
      <point x="560.0" y="523"/>
      <point x="560.0" y="511"/>
      <point x="560.0" y="523" type="curve"/>
      <point x="560.0" y="533"/>
      <point x="560.0" y="523"/>
      <point x="560.0" y="533" type="curve"/>
      <point x="553.0" y="533"/>
      <point x="560.0" y="533"/>
      <point x="553.0" y="533" type="curve"/>
      <point x="387.0" y="533"/>
      <point x="221.0" y="533"/>
      <point x="55.0" y="533" type="curve"/>
    </contour>
    <contour>
      <point x="307.0" y="669" type="move" name="top"/>
    </contour>
  </outline>
</glyph>
<glyph name="braceleft" format="1">
  <advance width="349.15"/>
  <unicode hex="007B"/>
  <outline>
    <contour>
      <point x="323.7" y="-102"/>
      <point x="323.7" y="-123"/>
      <point x="323.7" y="-102" type="curve"/>
      <point x="236.7" y="-102"/>
      <point x="177.7" y="-57"/>
      <point x="177.7" y="26" type="curve"/>
      <point x="177.7" y="85"/>
      <point x="177.7" y="144"/>
      <point x="177.7" y="203" type="curve"/>
      <point x="177.7" y="297"/>
      <point x="109.7" y="350"/>
      <point x="11.7" y="350" type="curve"/>
      <point x="11.7" y="328"/>
      <point x="11.7" y="350"/>
      <point x="11.7" y="328" type="curve"/>
      <point x="95.7" y="328"/>
      <point x="156.7" y="286"/>
      <point x="156.7" y="205" type="curve"/>
      <point x="156.7" y="146"/>
      <point x="156.7" y="86"/>
      <point x="156.7" y="27" type="curve"/>
      <point x="156.7" y="-69"/>
      <point x="223.7" y="-123"/>
      <point x="323.7" y="-123" type="curve"/>
    </contour>
    <contour>
      <point x="323.7" y="800"/>
      <point x="323.7" y="779"/>
      <point x="323.7" y="800" type="curve"/>
      <point x="222.7" y="800"/>
      <point x="155.7" y="747"/>
      <point x="155.7" y="650" type="curve"/>
      <point x="155.7" y="590"/>
      <point x="155.7" y="530"/>
      <point x="155.7" y="470" type="curve"/>
      <point x="155.7" y="390"/>
      <point x="95.7" y="350"/>
      <point x="11.7" y="350" type="curve"/>
      <point x="11.7" y="328"/>
      <point x="11.7" y="350"/>
      <point x="11.7" y="328" type="curve"/>
      <point x="108.7" y="328"/>
      <point x="176.7" y="379"/>
      <point x="176.7" y="473" type="curve"/>
      <point x="176.7" y="532"/>
      <point x="176.7" y="591"/>
      <point x="176.7" y="650" type="curve"/>
      <point x="176.7" y="733"/>
      <point x="235.7" y="779"/>
      <point x="323.7" y="779" type="curve"/>
    </contour>
  </outline>
</glyph>
<glyph name="braceright" format="1">
  <advance width="350.15"/>
  <unicode hex="007D"/>
  <outline>
    <contour>
      <point x="25.7" y="-124"/>
      <point x="25.7" y="-103"/>
      <point x="25.7" y="-124" type="curve"/>
      <point x="125.7" y="-124"/>
      <point x="192.7" y="-70"/>
      <point x="192.7" y="27" type="curve"/>
      <point x="192.7" y="86"/>
      <point x="192.7" y="146"/>
      <point x="192.7" y="205" type="curve"/>
      <point x="192.7" y="285"/>
      <point x="253.7" y="327"/>
      <point x="337.7" y="327" type="curve"/>
      <point x="337.7" y="349"/>
      <point x="337.7" y="327"/>
      <point x="337.7" y="349" type="curve"/>
      <point x="239.7" y="349"/>
      <point x="171.7" y="296"/>
      <point x="171.7" y="203" type="curve"/>
      <point x="171.7" y="144"/>
      <point x="171.7" y="85"/>
      <point x="171.7" y="26" type="curve"/>
      <point x="171.7" y="-57"/>
      <point x="112.7" y="-103"/>
      <point x="25.7" y="-103" type="curve"/>
    </contour>
    <contour>
      <point x="25.7" y="778"/>
      <point x="25.7" y="799"/>
      <point x="25.7" y="778" type="curve"/>
      <point x="112.7" y="778"/>
      <point x="170.7" y="733"/>
      <point x="170.7" y="650" type="curve"/>
      <point x="170.7" y="591"/>
      <point x="170.7" y="532"/>
      <point x="170.7" y="473" type="curve"/>
      <point x="170.7" y="378"/>
      <point x="239.7" y="327"/>
      <point x="337.7" y="327" type="curve"/>
      <point x="337.7" y="349"/>
      <point x="337.7" y="327"/>
      <point x="337.7" y="349" type="curve"/>
      <point x="252.7" y="349"/>
      <point x="191.7" y="389"/>
      <point x="191.7" y="470" type="curve"/>
      <point x="191.7" y="530"/>
      <point x="191.7" y="590"/>
      <point x="191.7" y="650" type="curve"/>
      <point x="191.7" y="746"/>
      <point x="124.7" y="799"/>
      <point x="25.7" y="799" type="curve"/>
    </contour>
  </outline>
</glyph>
<glyph name="asciitilde" format="1">
  <advance width="854.975"/>
  <unicode hex="007E"/>
  <outline>
    <contour>
      <point x="739.7" y="344"/>
      <point x="759.7" y="337"/>
      <point x="739.7" y="344" type="curve"/>
      <point x="713.7" y="289"/>
      <point x="670.7" y="241"/>
      <point x="596.7" y="241" type="curve"/>
      <point x="532.7" y="241"/>
      <point x="487.7" y="255"/>
      <point x="433.7" y="290" type="curve"/>
      <point x="378.7" y="325"/>
      <point x="335.7" y="345"/>
      <point x="271.7" y="345" type="curve"/>
      <point x="176.7" y="345"/>
      <point x="124.7" y="307"/>
      <point x="95.7" y="227" type="curve"/>
      <point x="114.7" y="219"/>
      <point x="95.7" y="227"/>
      <point x="114.7" y="219" type="curve"/>
      <point x="138.7" y="285"/>
      <point x="187.7" y="324"/>
      <point x="269.7" y="324" type="curve"/>
      <point x="326.7" y="324"/>
      <point x="365.7" y="311"/>
      <point x="412.7" y="279" type="curve"/>
      <point x="474.7" y="241"/>
      <point x="521.7" y="221"/>
      <point x="594.7" y="220" type="curve"/>
      <point x="682.7" y="220"/>
      <point x="727.7" y="267"/>
      <point x="759.7" y="337" type="curve"/>
    </contour>
  </outline>
</glyph>
<glyph name="exclamdown" format="1">
  <advance width="241.0"/>
  <unicode hex="00A1"/>
  <outline>
    <contour>
      <point x="111.0" y="318" type="line"/>
      <point x="106.0" y="-175" type="line"/>
      <point x="138.0" y="-175" type="line"/>
      <point x="134.0" y="318" type="line"/>
    </contour>
    <contour>
      <point x="125.0" y="535"/>
      <point x="115.0" y="535"/>
      <point x="101.0" y="535" type="curve"/>
      <point x="101.0" y="524"/>
      <point x="109.0" y="517"/>
      <point x="121.0" y="517" type="curve"/>
      <point x="132.0" y="517"/>
      <point x="139.0" y="524"/>
      <point x="139.0" y="535" type="curve"/>
      <point x="125.0" y="535"/>
      <point x="115.0" y="535"/>
      <point x="101.0" y="535" type="curve"/>
      <point x="101.0" y="546"/>
      <point x="109.0" y="553"/>
      <point x="121.0" y="553" type="curve"/>
      <point x="132.0" y="553"/>
      <point x="139.0" y="546"/>
      <point x="139.0" y="535" type="curve"/>
    </contour>
  </outline>
</glyph>
<glyph name="cent" format="1">
  <advance width="794.8"/>
  <unicode hex="00A2"/>
  <outline>
    <contour>
      <point x="423.8" y="-53"/>
      <point x="400.8" y="-53"/>
      <point x="423.8" y="-53" type="curve"/>
      <point x="423.8" y="-13"/>
      <point x="423.8" y="27"/>
      <point x="423.8" y="67" type="curve"/>
      <point x="400.8" y="67"/>
      <point x="423.8" y="67"/>
      <point x="400.8" y="67" type="curve"/>
      <point x="400.8" y="27"/>
      <point x="400.8" y="-13"/>
      <point x="400.8" y="-53" type="curve"/>
    </contour>
    <contour>
      <point x="427.8" y="778"/>
      <point x="450.8" y="778"/>
      <point x="427.8" y="778" type="curve"/>
      <point x="427.8" y="742"/>
      <point x="427.8" y="706"/>
      <point x="427.8" y="670" type="curve"/>
      <point x="450.8" y="670"/>
      <point x="427.8" y="670"/>
      <point x="450.8" y="670" type="curve"/>
      <point x="450.8" y="706"/>
      <point x="450.8" y="742"/>
      <point x="450.8" y="778" type="curve"/>
    </contour>
    <contour>
      <point x="731.8" y="609"/>
      <point x="718.8" y="590"/>
      <point x="731.8" y="609" type="curve"/>
      <point x="633.8" y="660"/>
      <point x="555.8" y="679"/>
      <point x="444.8" y="679" type="curve"/>
      <point x="222.8" y="679"/>
      <point x="60.8" y="574"/>
      <point x="60.8" y="366" type="curve"/>
      <point x="60.8" y="168"/>
      <point x="202.8" y="54"/>
      <point x="408.8" y="54" type="curve"/>
      <point x="533.8" y="54"/>
      <point x="621.8" y="82"/>
      <point x="728.8" y="146" type="curve"/>
      <point x="713.8" y="163"/>
      <point x="728.8" y="146"/>
      <point x="713.8" y="163" type="curve"/>
      <point x="613.8" y="100"/>
      <point x="529.8" y="76"/>
      <point x="410.8" y="76" type="curve"/>
      <point x="216.8" y="76"/>
      <point x="83.8" y="181"/>
      <point x="83.8" y="367" type="curve"/>
      <point x="83.8" y="561"/>
      <point x="235.8" y="657"/>
      <point x="442.8" y="657" type="curve"/>
      <point x="549.8" y="657"/>
      <point x="625.8" y="641"/>
      <point x="718.8" y="590" type="curve"/>
    </contour>
  </outline>
</glyph>
<glyph name="sterling" format="1">
  <advance width="659.825"/>
  <unicode hex="00A3"/>
  <outline>
    <contour>
      <point x="585.5" y="22"/>
      <point x="585.5" y="1"/>
      <point x="585.5" y="22" type="curve"/>
      <point x="403.5" y="22"/>
      <point x="222.5" y="22"/>
      <point x="41.5" y="22" type="curve"/>
      <point x="41.5" y="1"/>
      <point x="41.5" y="22"/>
      <point x="41.5" y="1" type="curve"/>
      <point x="222.5" y="1"/>
      <point x="403.5" y="1"/>
      <point x="585.5" y="1" type="curve"/>
    </contour>
    <contour>
      <point x="521.5" y="388"/>
      <point x="521.5" y="367"/>
      <point x="521.5" y="388" type="curve"/>
      <point x="377.5" y="388"/>
      <point x="232.5" y="388"/>
      <point x="88.5" y="388" type="curve"/>
      <point x="88.5" y="367"/>
      <point x="88.5" y="388"/>
      <point x="88.5" y="367" type="curve"/>
      <point x="232.5" y="367"/>
      <point x="377.5" y="367"/>
      <point x="521.5" y="367" type="curve"/>
    </contour>
    <contour>
      <point x="597.5" y="674"/>
      <point x="585.5" y="656"/>
      <point x="597.5" y="674" type="curve"/>
      <point x="535.5" y="707"/>
      <point x="487.5" y="722"/>
      <point x="417.5" y="722" type="curve"/>
      <point x="250.5" y="722"/>
      <point x="167.5" y="566"/>
      <point x="219.5" y="375" type="curve"/>
      <point x="271.5" y="184"/>
      <point x="200.5" y="22"/>
      <point x="41.5" y="22" type="curve"/>
      <point x="41.5" y="1"/>
      <point x="41.5" y="22"/>
      <point x="41.5" y="1" type="curve"/>
      <point x="223.5" y="1"/>
      <point x="297.5" y="174"/>
      <point x="242.5" y="379" type="curve"/>
      <point x="195.5" y="555"/>
      <point x="274.5" y="702"/>
      <point x="416.5" y="702" type="curve"/>
      <point x="482.5" y="702"/>
      <point x="527.5" y="690"/>
      <point x="585.5" y="656" type="curve"/>
    </contour>
  </outline>
</glyph>
<glyph name="currency" format="1">
  <advance width="739.0"/>
  <unicode hex="00A4"/>
  <outline>
    <contour>
      <point x="183.0" y="310"/>
      <point x="160.0" y="310"/>
      <point x="183.0" y="310" type="curve"/>
      <point x="183.0" y="409"/>
      <point x="265.0" y="458"/>
      <point x="372.0" y="458" type="curve"/>
      <point x="479.0" y="458"/>
      <point x="556.0" y="408"/>
      <point x="556.0" y="310" type="curve"/>
      <point x="556.0" y="211"/>
      <point x="480.0" y="156"/>
      <point x="376.0" y="156" type="curve"/>
      <point x="264.0" y="156"/>
      <point x="183.0" y="207"/>
      <point x="183.0" y="310" type="curve"/>
      <point x="160.0" y="310"/>
      <point x="183.0" y="310"/>
      <point x="160.0" y="310" type="curve"/>
      <point x="160.0" y="194"/>
      <point x="251.0" y="135"/>
      <point x="375.0" y="135" type="curve"/>
      <point x="494.0" y="135"/>
      <point x="579.0" y="198"/>
      <point x="579.0" y="311" type="curve"/>
      <point x="579.0" y="422"/>
      <point x="492.0" y="479"/>
      <point x="374.0" y="479" type="curve"/>
      <point x="251.0" y="479"/>
      <point x="160.0" y="424"/>
      <point x="160.0" y="310" type="curve"/>
    </contour>
    <contour>
      <point x="531.0" y="406" type="line"/>
      <point x="666.0" y="536" type="line"/>
      <point x="645.0" y="558" type="line"/>
      <point x="514.0" y="423" type="line"/>
    </contour>
    <contour>
      <point x="512.0" y="195" type="line"/>
      <point x="643.0" y="60" type="line"/>
      <point x="664.0" y="82" type="line"/>
      <point x="529.0" y="212" type="line"/>
    </contour>
    <contour>
      <point x="207.0" y="212" type="line"/>
      <point x="72.0" y="82" type="line"/>
      <point x="93.0" y="60" type="line"/>
      <point x="224.0" y="195" type="line"/>
    </contour>
    <contour>
      <point x="224.0" y="423" type="line"/>
      <point x="93.0" y="558" type="line"/>
      <point x="72.0" y="536" type="line"/>
      <point x="207.0" y="406" type="line"/>
    </contour>
  </outline>
</glyph>
<glyph name="yen" format="1">
  <advance width="777.0"/>
  <unicode hex="00A5"/>
  <outline>
    <contour>
      <point x="688.0" y="371"/>
      <point x="688.0" y="348"/>
      <point x="688.0" y="371" type="curve"/>
      <point x="593.0" y="371"/>
      <point x="498.0" y="371"/>
      <point x="403.0" y="371" type="curve"/>
      <point x="403.0" y="348"/>
      <point x="403.0" y="371"/>
      <point x="403.0" y="348" type="curve"/>
      <point x="498.0" y="348"/>
      <point x="593.0" y="348"/>
      <point x="688.0" y="348" type="curve"/>
    </contour>
    <contour>
      <point x="364.0" y="371"/>
      <point x="364.0" y="348"/>
      <point x="364.0" y="371" type="curve"/>
      <point x="271.0" y="371"/>
      <point x="177.0" y="371"/>
      <point x="84.0" y="371" type="curve"/>
      <point x="84.0" y="348"/>
      <point x="84.0" y="371"/>
      <point x="84.0" y="348" type="curve"/>
      <point x="177.0" y="348"/>
      <point x="271.0" y="348"/>
      <point x="364.0" y="348" type="curve"/>
    </contour>
    <contour>
      <point x="688.0" y="252"/>
      <point x="688.0" y="229"/>
      <point x="688.0" y="252" type="curve"/>
      <point x="487.0" y="252"/>
      <point x="285.0" y="252"/>
      <point x="84.0" y="252" type="curve"/>
      <point x="84.0" y="229"/>
      <point x="84.0" y="252"/>
      <point x="84.0" y="229" type="curve"/>
      <point x="285.0" y="229"/>
      <point x="487.0" y="229"/>
      <point x="688.0" y="229" type="curve"/>
    </contour>
    <contour>
      <point x="53.0" y="722"/>
      <point x="83.0" y="722"/>
      <point x="53.0" y="722" type="curve"/>
      <point x="158.0" y="594"/>
      <point x="264.0" y="465"/>
      <point x="370.0" y="337" type="curve"/>
      <point x="397.0" y="337"/>
      <point x="370.0" y="341"/>
      <point x="397.0" y="341" type="curve"/>
      <point x="292.0" y="468"/>
      <point x="188.0" y="595"/>
      <point x="83.0" y="722" type="curve"/>
    </contour>
    <contour>
      <point x="701.0" y="722"/>
      <point x="731.0" y="722"/>
      <point x="701.0" y="722" type="curve"/>
      <point x="590.0" y="595"/>
      <point x="480.0" y="468"/>
      <point x="370.0" y="341" type="curve"/>
      <point x="396.0" y="341"/>
      <point x="370.0" y="337"/>
      <point x="396.0" y="337" type="curve"/>
      <point x="508.0" y="465"/>
      <point x="619.0" y="594"/>
      <point x="731.0" y="722" type="curve"/>
    </contour>
    <contour>
      <point x="396.0" y="0"/>
      <point x="370.0" y="0"/>
      <point x="396.0" y="0" type="curve"/>
      <point x="396.0" y="115"/>
      <point x="396.0" y="231"/>
      <point x="396.0" y="346" type="curve"/>
      <point x="370.0" y="346"/>
      <point x="396.0" y="346"/>
      <point x="370.0" y="346" type="curve"/>
      <point x="370.0" y="231"/>
      <point x="370.0" y="115"/>
      <point x="370.0" y="0" type="curve"/>
    </contour>
  </outline>
</glyph>
<glyph name="brokenbar" format="1">
  <advance width="240.9"/>
  <unicode hex="00A6"/>
  <outline>
    <contour>
      <point x="132.0" y="-300"/>
      <point x="109.0" y="-300"/>
      <point x="132.0" y="-300" type="curve"/>
      <point x="132.0" y="-176"/>
      <point x="132.0" y="-52"/>
      <point x="132.0" y="72" type="curve"/>
      <point x="109.0" y="72"/>
      <point x="132.0" y="72"/>
      <point x="109.0" y="72" type="curve"/>
      <point x="109.0" y="-52"/>
      <point x="109.0" y="-176"/>
      <point x="109.0" y="-300" type="curve"/>
    </contour>
    <contour>
      <point x="132.0" y="428"/>
      <point x="109.0" y="428"/>
      <point x="132.0" y="428" type="curve"/>
      <point x="132.0" y="552"/>
      <point x="132.0" y="676"/>
      <point x="132.0" y="800" type="curve"/>
      <point x="109.0" y="800"/>
      <point x="132.0" y="800"/>
      <point x="109.0" y="800" type="curve"/>
      <point x="109.0" y="676"/>
      <point x="109.0" y="552"/>
      <point x="109.0" y="428" type="curve"/>
    </contour>
  </outline>
</glyph>
<glyph name="dieresis" format="1">
  <advance width="461.0"/>
  <unicode hex="00A8"/>
  <outline>
    <contour>
      <point x="124.0" y="669"/>
      <point x="134.0" y="669"/>
      <point x="148.0" y="669" type="curve"/>
      <point x="148.0" y="680"/>
      <point x="140.0" y="687"/>
      <point x="128.0" y="687" type="curve"/>
      <point x="117.0" y="687"/>
      <point x="110.0" y="680"/>
      <point x="110.0" y="669" type="curve"/>
      <point x="124.0" y="669"/>
      <point x="134.0" y="669"/>
      <point x="148.0" y="669" type="curve"/>
      <point x="148.0" y="658"/>
      <point x="140.0" y="651"/>
      <point x="128.0" y="651" type="curve"/>
      <point x="117.0" y="651"/>
      <point x="110.0" y="658"/>
      <point x="110.0" y="669" type="curve"/>
    </contour>
    <contour>
      <point x="286.0" y="669"/>
      <point x="296.0" y="669"/>
      <point x="310.0" y="669" type="curve"/>
      <point x="310.0" y="680"/>
      <point x="302.0" y="687"/>
      <point x="290.0" y="687" type="curve"/>
      <point x="279.0" y="687"/>
      <point x="272.0" y="680"/>
      <point x="272.0" y="669" type="curve"/>
      <point x="286.0" y="669"/>
      <point x="296.0" y="669"/>
      <point x="310.0" y="669" type="curve"/>
      <point x="310.0" y="658"/>
      <point x="302.0" y="651"/>
      <point x="290.0" y="651" type="curve"/>
      <point x="279.0" y="651"/>
      <point x="272.0" y="658"/>
      <point x="272.0" y="669" type="curve"/>
    </contour>
    <contour>
      <point x="209.0" y="651" type="move" name="_top"/>
    </contour>
  </outline>
</glyph>
<glyph name="copyright" format="1">
  <advance width="985.25"/>
  <unicode hex="00A9"/>
  <outline>
    <contour>
      <point x="96.7" y="319"/>
      <point x="73.7" y="319"/>
      <point x="96.7" y="319" type="curve"/>
      <point x="96.7" y="522"/>
      <point x="276.7" y="625"/>
      <point x="497.7" y="625" type="curve"/>
      <point x="712.7" y="625"/>
      <point x="888.7" y="519"/>
      <point x="888.7" y="318" type="curve"/>
      <point x="888.7" y="122"/>
      <point x="716.7" y="17"/>
      <point x="505.7" y="17" type="curve"/>
      <point x="283.7" y="17"/>
      <point x="96.7" y="115"/>
      <point x="96.7" y="319" type="curve"/>
      <point x="73.7" y="319"/>
      <point x="96.7" y="319"/>
      <point x="73.7" y="319" type="curve"/>
      <point x="73.7" y="104"/>
      <point x="267.7" y="-4"/>
      <point x="504.7" y="-4" type="curve"/>
      <point x="730.7" y="-4"/>
      <point x="911.7" y="109"/>
      <point x="911.7" y="319" type="curve"/>
      <point x="911.7" y="532"/>
      <point x="726.7" y="645"/>
      <point x="497.7" y="645" type="curve"/>
      <point x="264.7" y="645"/>
      <point x="73.7" y="535"/>
      <point x="73.7" y="319" type="curve"/>
    </contour>
    <contour>
      <point x="654.7" y="464"/>
      <point x="647.7" y="447"/>
      <point x="654.7" y="464" type="curve"/>
      <point x="602.7" y="488"/>
      <point x="562.7" y="496"/>
      <point x="505.7" y="496" type="curve"/>
      <point x="380.7" y="496"/>
      <point x="288.7" y="436"/>
      <point x="288.7" y="319" type="curve"/>
      <point x="288.7" y="207"/>
      <point x="371.7" y="146"/>
      <point x="489.7" y="146" type="curve"/>
      <point x="560.7" y="146"/>
      <point x="611.7" y="156"/>
      <point x="672.7" y="193" type="curve"/>
      <point x="657.7" y="209"/>
      <point x="672.7" y="193"/>
      <point x="657.7" y="209" type="curve"/>
      <point x="602.7" y="175"/>
      <point x="555.7" y="166"/>
      <point x="490.7" y="166" type="curve"/>
      <point x="385.7" y="166"/>
      <point x="311.7" y="220"/>
      <point x="311.7" y="320" type="curve"/>
      <point x="311.7" y="423"/>
      <point x="392.7" y="475"/>
      <point x="504.7" y="475" type="curve"/>
      <point x="557.7" y="475"/>
      <point x="591.7" y="468"/>
      <point x="647.7" y="447" type="curve"/>
    </contour>
  </outline>
</glyph>
<glyph name="ordfeminine" format="1">
  <advance width="487.0"/>
  <unicode hex="00AA"/>
  <outline>
    <contour>
      <point x="378.0" y="426"/>
      <point x="385.0" y="426"/>
      <point x="394.0" y="426" type="curve"/>
      <point x="394.0" y="520"/>
      <point x="394.0" y="586"/>
      <point x="394.0" y="680" type="curve"/>
      <point x="394.0" y="751"/>
      <point x="323.0" y="765"/>
      <point x="241.0" y="765" type="curve"/>
      <point x="179.0" y="765"/>
      <point x="120.0" y="743"/>
      <point x="84.0" y="713" type="curve"/>
      <point x="87.0" y="706"/>
      <point x="89.0" y="702"/>
      <point x="92.0" y="695" type="curve"/>
      <point x="126.0" y="720"/>
      <point x="180.0" y="743"/>
      <point x="238.0" y="743" type="curve"/>
      <point x="308.0" y="743"/>
      <point x="369.0" y="733"/>
      <point x="369.0" y="673" type="curve"/>
      <point x="369.0" y="582"/>
      <point x="369.0" y="517"/>
      <point x="369.0" y="426" type="curve"/>
    </contour>
    <contour>
      <point x="381.0" y="618"/>
      <point x="380.0" y="623"/>
      <point x="380.0" y="630" type="curve"/>
      <point x="313.0" y="623"/>
      <point x="266.0" y="623"/>
      <point x="199.0" y="616" type="curve"/>
      <point x="127.0" y="609"/>
      <point x="71.0" y="580"/>
      <point x="71.0" y="513" type="curve"/>
      <point x="71.0" y="445"/>
      <point x="131.0" y="418"/>
      <point x="207.0" y="418" type="curve"/>
      <point x="287.0" y="418"/>
      <point x="347.0" y="463"/>
      <point x="387.0" y="521" type="curve"/>
      <point x="383.0" y="525"/>
      <point x="379.0" y="529"/>
      <point x="375.0" y="533" type="curve"/>
      <point x="339.0" y="482"/>
      <point x="284.0" y="440"/>
      <point x="212.0" y="440" type="curve"/>
      <point x="148.0" y="440"/>
      <point x="95.0" y="458"/>
      <point x="95.0" y="515" type="curve"/>
      <point x="95.0" y="568"/>
      <point x="140.0" y="590"/>
      <point x="198.0" y="596" type="curve"/>
      <point x="265.0" y="603"/>
      <point x="314.0" y="604"/>
      <point x="381.0" y="611" type="curve"/>
    </contour>
  </outline>
</glyph>
<glyph name="guillemotleft" format="1">
  <advance width="740.05"/>
  <unicode hex="00AB"/>
  <outline>
    <contour>
      <point x="350.65" y="397"/>
      <point x="350.65" y="374"/>
      <point x="350.65" y="397" type="curve"/>
      <point x="51.65" y="288" type="line"/>
      <point x="51.65" y="265"/>
      <point x="51.65" y="288"/>
      <point x="51.65" y="265" type="curve"/>
      <point x="350.65" y="374" type="line"/>
    </contour>
    <contour>
      <point x="350.65" y="179"/>
      <point x="350.65" y="156"/>
      <point x="350.65" y="179" type="curve"/>
      <point x="51.65" y="288" type="line"/>
      <point x="51.65" y="265"/>
      <point x="51.65" y="288"/>
      <point x="51.65" y="265" type="curve"/>
      <point x="350.65" y="156" type="line"/>
    </contour>
    <contour>
      <point x="656.65" y="397"/>
      <point x="656.65" y="374"/>
      <point x="656.65" y="397" type="curve"/>
      <point x="357.65" y="288" type="line"/>
      <point x="357.65" y="265"/>
      <point x="357.65" y="288"/>
      <point x="357.65" y="265" type="curve"/>
      <point x="656.65" y="374" type="line"/>
    </contour>
    <contour>
      <point x="656.65" y="179"/>
      <point x="656.65" y="156"/>
      <point x="656.65" y="179" type="curve"/>
      <point x="357.65" y="288" type="line"/>
      <point x="357.65" y="265"/>
      <point x="357.65" y="288"/>
      <point x="357.65" y="265" type="curve"/>
      <point x="656.65" y="156" type="line"/>
    </contour>
  </outline>
</glyph>
<glyph name="logicalnot" format="1">
  <advance width="818.0"/>
  <unicode hex="00AC"/>
  <outline>
    <contour>
      <point x="95.0" y="297"/>
      <point x="95.0" y="321"/>
      <point x="95.0" y="297" type="curve"/>
      <point x="95.0" y="297"/>
      <point x="720.0" y="297"/>
      <point x="720.0" y="297" type="curve"/>
      <point x="720.0" y="321"/>
      <point x="720.0" y="297"/>
      <point x="720.0" y="321" type="curve"/>
      <point x="720.0" y="321"/>
      <point x="95.0" y="321"/>
      <point x="95.0" y="321" type="curve"/>
    </contour>
    <contour>
      <point x="720.0" y="153"/>
      <point x="696.0" y="153"/>
      <point x="720.0" y="153" type="curve"/>
      <point x="720.0" y="153"/>
      <point x="720.0" y="321"/>
      <point x="720.0" y="321" type="curve"/>
      <point x="696.0" y="321"/>
      <point x="720.0" y="321"/>
      <point x="696.0" y="321" type="curve"/>
      <point x="696.0" y="321"/>
      <point x="696.0" y="153"/>
      <point x="696.0" y="153" type="curve"/>
    </contour>
  </outline>
</glyph>
<glyph name="registered" format="1">
  <advance width="986.0"/>
  <unicode hex="00AE"/>
  <outline>
    <contour>
      <point x="97.0" y="319"/>
      <point x="74.0" y="319"/>
      <point x="97.0" y="319" type="curve"/>
      <point x="97.0" y="522"/>
      <point x="277.0" y="625"/>
      <point x="498.0" y="625" type="curve"/>
      <point x="713.0" y="625"/>
      <point x="889.0" y="519"/>
      <point x="889.0" y="318" type="curve"/>
      <point x="889.0" y="122"/>
      <point x="717.0" y="17"/>
      <point x="506.0" y="17" type="curve"/>
      <point x="284.0" y="17"/>
      <point x="97.0" y="115"/>
      <point x="97.0" y="319" type="curve"/>
      <point x="74.0" y="319"/>
      <point x="97.0" y="319"/>
      <point x="74.0" y="319" type="curve"/>
      <point x="74.0" y="104"/>
      <point x="268.0" y="-4"/>
      <point x="505.0" y="-4" type="curve"/>
      <point x="731.0" y="-4"/>
      <point x="912.0" y="109"/>
      <point x="912.0" y="319" type="curve"/>
      <point x="912.0" y="532"/>
      <point x="727.0" y="645"/>
      <point x="498.0" y="645" type="curve"/>
      <point x="265.0" y="645"/>
      <point x="74.0" y="535"/>
      <point x="74.0" y="319" type="curve"/>
    </contour>
    <contour>
      <point x="513.0" y="309"/>
      <point x="543.0" y="309"/>
      <point x="515.0" y="309" type="curve"/>
      <point x="632.0" y="149" type="line"/>
      <point x="647.0" y="149"/>
      <point x="639.0" y="149"/>
      <point x="656.0" y="149" type="curve"/>
      <point x="541.0" y="309" type="line"/>
    </contour>
    <contour>
      <point x="398.0" y="149"/>
      <point x="395.0" y="149"/>
      <point x="407.0" y="149" type="curve"/>
      <point x="407.0" y="256"/>
      <point x="407.0" y="384"/>
      <point x="407.0" y="491" type="curve"/>
      <point x="394.0" y="491"/>
      <point x="399.0" y="491"/>
      <point x="384.0" y="491" type="curve"/>
      <point x="384.0" y="384"/>
      <point x="384.0" y="256"/>
      <point x="384.0" y="149" type="curve"/>
    </contour>
    <contour>
      <point x="398.0" y="295"/>
      <point x="398.0" y="316"/>
      <point x="398.0" y="295" type="curve"/>
      <point x="426.0" y="295"/>
      <point x="455.0" y="295"/>
      <point x="483.0" y="295" type="curve"/>
      <point x="568.0" y="295"/>
      <point x="634.0" y="314"/>
      <point x="634.0" y="392" type="curve"/>
      <point x="634.0" y="463"/>
      <point x="572.0" y="491"/>
      <point x="493.0" y="491" type="curve"/>
      <point x="465.0" y="491"/>
      <point x="436.0" y="491"/>
      <point x="407.0" y="491" type="curve"/>
      <point x="384.0" y="470"/>
      <point x="407.0" y="491"/>
      <point x="384.0" y="470" type="curve"/>
      <point x="419.0" y="470"/>
      <point x="454.0" y="470"/>
      <point x="489.0" y="470" type="curve"/>
      <point x="556.0" y="470"/>
      <point x="611.0" y="450"/>
      <point x="611.0" y="390" type="curve"/>
      <point x="611.0" y="327"/>
      <point x="556.0" y="316"/>
      <point x="486.0" y="316" type="curve"/>
      <point x="457.0" y="316"/>
      <point x="427.0" y="316"/>
      <point x="398.0" y="316" type="curve"/>
    </contour>
  </outline>
</glyph>
<glyph name="degree" format="1">
  <advance width="584.25"/>
  <unicode hex="00B0"/>
  <outline>
    <contour>
      <point x="509.075" y="431" type="curve"/>
      <point x="509.075" y="560"/>
      <point x="422.075" y="637"/>
      <point x="291.075" y="637" type="curve"/>
      <point x="161.075" y="637"/>
      <point x="76.075" y="560"/>
      <point x="76.075" y="433" type="curve"/>
      <point x="98.075" y="433"/>
      <point x="76.075" y="433"/>
      <point x="98.075" y="433" type="curve"/>
      <point x="98.075" y="547"/>
      <point x="173.075" y="617"/>
      <point x="289.075" y="617" type="curve"/>
      <point x="407.075" y="617"/>
      <point x="487.075" y="547"/>
      <point x="487.075" y="431" type="curve"/>
      <point x="487.075" y="312"/>
      <point x="411.075" y="238"/>
      <point x="292.075" y="238" type="curve"/>
      <point x="173.075" y="238"/>
      <point x="98.075" y="314"/>
      <point x="98.075" y="433" type="curve"/>
      <point x="76.075" y="433"/>
      <point x="98.075" y="433"/>
      <point x="76.075" y="433" type="curve"/>
      <point x="76.075" y="301"/>
      <point x="159.075" y="217"/>
      <point x="291.075" y="217" type="curve"/>
      <point x="424.075" y="217"/>
      <point x="509.075" y="299"/>
    </contour>
  </outline>
</glyph>
<glyph name="plusminus" format="1">
  <advance width="769.0"/>
  <unicode hex="00B1"/>
  <outline>
    <contour>
      <point x="72.0" y="18" type="line"/>
      <point x="697.0" y="18" type="line"/>
      <point x="697.0" y="42" type="line"/>
      <point x="72.0" y="42" type="line"/>
    </contour>
    <contour>
      <point x="72.0" y="297"/>
      <point x="72.0" y="321"/>
      <point x="72.0" y="297" type="curve"/>
      <point x="72.0" y="297"/>
      <point x="697.0" y="297"/>
      <point x="697.0" y="297" type="curve"/>
      <point x="697.0" y="321"/>
      <point x="697.0" y="297"/>
      <point x="697.0" y="321" type="curve"/>
      <point x="697.0" y="321"/>
      <point x="72.0" y="321"/>
      <point x="72.0" y="321" type="curve"/>
    </contour>
    <contour>
      <point x="391.0" y="18"/>
      <point x="367.0" y="18"/>
      <point x="391.0" y="18" type="curve"/>
      <point x="391.0" y="18"/>
      <point x="391.0" y="588"/>
      <point x="391.0" y="588" type="curve"/>
      <point x="367.0" y="588"/>
      <point x="391.0" y="588"/>
      <point x="367.0" y="588" type="curve"/>
      <point x="367.0" y="588"/>
      <point x="367.0" y="18"/>
      <point x="367.0" y="18" type="curve"/>
    </contour>
  </outline>
</glyph>
<glyph name="twosuperior" format="1">
  <advance width="567.0"/>
  <unicode hex="00B2"/>
  <outline>
    <contour>
      <point x="68.0" y="298"/>
      <point x="68.0" y="318"/>
      <point x="68.0" y="297" type="curve"/>
      <point x="216.0" y="297"/>
      <point x="352.0" y="297"/>
      <point x="489.0" y="297" type="curve"/>
      <point x="489.0" y="310"/>
      <point x="489.0" y="305"/>
      <point x="489.0" y="318" type="curve"/>
      <point x="356.0" y="318"/>
      <point x="202.0" y="318"/>
      <point x="68.0" y="318" type="curve"/>
    </contour>
    <contour>
      <point x="125.0" y="615"/>
      <point x="107.0" y="627"/>
      <point x="125.0" y="615" type="curve"/>
      <point x="167.0" y="667"/>
      <point x="219.0" y="690"/>
      <point x="292.0" y="690" type="curve"/>
      <point x="374.0" y="690"/>
      <point x="439.0" y="664"/>
      <point x="439.0" y="592" type="curve"/>
      <point x="439.0" y="529"/>
      <point x="387.0" y="507"/>
      <point x="333.0" y="472" type="curve"/>
      <point x="244.0" y="421"/>
      <point x="156.0" y="369"/>
      <point x="68.0" y="318" type="curve"/>
      <point x="78.0" y="298"/>
      <point x="68.0" y="318"/>
      <point x="78.0" y="298" type="curve"/>
      <point x="168.0" y="350"/>
      <point x="258.0" y="403"/>
      <point x="348.0" y="455" type="curve"/>
      <point x="407.0" y="495"/>
      <point x="461.0" y="523"/>
      <point x="461.0" y="593" type="curve"/>
      <point x="461.0" y="677"/>
      <point x="387.0" y="711"/>
      <point x="293.0" y="711" type="curve"/>
      <point x="212.0" y="711"/>
      <point x="151.0" y="689"/>
      <point x="107.0" y="627" type="curve"/>
    </contour>
    <contour>
      <point x="306.0" y="709" type="move" name="_top"/>
    </contour>
    <contour>
      <point x="269.0" y="296" type="move" name="_bottom"/>
    </contour>
  </outline>
</glyph>
<glyph name="threesuperior" format="1">
  <advance width="499.0"/>
  <unicode hex="00B3"/>
  <outline>
    <contour>
      <point x="96.0" y="644"/>
      <point x="82.0" y="658"/>
      <point x="96.0" y="644" type="curve"/>
      <point x="137.0" y="673"/>
      <point x="182.0" y="690"/>
      <point x="233.0" y="690" type="curve"/>
      <point x="315.0" y="690"/>
      <point x="384.0" y="676"/>
      <point x="384.0" y="604" type="curve"/>
      <point x="384.0" y="515"/>
      <point x="276.0" y="521"/>
      <point x="173.0" y="515" type="curve"/>
      <point x="173.0" y="497"/>
      <point x="173.0" y="515"/>
      <point x="173.0" y="497" type="curve"/>
      <point x="294.0" y="498"/>
      <point x="407.0" y="502"/>
      <point x="407.0" y="606" type="curve"/>
      <point x="407.0" y="689"/>
      <point x="330.0" y="710"/>
      <point x="236.0" y="710" type="curve"/>
      <point x="178.0" y="710"/>
      <point x="124.0" y="692"/>
      <point x="82.0" y="658" type="curve"/>
    </contour>
    <contour>
      <point x="73.0" y="325"/>
      <point x="85.0" y="340"/>
      <point x="73.0" y="325" type="curve"/>
      <point x="122.0" y="302"/>
      <point x="170.0" y="292"/>
      <point x="223.0" y="292" type="curve"/>
      <point x="336.0" y="289"/>
      <point x="431.0" y="308"/>
      <point x="428.0" y="404" type="curve"/>
      <point x="428.0" y="518"/>
      <point x="303.0" y="506"/>
      <point x="173.0" y="508" type="curve"/>
      <point x="173.0" y="493"/>
      <point x="173.0" y="508"/>
      <point x="173.0" y="493" type="curve"/>
      <point x="293.0" y="488"/>
      <point x="405.0" y="498"/>
      <point x="405.0" y="403" type="curve"/>
      <point x="405.0" y="321"/>
      <point x="324.0" y="310"/>
      <point x="225.0" y="312" type="curve"/>
      <point x="176.0" y="312"/>
      <point x="130.0" y="320"/>
      <point x="85.0" y="340" type="curve"/>
    </contour>
    <contour>
      <point x="244.0" y="709" type="move" name="_top"/>
    </contour>
    <contour>
      <point x="236.0" y="291" type="move" name="_bottom"/>
    </contour>
  </outline>
</glyph>
<glyph name="acute" format="1">
  <advance width="308.1"/>
  <unicode hex="00B4"/>
  <outline>
    <contour>
      <point x="52.0" y="591" type="line"/>
      <point x="250.0" y="757" type="line"/>
      <point x="210.0" y="757" type="line"/>
      <point x="22.0" y="591" type="line"/>
    </contour>
    <contour>
      <point x="37.0" y="591" type="move" name="_top"/>
    </contour>
  </outline>
</glyph>
<glyph name="paragraph" format="1">
  <advance width="861.0"/>
  <unicode hex="00B6"/>
  <outline>
    <contour>
      <point x="549.0" y="700"/>
      <point x="549.0" y="722"/>
      <point x="549.0" y="700" type="curve"/>
      <point x="748.0" y="700"/>
      <point x="549.0" y="700"/>
      <point x="748.0" y="700" type="curve"/>
      <point x="748.0" y="722"/>
      <point x="748.0" y="700"/>
      <point x="748.0" y="722" type="curve"/>
      <point x="682.0" y="722"/>
      <point x="615.0" y="722"/>
      <point x="549.0" y="722" type="curve"/>
    </contour>
    <contour>
      <point x="543.0" y="346"/>
      <point x="551.0" y="326"/>
      <point x="543.0" y="346" type="curve"/>
      <point x="471.0" y="318"/>
      <point x="415.0" y="302"/>
      <point x="337.0" y="302" type="curve"/>
      <point x="191.0" y="302"/>
      <point x="73.0" y="360"/>
      <point x="73.0" y="493" type="curve"/>
      <point x="73.0" y="642"/>
      <point x="209.0" y="700"/>
      <point x="376.0" y="700" type="curve"/>
      <point x="432.0" y="700"/>
      <point x="489.0" y="700"/>
      <point x="545.0" y="700" type="curve"/>
      <point x="545.0" y="722"/>
      <point x="545.0" y="700"/>
      <point x="545.0" y="722" type="curve"/>
      <point x="488.0" y="722"/>
      <point x="430.0" y="722"/>
      <point x="373.0" y="722" type="curve"/>
      <point x="194.0" y="722"/>
      <point x="48.0" y="654"/>
      <point x="48.0" y="494" type="curve"/>
      <point x="48.0" y="347"/>
      <point x="177.0" y="283"/>
      <point x="340.0" y="280" type="curve"/>
      <point x="416.0" y="280"/>
      <point x="480.0" y="299"/>
      <point x="551.0" y="326" type="curve"/>
    </contour>
    <contour>
      <point x="563.0" y="0"/>
      <point x="538.0" y="0"/>
      <point x="563.0" y="0" type="curve"/>
      <point x="563.0" y="241"/>
      <point x="563.0" y="481"/>
      <point x="563.0" y="722" type="curve"/>
      <point x="538.0" y="722"/>
      <point x="563.0" y="722"/>
      <point x="538.0" y="722" type="curve"/>
      <point x="538.0" y="481"/>
      <point x="538.0" y="241"/>
      <point x="538.0" y="0" type="curve"/>
    </contour>
    <contour>
      <point x="760.0" y="0"/>
      <point x="735.0" y="0"/>
      <point x="760.0" y="0" type="curve"/>
      <point x="760.0" y="241"/>
      <point x="760.0" y="481"/>
      <point x="760.0" y="722" type="curve"/>
      <point x="735.0" y="722"/>
      <point x="760.0" y="722"/>
      <point x="735.0" y="722" type="curve"/>
      <point x="735.0" y="481"/>
      <point x="735.0" y="241"/>
      <point x="735.0" y="0" type="curve"/>
    </contour>
  </outline>
</glyph>
<glyph name="periodcentered" format="1">
  <advance width="210.0"/>
  <unicode hex="00B7"/>
  <outline>
    <contour>
      <point x="100.0" y="440"/>
      <point x="110.0" y="440"/>
      <point x="124.0" y="440" type="curve"/>
      <point x="124.0" y="451"/>
      <point x="116.0" y="458"/>
      <point x="104.0" y="458" type="curve"/>
      <point x="93.0" y="458"/>
      <point x="86.0" y="451"/>
      <point x="86.0" y="440" type="curve"/>
      <point x="100.0" y="440"/>
      <point x="110.0" y="440"/>
      <point x="124.0" y="440" type="curve"/>
      <point x="124.0" y="429"/>
      <point x="116.0" y="422"/>
      <point x="104.0" y="422" type="curve"/>
      <point x="93.0" y="422"/>
      <point x="86.0" y="429"/>
      <point x="86.0" y="440" type="curve"/>
    </contour>
  </outline>
</glyph>
<glyph name="cedilla" format="1">
  <advance width="362.0"/>
  <unicode hex="00B8"/>
  <outline>
    <contour>
      <point x="205.0" y="17"/>
      <point x="222.0" y="3"/>
      <point x="205.0" y="17" type="curve"/>
      <point x="185.0" y="-10"/>
      <point x="165.0" y="-36"/>
      <point x="145.0" y="-63" type="curve"/>
      <point x="161.0" y="-80"/>
      <point x="145.0" y="-63"/>
      <point x="161.0" y="-80" type="curve"/>
      <point x="181.0" y="-52"/>
      <point x="202.0" y="-25"/>
      <point x="222.0" y="3" type="curve"/>
    </contour>
    <contour>
      <point x="161.0" y="-81"/>
      <point x="146.0" y="-64"/>
      <point x="161.0" y="-81" type="curve"/>
      <point x="183.0" y="-70"/>
      <point x="201.0" y="-68"/>
      <point x="226.0" y="-68" type="curve"/>
      <point x="269.0" y="-68"/>
      <point x="301.0" y="-85"/>
      <point x="301.0" y="-125" type="curve"/>
      <point x="301.0" y="-169"/>
      <point x="259.0" y="-180"/>
      <point x="208.0" y="-180" type="curve"/>
      <point x="172.0" y="-180"/>
      <point x="145.0" y="-178"/>
      <point x="112.0" y="-163" type="curve"/>
      <point x="103.0" y="-180"/>
      <point x="112.0" y="-163"/>
      <point x="103.0" y="-180" type="curve"/>
      <point x="139.0" y="-195"/>
      <point x="168.0" y="-201"/>
      <point x="207.0" y="-201" type="curve"/>
      <point x="272.0" y="-201"/>
      <point x="324.0" y="-183"/>
      <point x="324.0" y="-125" type="curve"/>
      <point x="324.0" y="-73"/>
      <point x="283.0" y="-47"/>
      <point x="228.0" y="-47" type="curve"/>
      <point x="197.0" y="-47"/>
      <point x="175.0" y="-53"/>
      <point x="146.0" y="-64" type="curve"/>
    </contour>
    <contour>
      <point x="220.0" y="3" type="move" name="_bottom"/>
    </contour>
  </outline>
</glyph>
<glyph name="onesuperior" format="1">
  <advance width="332.0"/>
  <unicode hex="00B9"/>
  <outline>
    <contour>
      <point x="44.0" y="578" type="line"/>
      <point x="234.0" y="695" type="line"/>
      <point x="211.0" y="705" type="line"/>
      <point x="34.0" y="596" type="line"/>
    </contour>
    <contour>
      <point x="230.0" y="297"/>
      <point x="220.0" y="297"/>
      <point x="234.0" y="297" type="curve"/>
      <point x="234.0" y="705" type="line"/>
      <point x="211.0" y="705" type="line"/>
      <point x="211.0" y="297" type="line"/>
    </contour>
    <contour>
      <point x="223.0" y="702" type="move" name="_top"/>
    </contour>
    <contour>
      <point x="221.0" y="297" type="move" name="_bottom"/>
    </contour>
  </outline>
</glyph>
<glyph name="ordmasculine" format="1">
  <advance width="524.0"/>
  <unicode hex="00BA"/>
  <outline>
    <contour>
      <point x="88.0" y="599" type="curve"/>
      <point x="88.0" y="696"/>
      <point x="160.0" y="748"/>
      <point x="262.0" y="748" type="curve"/>
      <point x="364.0" y="748"/>
      <point x="435.0" y="694"/>
      <point x="435.0" y="597" type="curve"/>
      <point x="435.0" y="498"/>
      <point x="368.0" y="438"/>
      <point x="267.0" y="438" type="curve"/>
      <point x="161.0" y="438"/>
      <point x="88.0" y="497"/>
      <point x="88.0" y="599" type="curve"/>
      <point x="79.0" y="599"/>
      <point x="73.0" y="599"/>
      <point x="64.0" y="599" type="curve"/>
      <point x="64.0" y="483"/>
      <point x="146.0" y="416"/>
      <point x="266.0" y="416" type="curve"/>
      <point x="382.0" y="416"/>
      <point x="460.0" y="484"/>
      <point x="460.0" y="597" type="curve"/>
      <point x="460.0" y="708"/>
      <point x="379.0" y="769"/>
      <point x="263.0" y="769" type="curve"/>
      <point x="147.0" y="769"/>
      <point x="64.0" y="709"/>
      <point x="64.0" y="599" type="curve"/>
      <point x="73.0" y="599"/>
      <point x="79.0" y="599"/>
    </contour>
  </outline>
</glyph>
<glyph name="guillemotright" format="1">
  <advance width="758.05"/>
  <unicode hex="00BB"/>
  <outline>
    <contour>
      <point x="401.3" y="397"/>
      <point x="401.3" y="374"/>
      <point x="401.3" y="397" type="curve"/>
      <point x="700.3" y="288" type="line"/>
      <point x="700.3" y="265"/>
      <point x="700.3" y="288"/>
      <point x="700.3" y="265" type="curve"/>
      <point x="401.3" y="374" type="line"/>
    </contour>
    <contour>
      <point x="401.3" y="179"/>
      <point x="401.3" y="156"/>
      <point x="401.3" y="179" type="curve"/>
      <point x="700.3" y="288" type="line"/>
      <point x="700.3" y="265"/>
      <point x="700.3" y="288"/>
      <point x="700.3" y="265" type="curve"/>
      <point x="401.3" y="156" type="line"/>
    </contour>
    <contour>
      <point x="95.3" y="397"/>
      <point x="95.3" y="374"/>
      <point x="95.3" y="397" type="curve"/>
      <point x="394.3" y="288" type="line"/>
      <point x="394.3" y="265"/>
      <point x="394.3" y="288"/>
      <point x="394.3" y="265" type="curve"/>
      <point x="95.3" y="374" type="line"/>
    </contour>
    <contour>
      <point x="95.3" y="179"/>
      <point x="95.3" y="156"/>
      <point x="95.3" y="179" type="curve"/>
      <point x="394.3" y="288" type="line"/>
      <point x="394.3" y="265"/>
      <point x="394.3" y="288"/>
      <point x="394.3" y="265" type="curve"/>
      <point x="95.3" y="156" type="line"/>
    </contour>
  </outline>
</glyph>
<glyph name="onequarter" format="1">
  <advance width="1301.0"/>
  <unicode hex="00BC"/>
  <outline>
    <contour>
      <point x="404.0" y="-93" type="line"/>
      <point x="979.0" y="757" type="line"/>
      <point x="952.0" y="757" type="line"/>
      <point x="377.0" y="-93" type="line"/>
    </contour>
    <contour>
      <point x="45.0" y="633" type="line"/>
      <point x="235.0" y="750" type="line"/>
      <point x="212.0" y="760" type="line"/>
      <point x="35.0" y="651" type="line"/>
    </contour>
    <contour>
      <point x="231.0" y="352"/>
      <point x="221.0" y="352"/>
      <point x="235.0" y="352" type="curve"/>
      <point x="235.0" y="760" type="line"/>
      <point x="212.0" y="760" type="line"/>
      <point x="212.0" y="352" type="line"/>
    </contour>
    <contour>
      <point x="1263.0" y="32" type="line"/>
      <point x="789.0" y="32" type="line"/>
      <point x="789.0" y="12" type="line"/>
      <point x="1263.0" y="12" type="line"/>
    </contour>
    <contour>
      <point x="803.0" y="14" type="line"/>
      <point x="1129.0" y="318" type="line"/>
      <point x="1106.0" y="327" type="line"/>
      <point x="789.0" y="32" type="line"/>
    </contour>
    <contour>
      <point x="1129.0" y="-107" type="line"/>
      <point x="1129.0" y="327" type="line"/>
      <point x="1106.0" y="327" type="line"/>
      <point x="1106.0" y="-107" type="line"/>
    </contour>
  </outline>
</glyph>
<glyph name="onehalf" format="1">
  <advance width="1366.0"/>
  <unicode hex="00BD"/>
  <outline>
    <contour>
      <point x="404.0" y="-93" type="line"/>
      <point x="979.0" y="757" type="line"/>
      <point x="952.0" y="757" type="line"/>
      <point x="377.0" y="-93" type="line"/>
    </contour>
    <contour>
      <point x="45.0" y="633" type="line"/>
      <point x="235.0" y="750" type="line"/>
      <point x="212.0" y="760" type="line"/>
      <point x="35.0" y="651" type="line"/>
    </contour>
    <contour>
      <point x="231.0" y="352"/>
      <point x="221.0" y="352"/>
      <point x="235.0" y="352" type="curve"/>
      <point x="235.0" y="760" type="line"/>
      <point x="212.0" y="760" type="line"/>
      <point x="212.0" y="352" type="line"/>
    </contour>
    <contour>
      <point x="899.0" y="-97"/>
      <point x="899.0" y="-77"/>
      <point x="899.0" y="-98" type="curve"/>
      <point x="1047.0" y="-98"/>
      <point x="1183.0" y="-98"/>
      <point x="1320.0" y="-98" type="curve"/>
      <point x="1320.0" y="-85"/>
      <point x="1320.0" y="-90"/>
      <point x="1320.0" y="-77" type="curve"/>
      <point x="1187.0" y="-77"/>
      <point x="1033.0" y="-77"/>
      <point x="899.0" y="-77" type="curve"/>
    </contour>
    <contour>
      <point x="956.0" y="220"/>
      <point x="938.0" y="232"/>
      <point x="956.0" y="220" type="curve"/>
      <point x="998.0" y="272"/>
      <point x="1050.0" y="295"/>
      <point x="1123.0" y="295" type="curve"/>
      <point x="1205.0" y="295"/>
      <point x="1270.0" y="269"/>
      <point x="1270.0" y="197" type="curve"/>
      <point x="1270.0" y="134"/>
      <point x="1218.0" y="112"/>
      <point x="1164.0" y="77" type="curve"/>
      <point x="1075.0" y="26"/>
      <point x="987.0" y="-26"/>
      <point x="899.0" y="-77" type="curve"/>
      <point x="909.0" y="-97"/>
      <point x="899.0" y="-77"/>
      <point x="909.0" y="-97" type="curve"/>
      <point x="999.0" y="-45"/>
      <point x="1089.0" y="8"/>
      <point x="1179.0" y="60" type="curve"/>
      <point x="1238.0" y="100"/>
      <point x="1292.0" y="128"/>
      <point x="1292.0" y="198" type="curve"/>
      <point x="1292.0" y="282"/>
      <point x="1218.0" y="316"/>
      <point x="1124.0" y="316" type="curve"/>
      <point x="1043.0" y="316"/>
      <point x="982.0" y="294"/>
      <point x="938.0" y="232" type="curve"/>
    </contour>
  </outline>
</glyph>
<glyph name="threequarters" format="1">
  <advance width="1302.0"/>
  <unicode hex="00BE"/>
  <outline>
    <contour>
      <point x="406.0" y="-93" type="line"/>
      <point x="981.0" y="757" type="line"/>
      <point x="954.0" y="757" type="line"/>
      <point x="379.0" y="-93" type="line"/>
    </contour>
    <contour>
      <point x="78.0" y="692"/>
      <point x="64.0" y="706"/>
      <point x="78.0" y="692" type="curve"/>
      <point x="119.0" y="721"/>
      <point x="164.0" y="738"/>
      <point x="215.0" y="738" type="curve"/>
      <point x="297.0" y="738"/>
      <point x="366.0" y="724"/>
      <point x="366.0" y="652" type="curve"/>
      <point x="366.0" y="563"/>
      <point x="258.0" y="569"/>
      <point x="155.0" y="563" type="curve"/>
      <point x="155.0" y="545"/>
      <point x="155.0" y="563"/>
      <point x="155.0" y="545" type="curve"/>
      <point x="276.0" y="546"/>
      <point x="389.0" y="550"/>
      <point x="389.0" y="654" type="curve"/>
      <point x="389.0" y="737"/>
      <point x="312.0" y="758"/>
      <point x="218.0" y="758" type="curve"/>
      <point x="160.0" y="758"/>
      <point x="106.0" y="740"/>
      <point x="64.0" y="706" type="curve"/>
    </contour>
    <contour>
      <point x="55.0" y="373"/>
      <point x="67.0" y="388"/>
      <point x="55.0" y="373" type="curve"/>
      <point x="104.0" y="350"/>
      <point x="152.0" y="340"/>
      <point x="205.0" y="340" type="curve"/>
      <point x="318.0" y="337"/>
      <point x="413.0" y="356"/>
      <point x="410.0" y="452" type="curve"/>
      <point x="410.0" y="566"/>
      <point x="285.0" y="554"/>
      <point x="155.0" y="556" type="curve"/>
      <point x="155.0" y="541"/>
      <point x="155.0" y="556"/>
      <point x="155.0" y="541" type="curve"/>
      <point x="275.0" y="536"/>
      <point x="387.0" y="546"/>
      <point x="387.0" y="451" type="curve"/>
      <point x="387.0" y="369"/>
      <point x="306.0" y="358"/>
      <point x="207.0" y="360" type="curve"/>
      <point x="158.0" y="360"/>
      <point x="112.0" y="368"/>
      <point x="67.0" y="388" type="curve"/>
    </contour>
    <contour>
      <point x="1265.0" y="32" type="line"/>
      <point x="791.0" y="32" type="line"/>
      <point x="791.0" y="12" type="line"/>
      <point x="1265.0" y="12" type="line"/>
    </contour>
    <contour>
      <point x="805.0" y="14" type="line"/>
      <point x="1131.0" y="318" type="line"/>
      <point x="1108.0" y="327" type="line"/>
      <point x="791.0" y="32" type="line"/>
    </contour>
    <contour>
      <point x="1131.0" y="-107" type="line"/>
      <point x="1131.0" y="327" type="line"/>
      <point x="1108.0" y="327" type="line"/>
      <point x="1108.0" y="-107" type="line"/>
    </contour>
  </outline>
</glyph>
<glyph name="questiondown" format="1">
  <advance width="571.0"/>
  <unicode hex="00BF"/>
  <outline>
    <contour>
      <point x="351.0" y="374"/>
      <point x="326.0" y="374"/>
      <point x="351.0" y="374" type="curve"/>
      <point x="351.0" y="411"/>
      <point x="351.0" y="449"/>
      <point x="351.0" y="486" type="curve"/>
      <point x="326.0" y="486"/>
      <point x="351.0" y="486"/>
      <point x="326.0" y="486" type="curve"/>
      <point x="326.0" y="449"/>
      <point x="326.0" y="411"/>
      <point x="326.0" y="374" type="curve"/>
    </contour>
    <contour>
      <point x="499.0" y="78" type="line"/>
      <point x="455.0" y="46"/>
      <point x="391.0" y="20"/>
      <point x="320.0" y="20" type="curve"/>
      <point x="192.0" y="20"/>
      <point x="88.0" y="70"/>
      <point x="88.0" y="189" type="curve"/>
      <point x="88.0" y="320"/>
      <point x="205.0" y="374"/>
      <point x="351.0" y="374" type="curve"/>
      <point x="351.0" y="382"/>
      <point x="351.0" y="389"/>
      <point x="351.0" y="397" type="curve"/>
      <point x="192.0" y="397"/>
      <point x="65.0" y="333"/>
      <point x="65.0" y="189" type="curve"/>
      <point x="65.0" y="57"/>
      <point x="177.0" y="-2"/>
      <point x="318.0" y="-2" type="curve"/>
      <point x="395.0" y="-2"/>
      <point x="463.0" y="24"/>
      <point x="513.0" y="60" type="curve"/>
    </contour>
    <contour>
      <point x="324.0" y="697"/>
      <point x="352.0" y="697"/>
      <point x="324.0" y="697" type="curve"/>
      <point x="324.0" y="688"/>
      <point x="329.0" y="683"/>
      <point x="338.0" y="683" type="curve"/>
      <point x="347.0" y="683"/>
      <point x="352.0" y="689"/>
      <point x="352.0" y="697" type="curve"/>
      <point x="324.0" y="697"/>
      <point x="352.0" y="697"/>
      <point x="324.0" y="697" type="curve"/>
      <point x="324.0" y="706"/>
      <point x="329.0" y="710"/>
      <point x="338.0" y="710" type="curve"/>
      <point x="347.0" y="710"/>
      <point x="352.0" y="705"/>
      <point x="352.0" y="697" type="curve"/>
    </contour>
  </outline>
</glyph>
<glyph name="Agrave" format="1">
  <advance width="828.0"/>
  <unicode hex="00C0"/>
  <outline>
    <contour>
      <point x="653.0" y="277"/>
      <point x="660.0" y="254"/>
      <point x="653.0" y="277" type="curve"/>
      <point x="494.0" y="277"/>
      <point x="335.0" y="277"/>
      <point x="177.0" y="277" type="curve"/>
      <point x="167.0" y="254"/>
      <point x="177.0" y="277"/>
      <point x="167.0" y="254" type="curve"/>
      <point x="331.0" y="254"/>
      <point x="496.0" y="254"/>
      <point x="660.0" y="254" type="curve"/>
    </contour>
    <contour>
      <point x="802.0" y="0"/>
      <point x="776.0" y="0"/>
      <point x="802.0" y="0" type="curve"/>
      <point x="680.0" y="241"/>
      <point x="559.0" y="481"/>
      <point x="437.0" y="722" type="curve"/>
      <point x="415.0" y="722"/>
      <point x="437.0" y="722"/>
      <point x="415.0" y="722" type="curve"/>
      <point x="536.0" y="481"/>
      <point x="656.0" y="241"/>
      <point x="776.0" y="0" type="curve"/>
    </contour>
    <contour>
      <point x="32.0" y="0"/>
      <point x="6.0" y="0"/>
      <point x="32.0" y="0" type="curve"/>
      <point x="166.0" y="241"/>
      <point x="300.0" y="481"/>
      <point x="435.0" y="722" type="curve"/>
      <point x="413.0" y="722"/>
      <point x="435.0" y="722"/>
      <point x="413.0" y="722" type="curve"/>
      <point x="277.0" y="481"/>
      <point x="141.0" y="241"/>
      <point x="6.0" y="0" type="curve"/>
    </contour>
    <contour>
      <point x="442.0" y="825" type="line"/>
      <point x="254.0" y="991" type="line"/>
      <point x="214.0" y="991" type="line"/>
      <point x="412.0" y="825" type="line"/>
    </contour>
  </outline>
</glyph>
<glyph name="Aacute" format="1">
  <advance width="828.0"/>
  <unicode hex="00C1"/>
  <outline>
    <contour>
      <point x="653.0" y="277"/>
      <point x="660.0" y="254"/>
      <point x="653.0" y="277" type="curve"/>
      <point x="494.0" y="277"/>
      <point x="335.0" y="277"/>
      <point x="177.0" y="277" type="curve"/>
      <point x="167.0" y="254"/>
      <point x="177.0" y="277"/>
      <point x="167.0" y="254" type="curve"/>
      <point x="331.0" y="254"/>
      <point x="496.0" y="254"/>
      <point x="660.0" y="254" type="curve"/>
    </contour>
    <contour>
      <point x="802.0" y="0"/>
      <point x="776.0" y="0"/>
      <point x="802.0" y="0" type="curve"/>
      <point x="680.0" y="241"/>
      <point x="559.0" y="481"/>
      <point x="437.0" y="722" type="curve"/>
      <point x="415.0" y="722"/>
      <point x="437.0" y="722"/>
      <point x="415.0" y="722" type="curve"/>
      <point x="536.0" y="481"/>
      <point x="656.0" y="241"/>
      <point x="776.0" y="0" type="curve"/>
    </contour>
    <contour>
      <point x="32.0" y="0"/>
      <point x="6.0" y="0"/>
      <point x="32.0" y="0" type="curve"/>
      <point x="166.0" y="241"/>
      <point x="300.0" y="481"/>
      <point x="435.0" y="722" type="curve"/>
      <point x="413.0" y="722"/>
      <point x="435.0" y="722"/>
      <point x="413.0" y="722" type="curve"/>
      <point x="277.0" y="481"/>
      <point x="141.0" y="241"/>
      <point x="6.0" y="0" type="curve"/>
    </contour>
    <contour>
      <point x="439.0" y="825" type="line"/>
      <point x="637.0" y="991" type="line"/>
      <point x="597.0" y="991" type="line"/>
      <point x="409.0" y="825" type="line"/>
    </contour>
  </outline>
</glyph>
<glyph name="Atilde" format="1">
  <advance width="828.0"/>
  <unicode hex="00C3"/>
  <outline>
    <contour>
      <point x="653.0" y="277"/>
      <point x="660.0" y="254"/>
      <point x="653.0" y="277" type="curve"/>
      <point x="494.0" y="277"/>
      <point x="335.0" y="277"/>
      <point x="177.0" y="277" type="curve"/>
      <point x="167.0" y="254"/>
      <point x="177.0" y="277"/>
      <point x="167.0" y="254" type="curve"/>
      <point x="331.0" y="254"/>
      <point x="496.0" y="254"/>
      <point x="660.0" y="254" type="curve"/>
    </contour>
    <contour>
      <point x="802.0" y="0"/>
      <point x="776.0" y="0"/>
      <point x="802.0" y="0" type="curve"/>
      <point x="680.0" y="241"/>
      <point x="559.0" y="481"/>
      <point x="437.0" y="722" type="curve"/>
      <point x="415.0" y="722"/>
      <point x="437.0" y="722"/>
      <point x="415.0" y="722" type="curve"/>
      <point x="536.0" y="481"/>
      <point x="656.0" y="241"/>
      <point x="776.0" y="0" type="curve"/>
    </contour>
    <contour>
      <point x="32.0" y="0"/>
      <point x="6.0" y="0"/>
      <point x="32.0" y="0" type="curve"/>
      <point x="166.0" y="241"/>
      <point x="300.0" y="481"/>
      <point x="435.0" y="722" type="curve"/>
      <point x="413.0" y="722"/>
      <point x="435.0" y="722"/>
      <point x="413.0" y="722" type="curve"/>
      <point x="277.0" y="481"/>
      <point x="141.0" y="241"/>
      <point x="6.0" y="0" type="curve"/>
    </contour>
    <contour>
      <point x="652.0" y="948"/>
      <point x="672.0" y="944"/>
      <point x="652.0" y="948" type="curve"/>
      <point x="633.0" y="891"/>
      <point x="608.0" y="845"/>
      <point x="550.0" y="845" type="curve"/>
      <point x="500.0" y="845"/>
      <point x="466.0" y="861"/>
      <point x="428.0" y="894" type="curve"/>
      <point x="388.0" y="928"/>
      <point x="356.0" y="949"/>
      <point x="304.0" y="949" type="curve"/>
      <point x="231.0" y="949"/>
      <point x="189.0" y="903"/>
      <point x="170.0" y="830" type="curve"/>
      <point x="189.0" y="824"/>
      <point x="170.0" y="830"/>
      <point x="189.0" y="824" type="curve"/>
      <point x="207.0" y="887"/>
      <point x="241.0" y="928"/>
      <point x="304.0" y="928" type="curve"/>
      <point x="349.0" y="928"/>
      <point x="377.0" y="910"/>
      <point x="411.0" y="880" type="curve"/>
      <point x="454.0" y="844"/>
      <point x="492.0" y="824"/>
      <point x="548.0" y="824" type="curve"/>
      <point x="617.0" y="824"/>
      <point x="649.0" y="876"/>
      <point x="672.0" y="944" type="curve"/>
    </contour>
  </outline>
</glyph>
<glyph name="Adieresis" format="1">
  <advance width="828.0"/>
  <unicode hex="00C4"/>
  <outline>
    <contour>
      <point x="653.0" y="277"/>
      <point x="660.0" y="254"/>
      <point x="653.0" y="277" type="curve"/>
      <point x="494.0" y="277"/>
      <point x="335.0" y="277"/>
      <point x="177.0" y="277" type="curve"/>
      <point x="167.0" y="254"/>
      <point x="177.0" y="277"/>
      <point x="167.0" y="254" type="curve"/>
      <point x="331.0" y="254"/>
      <point x="496.0" y="254"/>
      <point x="660.0" y="254" type="curve"/>
    </contour>
    <contour>
      <point x="802.0" y="0"/>
      <point x="776.0" y="0"/>
      <point x="802.0" y="0" type="curve"/>
      <point x="680.0" y="241"/>
      <point x="559.0" y="481"/>
      <point x="437.0" y="722" type="curve"/>
      <point x="415.0" y="722"/>
      <point x="437.0" y="722"/>
      <point x="415.0" y="722" type="curve"/>
      <point x="536.0" y="481"/>
      <point x="656.0" y="241"/>
      <point x="776.0" y="0" type="curve"/>
    </contour>
    <contour>
      <point x="32.0" y="0"/>
      <point x="6.0" y="0"/>
      <point x="32.0" y="0" type="curve"/>
      <point x="166.0" y="241"/>
      <point x="300.0" y="481"/>
      <point x="435.0" y="722" type="curve"/>
      <point x="413.0" y="722"/>
      <point x="435.0" y="722"/>
      <point x="413.0" y="722" type="curve"/>
      <point x="277.0" y="481"/>
      <point x="141.0" y="241"/>
      <point x="6.0" y="0" type="curve"/>
    </contour>
    <contour>
      <point x="339.0" y="843"/>
      <point x="349.0" y="843"/>
      <point x="363.0" y="843" type="curve"/>
      <point x="363.0" y="854"/>
      <point x="355.0" y="861"/>
      <point x="343.0" y="861" type="curve"/>
      <point x="332.0" y="861"/>
      <point x="325.0" y="854"/>
      <point x="325.0" y="843" type="curve"/>
      <point x="339.0" y="843"/>
      <point x="349.0" y="843"/>
      <point x="363.0" y="843" type="curve"/>
      <point x="363.0" y="832"/>
      <point x="355.0" y="825"/>
      <point x="343.0" y="825" type="curve"/>
      <point x="332.0" y="825"/>
      <point x="325.0" y="832"/>
      <point x="325.0" y="843" type="curve"/>
    </contour>
    <contour>
      <point x="501.0" y="843"/>
      <point x="511.0" y="843"/>
      <point x="525.0" y="843" type="curve"/>
      <point x="525.0" y="854"/>
      <point x="517.0" y="861"/>
      <point x="505.0" y="861" type="curve"/>
      <point x="494.0" y="861"/>
      <point x="487.0" y="854"/>
      <point x="487.0" y="843" type="curve"/>
      <point x="501.0" y="843"/>
      <point x="511.0" y="843"/>
      <point x="525.0" y="843" type="curve"/>
      <point x="525.0" y="832"/>
      <point x="517.0" y="825"/>
      <point x="505.0" y="825" type="curve"/>
      <point x="494.0" y="825"/>
      <point x="487.0" y="832"/>
      <point x="487.0" y="843" type="curve"/>
    </contour>
  </outline>
</glyph>
<glyph name="Aring" format="1">
  <advance width="828.0"/>
  <unicode hex="00C5"/>
  <outline>
    <contour>
      <point x="653.0" y="277"/>
      <point x="660.0" y="254"/>
      <point x="653.0" y="277" type="curve"/>
      <point x="494.0" y="277"/>
      <point x="335.0" y="277"/>
      <point x="177.0" y="277" type="curve"/>
      <point x="167.0" y="254"/>
      <point x="177.0" y="277"/>
      <point x="167.0" y="254" type="curve"/>
      <point x="331.0" y="254"/>
      <point x="496.0" y="254"/>
      <point x="660.0" y="254" type="curve"/>
    </contour>
    <contour>
      <point x="802.0" y="0"/>
      <point x="776.0" y="0"/>
      <point x="802.0" y="0" type="curve"/>
      <point x="680.0" y="241"/>
      <point x="559.0" y="481"/>
      <point x="437.0" y="722" type="curve"/>
      <point x="415.0" y="722"/>
      <point x="437.0" y="722"/>
      <point x="415.0" y="722" type="curve"/>
      <point x="536.0" y="481"/>
      <point x="656.0" y="241"/>
      <point x="776.0" y="0" type="curve"/>
    </contour>
    <contour>
      <point x="32.0" y="0"/>
      <point x="6.0" y="0"/>
      <point x="32.0" y="0" type="curve"/>
      <point x="166.0" y="241"/>
      <point x="300.0" y="481"/>
      <point x="435.0" y="722" type="curve"/>
      <point x="413.0" y="722"/>
      <point x="435.0" y="722"/>
      <point x="413.0" y="722" type="curve"/>
      <point x="277.0" y="481"/>
      <point x="141.0" y="241"/>
      <point x="6.0" y="0" type="curve"/>
    </contour>
    <contour>
      <point x="275.0" y="940"/>
      <point x="297.0" y="940"/>
      <point x="275.0" y="940" type="curve"/>
      <point x="275.0" y="862"/>
      <point x="339.0" y="824"/>
      <point x="424.0" y="824" type="curve"/>
      <point x="511.0" y="824"/>
      <point x="577.0" y="860"/>
      <point x="577.0" y="940" type="curve"/>
      <point x="577.0" y="1021"/>
      <point x="510.0" y="1057"/>
      <point x="421.0" y="1057" type="curve"/>
      <point x="337.0" y="1057"/>
      <point x="275.0" y="1019"/>
      <point x="275.0" y="940" type="curve"/>
      <point x="297.0" y="940"/>
      <point x="275.0" y="940"/>
      <point x="297.0" y="940" type="curve"/>
      <point x="297.0" y="1005"/>
      <point x="350.0" y="1036"/>
      <point x="421.0" y="1036" type="curve"/>
      <point x="497.0" y="1036"/>
      <point x="554.0" y="1008"/>
      <point x="554.0" y="940" type="curve"/>
      <point x="554.0" y="874"/>
      <point x="498.0" y="845"/>
      <point x="424.0" y="845" type="curve"/>
      <point x="352.0" y="845"/>
      <point x="297.0" y="874"/>
      <point x="297.0" y="940" type="curve"/>
    </contour>
  </outline>
</glyph>
<glyph name="AE" format="1">
  <advance width="1121.0"/>
  <unicode hex="00C6"/>
  <outline>
    <contour>
      <point x="510.0" y="237"/>
      <point x="517.0" y="214"/>
      <point x="510.0" y="237" type="curve"/>
      <point x="351.0" y="237"/>
      <point x="330.0" y="237"/>
      <point x="172.0" y="237" type="curve"/>
      <point x="162.0" y="214"/>
      <point x="172.0" y="237"/>
      <point x="162.0" y="214" type="curve"/>
      <point x="326.0" y="214"/>
      <point x="353.0" y="214"/>
      <point x="517.0" y="214" type="curve"/>
    </contour>
    <contour>
      <point x="24.0" y="0"/>
      <point x="1.0" y="0"/>
      <point x="27.0" y="0" type="curve"/>
      <point x="530.0" y="722" type="line"/>
      <point x="508.0" y="722"/>
      <point x="524.0" y="722"/>
      <point x="502.0" y="722" type="curve"/>
      <point x="-2.0" y="0" type="line"/>
    </contour>
    <contour>
      <point x="523.0" y="363"/>
      <point x="523.0" y="385"/>
      <point x="523.0" y="363" type="curve"/>
      <point x="670.0" y="363"/>
      <point x="818.0" y="363"/>
      <point x="966.0" y="363" type="curve"/>
      <point x="966.0" y="385"/>
      <point x="966.0" y="363"/>
      <point x="966.0" y="385" type="curve"/>
      <point x="818.0" y="385"/>
      <point x="670.0" y="385"/>
      <point x="523.0" y="385" type="curve"/>
    </contour>
    <contour>
      <point x="502.0" y="700"/>
      <point x="502.0" y="722"/>
      <point x="502.0" y="700" type="curve"/>
      <point x="685.0" y="700"/>
      <point x="868.0" y="700"/>
      <point x="1051.0" y="700" type="curve"/>
      <point x="1051.0" y="722"/>
      <point x="1051.0" y="700"/>
      <point x="1051.0" y="722" type="curve"/>
      <point x="868.0" y="722"/>
      <point x="685.0" y="722"/>
      <point x="502.0" y="722" type="curve"/>
    </contour>
    <contour>
      <point x="525.0" y="0"/>
      <point x="501.0" y="0"/>
      <point x="525.0" y="0" type="curve"/>
      <point x="525.0" y="0"/>
      <point x="525.0" y="722"/>
      <point x="525.0" y="722" type="curve"/>
      <point x="501.0" y="722"/>
      <point x="525.0" y="722"/>
      <point x="501.0" y="722" type="curve"/>
      <point x="501.0" y="481"/>
      <point x="501.0" y="241"/>
      <point x="501.0" y="0" type="curve"/>
    </contour>
    <contour>
      <point x="502.0" y="0"/>
      <point x="502.0" y="22"/>
      <point x="502.0" y="0" type="curve"/>
      <point x="700.0" y="0"/>
      <point x="898.0" y="0"/>
      <point x="1096.0" y="0" type="curve"/>
      <point x="1096.0" y="22"/>
      <point x="1096.0" y="0"/>
      <point x="1096.0" y="22" type="curve"/>
      <point x="898.0" y="22"/>
      <point x="700.0" y="22"/>
      <point x="502.0" y="22" type="curve"/>
    </contour>
  </outline>
</glyph>
<glyph name="Ccedilla" format="1">
  <advance width="866.0"/>
  <unicode hex="00C7"/>
  <outline>
    <contour>
      <point x="805.0" y="655"/>
      <point x="792.0" y="638"/>
      <point x="805.0" y="655" type="curve"/>
      <point x="712.0" y="697"/>
      <point x="613.0" y="727"/>
      <point x="503.0" y="727" type="curve"/>
      <point x="245.0" y="727"/>
      <point x="72.0" y="594"/>
      <point x="72.0" y="344" type="curve"/>
      <point x="72.0" y="113"/>
      <point x="234.0" y="-5"/>
      <point x="475.0" y="-5" type="curve"/>
      <point x="617.0" y="-5"/>
      <point x="711.0" y="25"/>
      <point x="830.0" y="96" type="curve"/>
      <point x="815.0" y="113"/>
      <point x="830.0" y="96"/>
      <point x="815.0" y="113" type="curve"/>
      <point x="704.0" y="43"/>
      <point x="610.0" y="19"/>
      <point x="476.0" y="19" type="curve"/>
      <point x="250.0" y="19"/>
      <point x="96.0" y="130"/>
      <point x="96.0" y="345" type="curve"/>
      <point x="96.0" y="578"/>
      <point x="260.0" y="704"/>
      <point x="502.0" y="704" type="curve"/>
      <point x="607.0" y="704"/>
      <point x="704.0" y="680"/>
      <point x="792.0" y="638" type="curve"/>
    </contour>
    <contour>
      <point x="457.0" y="15"/>
      <point x="474.0" y="1"/>
      <point x="457.0" y="15" type="curve"/>
      <point x="437.0" y="-12"/>
      <point x="417.0" y="-38"/>
      <point x="397.0" y="-65" type="curve"/>
      <point x="413.0" y="-82"/>
      <point x="397.0" y="-65"/>
      <point x="413.0" y="-82" type="curve"/>
      <point x="433.0" y="-54"/>
      <point x="454.0" y="-27"/>
      <point x="474.0" y="1" type="curve"/>
    </contour>
    <contour>
      <point x="413.0" y="-83"/>
      <point x="398.0" y="-66"/>
      <point x="413.0" y="-83" type="curve"/>
      <point x="435.0" y="-72"/>
      <point x="453.0" y="-70"/>
      <point x="478.0" y="-70" type="curve"/>
      <point x="521.0" y="-70"/>
      <point x="553.0" y="-87"/>
      <point x="553.0" y="-127" type="curve"/>
      <point x="553.0" y="-171"/>
      <point x="511.0" y="-182"/>
      <point x="460.0" y="-182" type="curve"/>
      <point x="424.0" y="-182"/>
      <point x="397.0" y="-180"/>
      <point x="364.0" y="-165" type="curve"/>
      <point x="355.0" y="-182"/>
      <point x="364.0" y="-165"/>
      <point x="355.0" y="-182" type="curve"/>
      <point x="391.0" y="-197"/>
      <point x="420.0" y="-203"/>
      <point x="459.0" y="-203" type="curve"/>
      <point x="524.0" y="-203"/>
      <point x="576.0" y="-185"/>
      <point x="576.0" y="-127" type="curve"/>
      <point x="576.0" y="-75"/>
      <point x="535.0" y="-49"/>
      <point x="480.0" y="-49" type="curve"/>
      <point x="449.0" y="-49"/>
      <point x="427.0" y="-55"/>
      <point x="398.0" y="-66" type="curve"/>
    </contour>
  </outline>
</glyph>
<glyph name="Edieresis" format="1">
  <advance width="748.0"/>
  <unicode hex="00CB"/>
  <outline>
    <contour>
      <point x="150.0" y="363"/>
      <point x="150.0" y="385"/>
      <point x="150.0" y="363" type="curve"/>
      <point x="297.0" y="363"/>
      <point x="445.0" y="363"/>
      <point x="593.0" y="363" type="curve"/>
      <point x="593.0" y="385"/>
      <point x="593.0" y="363"/>
      <point x="593.0" y="385" type="curve"/>
      <point x="445.0" y="385"/>
      <point x="297.0" y="385"/>
      <point x="150.0" y="385" type="curve"/>
    </contour>
    <contour>
      <point x="129.0" y="700"/>
      <point x="129.0" y="722"/>
      <point x="129.0" y="700" type="curve"/>
      <point x="312.0" y="700"/>
      <point x="495.0" y="700"/>
      <point x="678.0" y="700" type="curve"/>
      <point x="678.0" y="722"/>
      <point x="678.0" y="700"/>
      <point x="678.0" y="722" type="curve"/>
      <point x="495.0" y="722"/>
      <point x="312.0" y="722"/>
      <point x="129.0" y="722" type="curve"/>
    </contour>
    <contour>
      <point x="152.0" y="0"/>
      <point x="128.0" y="0"/>
      <point x="152.0" y="0" type="curve"/>
      <point x="152.0" y="0"/>
      <point x="152.0" y="722"/>
      <point x="152.0" y="722" type="curve"/>
      <point x="128.0" y="722"/>
      <point x="152.0" y="722"/>
      <point x="128.0" y="722" type="curve"/>
      <point x="128.0" y="481"/>
      <point x="128.0" y="241"/>
      <point x="128.0" y="0" type="curve"/>
    </contour>
    <contour>
      <point x="129.0" y="0"/>
      <point x="129.0" y="22"/>
      <point x="129.0" y="0" type="curve"/>
      <point x="327.0" y="0"/>
      <point x="525.0" y="0"/>
      <point x="723.0" y="0" type="curve"/>
      <point x="723.0" y="22"/>
      <point x="723.0" y="0"/>
      <point x="723.0" y="22" type="curve"/>
      <point x="525.0" y="22"/>
      <point x="327.0" y="22"/>
      <point x="129.0" y="22" type="curve"/>
    </contour>
    <contour>
      <point x="292.0" y="843"/>
      <point x="302.0" y="843"/>
      <point x="316.0" y="843" type="curve"/>
      <point x="316.0" y="854"/>
      <point x="308.0" y="861"/>
      <point x="296.0" y="861" type="curve"/>
      <point x="285.0" y="861"/>
      <point x="278.0" y="854"/>
      <point x="278.0" y="843" type="curve"/>
      <point x="292.0" y="843"/>
      <point x="302.0" y="843"/>
      <point x="316.0" y="843" type="curve"/>
      <point x="316.0" y="832"/>
      <point x="308.0" y="825"/>
      <point x="296.0" y="825" type="curve"/>
      <point x="285.0" y="825"/>
      <point x="278.0" y="832"/>
      <point x="278.0" y="843" type="curve"/>
    </contour>
    <contour>
      <point x="454.0" y="843"/>
      <point x="464.0" y="843"/>
      <point x="478.0" y="843" type="curve"/>
      <point x="478.0" y="854"/>
      <point x="470.0" y="861"/>
      <point x="458.0" y="861" type="curve"/>
      <point x="447.0" y="861"/>
      <point x="440.0" y="854"/>
      <point x="440.0" y="843" type="curve"/>
      <point x="454.0" y="843"/>
      <point x="464.0" y="843"/>
      <point x="478.0" y="843" type="curve"/>
      <point x="478.0" y="832"/>
      <point x="470.0" y="825"/>
      <point x="458.0" y="825" type="curve"/>
      <point x="447.0" y="825"/>
      <point x="440.0" y="832"/>
      <point x="440.0" y="843" type="curve"/>
    </contour>
  </outline>
</glyph>
<glyph name="Igrave" format="1">
  <advance width="301.0"/>
  <unicode hex="00CC"/>
  <outline>
    <contour>
      <point x="166" y="0"/>
      <point x="142" y="0"/>
      <point x="166" y="0" type="curve"/>
      <point x="166" y="241"/>
      <point x="166" y="481"/>
      <point x="166" y="722" type="curve"/>
      <point x="142" y="722"/>
      <point x="166" y="722"/>
      <point x="142" y="722" type="curve"/>
      <point x="142" y="481"/>
      <point x="142" y="241"/>
      <point x="142" y="0" type="curve"/>
    </contour>
    <contour>
      <point x="173" y="825" type="line"/>
      <point x="-15" y="991" type="line"/>
      <point x="-55" y="991" type="line"/>
      <point x="143" y="825" type="line"/>
    </contour>
  </outline>
</glyph>
<glyph name="Iacute" format="1">
  <advance width="291"/>
  <unicode hex="00CD"/>
  <outline>
    <contour>
      <point x="155" y="0"/>
      <point x="131" y="0"/>
      <point x="155" y="0" type="curve"/>
      <point x="155" y="241"/>
      <point x="155" y="481"/>
      <point x="155" y="722" type="curve"/>
      <point x="131" y="722"/>
      <point x="155" y="722"/>
      <point x="131" y="722" type="curve"/>
      <point x="131" y="481"/>
      <point x="131" y="241"/>
      <point x="131" y="0" type="curve"/>
    </contour>
    <contour>
      <point x="159" y="825" type="line"/>
      <point x="357" y="991" type="line"/>
      <point x="317" y="991" type="line"/>
      <point x="129" y="825" type="line"/>
    </contour>
  </outline>
</glyph>
<glyph name="Icircumflex" format="1">
  <advance width="292.0"/>
  <unicode hex="00CE"/>
  <outline>
    <contour>
      <point x="167" y="0"/>
      <point x="143" y="0"/>
      <point x="167" y="0" type="curve"/>
      <point x="167" y="241"/>
      <point x="167" y="481"/>
      <point x="167" y="722" type="curve"/>
      <point x="143" y="722"/>
      <point x="167" y="722"/>
      <point x="143" y="722" type="curve"/>
      <point x="143" y="481"/>
      <point x="143" y="241"/>
      <point x="143" y="0" type="curve"/>
    </contour>
    <contour>
      <point x="-27" y="825" type="line"/>
      <point x="171" y="991" type="line"/>
      <point x="131" y="991" type="line"/>
      <point x="-57" y="825" type="line"/>
    </contour>
    <contour>
      <point x="369" y="825" type="line"/>
      <point x="181" y="991" type="line"/>
      <point x="141" y="991" type="line"/>
      <point x="339" y="825" type="line"/>
    </contour>
  </outline>
</glyph>
<glyph name="Idieresis" format="1">
  <advance width="281.0"/>
  <unicode hex="00CF"/>
  <outline>
    <contour>
      <point x="153" y="0"/>
      <point x="129" y="0"/>
      <point x="153" y="0" type="curve"/>
      <point x="153" y="241"/>
      <point x="153" y="481"/>
      <point x="153" y="722" type="curve"/>
      <point x="129" y="722"/>
      <point x="153" y="722"/>
      <point x="129" y="722" type="curve"/>
      <point x="129" y="481"/>
      <point x="129" y="241"/>
      <point x="129" y="0" type="curve"/>
    </contour>
    <contour>
      <point x="57" y="843"/>
      <point x="67" y="843"/>
      <point x="81" y="843" type="curve"/>
      <point x="81" y="854"/>
      <point x="73" y="861"/>
      <point x="61" y="861" type="curve"/>
      <point x="50" y="861"/>
      <point x="43" y="854"/>
      <point x="43" y="843" type="curve"/>
      <point x="57" y="843"/>
      <point x="67" y="843"/>
      <point x="81" y="843" type="curve"/>
      <point x="81" y="832"/>
      <point x="73" y="825"/>
      <point x="61" y="825" type="curve"/>
      <point x="50" y="825"/>
      <point x="43" y="832"/>
      <point x="43" y="843" type="curve"/>
    </contour>
    <contour>
      <point x="219" y="843"/>
      <point x="229" y="843"/>
      <point x="243" y="843" type="curve"/>
      <point x="243" y="854"/>
      <point x="235" y="861"/>
      <point x="223" y="861" type="curve"/>
      <point x="212" y="861"/>
      <point x="205" y="854"/>
      <point x="205" y="843" type="curve"/>
      <point x="219" y="843"/>
      <point x="229" y="843"/>
      <point x="243" y="843" type="curve"/>
      <point x="243" y="832"/>
      <point x="235" y="825"/>
      <point x="223" y="825" type="curve"/>
      <point x="212" y="825"/>
      <point x="205" y="832"/>
      <point x="205" y="843" type="curve"/>
    </contour>
  </outline>
</glyph>
<glyph name="Eth" format="1">
  <advance width="907.85"/>
  <unicode hex="00D0"/>
  <outline>
    <contour>
      <point x="127.85" y="722"/>
      <point x="152.85" y="722"/>
      <point x="127.85" y="722" type="curve"/>
      <point x="127.85" y="481"/>
      <point x="127.85" y="241"/>
      <point x="127.85" y="0" type="curve"/>
      <point x="152.85" y="0"/>
      <point x="127.85" y="0"/>
      <point x="152.85" y="0" type="curve"/>
      <point x="152.85" y="241"/>
      <point x="152.85" y="481"/>
      <point x="152.85" y="722" type="curve"/>
    </contour>
    <contour>
      <point x="142.85" y="0"/>
      <point x="142.85" y="22"/>
      <point x="142.85" y="0" type="curve"/>
      <point x="232.85" y="0"/>
      <point x="322.85" y="0"/>
      <point x="412.85" y="0" type="curve"/>
      <point x="672.85" y="0"/>
      <point x="833.85" y="106"/>
      <point x="833.85" y="350" type="curve"/>
      <point x="833.85" y="608"/>
      <point x="667.85" y="722"/>
      <point x="395.85" y="722" type="curve"/>
      <point x="310.85" y="722"/>
      <point x="226.85" y="722"/>
      <point x="142.85" y="722" type="curve"/>
      <point x="142.85" y="700"/>
      <point x="142.85" y="722"/>
      <point x="142.85" y="700" type="curve"/>
      <point x="226.85" y="700"/>
      <point x="310.85" y="700"/>
      <point x="393.85" y="700" type="curve"/>
      <point x="651.85" y="700"/>
      <point x="810.85" y="593"/>
      <point x="810.85" y="350" type="curve"/>
      <point x="810.85" y="121"/>
      <point x="659.85" y="22"/>
      <point x="415.85" y="22" type="curve"/>
      <point x="324.85" y="22"/>
      <point x="233.85" y="22"/>
      <point x="142.85" y="22" type="curve"/>
    </contour>
    <contour>
      <point x="44.85" y="341"/>
      <point x="44.85" y="365"/>
      <point x="44.85" y="341" type="curve"/>
      <point x="175.85" y="341"/>
      <point x="306.85" y="341"/>
      <point x="437.85" y="341" type="curve"/>
      <point x="437.85" y="365"/>
      <point x="437.85" y="341"/>
      <point x="437.85" y="365" type="curve"/>
      <point x="306.85" y="365"/>
      <point x="175.85" y="365"/>
      <point x="44.85" y="365" type="curve"/>
    </contour>
  </outline>
</glyph>
<glyph name="Ntilde" format="1">
  <advance width="1013.0"/>
  <unicode hex="00D1"/>
  <outline>
    <contour>
      <point x="880.0" y="0"/>
      <point x="855.0" y="0"/>
      <point x="884.0" y="0" type="curve"/>
      <point x="643.0" y="241"/>
      <point x="402.0" y="481"/>
      <point x="162.0" y="722" type="curve"/>
      <point x="132.0" y="722"/>
      <point x="158.0" y="722"/>
      <point x="128.0" y="722" type="curve"/>
      <point x="369.0" y="481"/>
      <point x="610.0" y="241"/>
      <point x="851.0" y="0" type="curve"/>
    </contour>
    <contour>
      <point x="860.0" y="722"/>
      <point x="885.0" y="722"/>
      <point x="860.0" y="722" type="curve"/>
      <point x="860.0" y="481"/>
      <point x="860.0" y="241"/>
      <point x="860.0" y="0" type="curve"/>
      <point x="885.0" y="0"/>
      <point x="860.0" y="0"/>
      <point x="885.0" y="0" type="curve"/>
      <point x="885.0" y="241"/>
      <point x="885.0" y="481"/>
      <point x="885.0" y="722" type="curve"/>
    </contour>
    <contour>
      <point x="153.0" y="0"/>
      <point x="128.0" y="0"/>
      <point x="153.0" y="0" type="curve"/>
      <point x="153.0" y="241"/>
      <point x="153.0" y="481"/>
      <point x="153.0" y="722" type="curve"/>
      <point x="128.0" y="722"/>
      <point x="153.0" y="722"/>
      <point x="128.0" y="722" type="curve"/>
      <point x="128.0" y="481"/>
      <point x="128.0" y="241"/>
      <point x="128.0" y="0" type="curve"/>
    </contour>
    <contour>
      <point x="749.0" y="948"/>
      <point x="769.0" y="944"/>
      <point x="749.0" y="948" type="curve"/>
      <point x="730.0" y="891"/>
      <point x="705.0" y="845"/>
      <point x="647.0" y="845" type="curve"/>
      <point x="597.0" y="845"/>
      <point x="563.0" y="861"/>
      <point x="525.0" y="894" type="curve"/>
      <point x="485.0" y="928"/>
      <point x="453.0" y="949"/>
      <point x="401.0" y="949" type="curve"/>
      <point x="328.0" y="949"/>
      <point x="286.0" y="903"/>
      <point x="267.0" y="830" type="curve"/>
      <point x="286.0" y="824"/>
      <point x="267.0" y="830"/>
      <point x="286.0" y="824" type="curve"/>
      <point x="304.0" y="887"/>
      <point x="338.0" y="928"/>
      <point x="401.0" y="928" type="curve"/>
      <point x="446.0" y="928"/>
      <point x="474.0" y="910"/>
      <point x="508.0" y="880" type="curve"/>
      <point x="551.0" y="844"/>
      <point x="589.0" y="824"/>
      <point x="645.0" y="824" type="curve"/>
      <point x="714.0" y="824"/>
      <point x="746.0" y="876"/>
      <point x="769.0" y="944" type="curve"/>
    </contour>
  </outline>
</glyph>
<glyph name="Otilde" format="1">
  <advance width="949.5"/>
  <unicode hex="00D5"/>
  <outline>
    <contour>
      <point x="96.15" y="360"/>
      <point x="72.15" y="360"/>
      <point x="96.15" y="360" type="curve"/>
      <point x="96.15" y="576"/>
      <point x="250.15" y="705"/>
      <point x="473.15" y="705" type="curve"/>
      <point x="697.15" y="705"/>
      <point x="852.15" y="578"/>
      <point x="852.15" y="363" type="curve"/>
      <point x="852.15" y="147"/>
      <point x="699.15" y="18"/>
      <point x="476.15" y="18" type="curve"/>
      <point x="251.15" y="18"/>
      <point x="96.15" y="144"/>
      <point x="96.15" y="360" type="curve"/>
      <point x="72.15" y="360"/>
      <point x="96.15" y="360"/>
      <point x="72.15" y="360" type="curve"/>
      <point x="72.15" y="129"/>
      <point x="237.15" y="-5"/>
      <point x="475.15" y="-5" type="curve"/>
      <point x="713.15" y="-5"/>
      <point x="877.15" y="131"/>
      <point x="877.15" y="363" type="curve"/>
      <point x="877.15" y="593"/>
      <point x="712.15" y="727"/>
      <point x="474.15" y="727" type="curve"/>
      <point x="235.15" y="727"/>
      <point x="72.15" y="591"/>
      <point x="72.15" y="360" type="curve"/>
    </contour>
    <contour>
      <point x="701.15" y="948"/>
      <point x="721.15" y="944"/>
      <point x="701.15" y="948" type="curve"/>
      <point x="682.15" y="891"/>
      <point x="657.15" y="845"/>
      <point x="599.15" y="845" type="curve"/>
      <point x="549.15" y="845"/>
      <point x="515.15" y="861"/>
      <point x="477.15" y="894" type="curve"/>
      <point x="437.15" y="928"/>
      <point x="405.15" y="949"/>
      <point x="353.15" y="949" type="curve"/>
      <point x="280.15" y="949"/>
      <point x="238.15" y="903"/>
      <point x="219.15" y="830" type="curve"/>
      <point x="238.15" y="824"/>
      <point x="219.15" y="830"/>
      <point x="238.15" y="824" type="curve"/>
      <point x="256.15" y="887"/>
      <point x="290.15" y="928"/>
      <point x="353.15" y="928" type="curve"/>
      <point x="398.15" y="928"/>
      <point x="426.15" y="910"/>
      <point x="460.15" y="880" type="curve"/>
      <point x="503.15" y="844"/>
      <point x="541.15" y="824"/>
      <point x="597.15" y="824" type="curve"/>
      <point x="666.15" y="824"/>
      <point x="698.15" y="876"/>
      <point x="721.15" y="944" type="curve"/>
    </contour>
  </outline>
</glyph>
<glyph name="Odieresis" format="1">
  <advance width="949.5"/>
  <unicode hex="00D6"/>
  <outline>
    <contour>
      <point x="96.15" y="360"/>
      <point x="72.15" y="360"/>
      <point x="96.15" y="360" type="curve"/>
      <point x="96.15" y="576"/>
      <point x="250.15" y="705"/>
      <point x="473.15" y="705" type="curve"/>
      <point x="697.15" y="705"/>
      <point x="852.15" y="578"/>
      <point x="852.15" y="363" type="curve"/>
      <point x="852.15" y="147"/>
      <point x="699.15" y="18"/>
      <point x="476.15" y="18" type="curve"/>
      <point x="251.15" y="18"/>
      <point x="96.15" y="144"/>
      <point x="96.15" y="360" type="curve"/>
      <point x="72.15" y="360"/>
      <point x="96.15" y="360"/>
      <point x="72.15" y="360" type="curve"/>
      <point x="72.15" y="129"/>
      <point x="237.15" y="-5"/>
      <point x="475.15" y="-5" type="curve"/>
      <point x="713.15" y="-5"/>
      <point x="877.15" y="131"/>
      <point x="877.15" y="363" type="curve"/>
      <point x="877.15" y="593"/>
      <point x="712.15" y="727"/>
      <point x="474.15" y="727" type="curve"/>
      <point x="235.15" y="727"/>
      <point x="72.15" y="591"/>
      <point x="72.15" y="360" type="curve"/>
    </contour>
    <contour>
      <point x="388.15" y="843"/>
      <point x="398.15" y="843"/>
      <point x="412.15" y="843" type="curve"/>
      <point x="412.15" y="854"/>
      <point x="404.15" y="861"/>
      <point x="392.15" y="861" type="curve"/>
      <point x="381.15" y="861"/>
      <point x="374.15" y="854"/>
      <point x="374.15" y="843" type="curve"/>
      <point x="388.15" y="843"/>
      <point x="398.15" y="843"/>
      <point x="412.15" y="843" type="curve"/>
      <point x="412.15" y="832"/>
      <point x="404.15" y="825"/>
      <point x="392.15" y="825" type="curve"/>
      <point x="381.15" y="825"/>
      <point x="374.15" y="832"/>
      <point x="374.15" y="843" type="curve"/>
    </contour>
    <contour>
      <point x="550.15" y="843"/>
      <point x="560.15" y="843"/>
      <point x="574.15" y="843" type="curve"/>
      <point x="574.15" y="854"/>
      <point x="566.15" y="861"/>
      <point x="554.15" y="861" type="curve"/>
      <point x="543.15" y="861"/>
      <point x="536.15" y="854"/>
      <point x="536.15" y="843" type="curve"/>
      <point x="550.15" y="843"/>
      <point x="560.15" y="843"/>
      <point x="574.15" y="843" type="curve"/>
      <point x="574.15" y="832"/>
      <point x="566.15" y="825"/>
      <point x="554.15" y="825" type="curve"/>
      <point x="543.15" y="825"/>
      <point x="536.15" y="832"/>
      <point x="536.15" y="843" type="curve"/>
    </contour>
  </outline>
</glyph>
<glyph name="multiply" format="1">
  <advance width="550.0"/>
  <unicode hex="00D7"/>
  <outline>
    <contour>
      <point x="88.0" y="105" type="line"/>
      <point x="474.0" y="492" type="line"/>
      <point x="457.0" y="509" type="line"/>
      <point x="71.0" y="122" type="line"/>
    </contour>
    <contour>
      <point x="480.0" y="119" type="line"/>
      <point x="89.0" y="512" type="line"/>
      <point x="72.0" y="495" type="line"/>
      <point x="463.0" y="102" type="line"/>
    </contour>
  </outline>
</glyph>
<glyph name="Oslash" format="1">
  <advance width="949.5"/>
  <unicode hex="00D8"/>
  <outline>
    <contour>
      <point x="203.15" y="-79" type="line"/>
      <point x="772.15" y="764" type="line"/>
      <point x="753.15" y="775" type="line"/>
      <point x="184.15" y="-66" type="line"/>
    </contour>
    <contour>
      <point x="96.15" y="360"/>
      <point x="72.15" y="360"/>
      <point x="96.15" y="360" type="curve"/>
      <point x="96.15" y="576"/>
      <point x="250.15" y="705"/>
      <point x="473.15" y="705" type="curve"/>
      <point x="697.15" y="705"/>
      <point x="852.15" y="578"/>
      <point x="852.15" y="363" type="curve"/>
      <point x="852.15" y="147"/>
      <point x="699.15" y="18"/>
      <point x="476.15" y="18" type="curve"/>
      <point x="251.15" y="18"/>
      <point x="96.15" y="144"/>
      <point x="96.15" y="360" type="curve"/>
      <point x="72.15" y="360"/>
      <point x="96.15" y="360"/>
      <point x="72.15" y="360" type="curve"/>
      <point x="72.15" y="129"/>
      <point x="237.15" y="-5"/>
      <point x="475.15" y="-5" type="curve"/>
      <point x="713.15" y="-5"/>
      <point x="877.15" y="131"/>
      <point x="877.15" y="363" type="curve"/>
      <point x="877.15" y="593"/>
      <point x="712.15" y="727"/>
      <point x="474.15" y="727" type="curve"/>
      <point x="235.15" y="727"/>
      <point x="72.15" y="591"/>
      <point x="72.15" y="360" type="curve"/>
    </contour>
  </outline>
</glyph>
<glyph name="Ugrave" format="1">
  <advance width="938.0"/>
  <unicode hex="00D9"/>
  <outline>
    <contour>
      <point x="132.0" y="721"/>
      <point x="127.0" y="721"/>
      <point x="118.0" y="721" type="curve"/>
      <point x="118.0" y="540"/>
      <point x="118.0" y="452"/>
      <point x="118.0" y="271" type="curve"/>
      <point x="118.0" y="68"/>
      <point x="252.0" y="-5"/>
      <point x="472.0" y="-5" type="curve"/>
      <point x="688.0" y="-5"/>
      <point x="820.0" y="65"/>
      <point x="820.0" y="263" type="curve"/>
      <point x="820.0" y="447"/>
      <point x="820.0" y="537"/>
      <point x="820.0" y="721" type="curve"/>
      <point x="811.0" y="721"/>
      <point x="806.0" y="721"/>
      <point x="797.0" y="721" type="curve"/>
      <point x="797.0" y="535"/>
      <point x="797.0" y="445"/>
      <point x="797.0" y="259" type="curve"/>
      <point x="797.0" y="84"/>
      <point x="673.0" y="19"/>
      <point x="474.0" y="19" type="curve"/>
      <point x="267.0" y="19"/>
      <point x="141.0" y="85"/>
      <point x="141.0" y="275" type="curve"/>
      <point x="141.0" y="454"/>
      <point x="141.0" y="542"/>
      <point x="141.0" y="721" type="curve"/>
    </contour>
    <contour>
      <point x="495.0" y="825" type="line"/>
      <point x="307.0" y="991" type="line"/>
      <point x="267.0" y="991" type="line"/>
      <point x="465.0" y="825" type="line"/>
    </contour>
  </outline>
</glyph>
<glyph name="Udieresis" format="1">
  <advance width="938.0"/>
  <unicode hex="00DC"/>
  <outline>
    <contour>
      <point x="132.0" y="721"/>
      <point x="127.0" y="721"/>
      <point x="118.0" y="721" type="curve"/>
      <point x="118.0" y="540"/>
      <point x="118.0" y="452"/>
      <point x="118.0" y="271" type="curve"/>
      <point x="118.0" y="68"/>
      <point x="252.0" y="-5"/>
      <point x="472.0" y="-5" type="curve"/>
      <point x="688.0" y="-5"/>
      <point x="820.0" y="65"/>
      <point x="820.0" y="263" type="curve"/>
      <point x="820.0" y="447"/>
      <point x="820.0" y="537"/>
      <point x="820.0" y="721" type="curve"/>
      <point x="811.0" y="721"/>
      <point x="806.0" y="721"/>
      <point x="797.0" y="721" type="curve"/>
      <point x="797.0" y="535"/>
      <point x="797.0" y="445"/>
      <point x="797.0" y="259" type="curve"/>
      <point x="797.0" y="84"/>
      <point x="673.0" y="19"/>
      <point x="474.0" y="19" type="curve"/>
      <point x="267.0" y="19"/>
      <point x="141.0" y="85"/>
      <point x="141.0" y="275" type="curve"/>
      <point x="141.0" y="454"/>
      <point x="141.0" y="542"/>
      <point x="141.0" y="721" type="curve"/>
    </contour>
    <contour>
      <point x="392.0" y="843"/>
      <point x="402.0" y="843"/>
      <point x="416.0" y="843" type="curve"/>
      <point x="416.0" y="854"/>
      <point x="408.0" y="861"/>
      <point x="396.0" y="861" type="curve"/>
      <point x="385.0" y="861"/>
      <point x="378.0" y="854"/>
      <point x="378.0" y="843" type="curve"/>
      <point x="392.0" y="843"/>
      <point x="402.0" y="843"/>
      <point x="416.0" y="843" type="curve"/>
      <point x="416.0" y="832"/>
      <point x="408.0" y="825"/>
      <point x="396.0" y="825" type="curve"/>
      <point x="385.0" y="825"/>
      <point x="378.0" y="832"/>
      <point x="378.0" y="843" type="curve"/>
    </contour>
    <contour>
      <point x="554.0" y="843"/>
      <point x="564.0" y="843"/>
      <point x="578.0" y="843" type="curve"/>
      <point x="578.0" y="854"/>
      <point x="570.0" y="861"/>
      <point x="558.0" y="861" type="curve"/>
      <point x="547.0" y="861"/>
      <point x="540.0" y="854"/>
      <point x="540.0" y="843" type="curve"/>
      <point x="554.0" y="843"/>
      <point x="564.0" y="843"/>
      <point x="578.0" y="843" type="curve"/>
      <point x="578.0" y="832"/>
      <point x="570.0" y="825"/>
      <point x="558.0" y="825" type="curve"/>
      <point x="547.0" y="825"/>
      <point x="540.0" y="832"/>
      <point x="540.0" y="843" type="curve"/>
    </contour>
  </outline>
</glyph>
<glyph name="Yacute" format="1">
  <advance width="716.0"/>
  <unicode hex="00DD"/>
  <outline>
    <contour>
      <point x="26.0" y="722"/>
      <point x="56.0" y="722"/>
      <point x="26.0" y="722" type="curve"/>
      <point x="131.0" y="594"/>
      <point x="237.0" y="465"/>
      <point x="343.0" y="337" type="curve"/>
      <point x="370.0" y="337"/>
      <point x="343.0" y="341"/>
      <point x="370.0" y="341" type="curve"/>
      <point x="265.0" y="468"/>
      <point x="161.0" y="595"/>
      <point x="56.0" y="722" type="curve"/>
    </contour>
    <contour>
      <point x="674.0" y="722"/>
      <point x="704.0" y="722"/>
      <point x="674.0" y="722" type="curve"/>
      <point x="563.0" y="595"/>
      <point x="453.0" y="468"/>
      <point x="343.0" y="341" type="curve"/>
      <point x="369.0" y="341"/>
      <point x="343.0" y="337"/>
      <point x="369.0" y="337" type="curve"/>
      <point x="481.0" y="465"/>
      <point x="592.0" y="594"/>
      <point x="704.0" y="722" type="curve"/>
    </contour>
    <contour>
      <point x="369.0" y="0"/>
      <point x="343.0" y="0"/>
      <point x="369.0" y="0" type="curve"/>
      <point x="369.0" y="115"/>
      <point x="369.0" y="231"/>
      <point x="369.0" y="346" type="curve"/>
      <point x="343.0" y="346"/>
      <point x="369.0" y="346"/>
      <point x="343.0" y="346" type="curve"/>
      <point x="343.0" y="231"/>
      <point x="343.0" y="115"/>
      <point x="343.0" y="0" type="curve"/>
    </contour>
    <contour>
      <point x="372.0" y="825" type="line"/>
      <point x="570.0" y="991" type="line"/>
      <point x="530.0" y="991" type="line"/>
      <point x="342.0" y="825" type="line"/>
    </contour>
  </outline>
</glyph>
